SplineFontDB: 1.0
FontName: DejaVuSansMono-BoldOblique
FullName: DejaVu Sans Mono Bold Oblique
FamilyName: DejaVu Sans Mono
Weight: Bold
Copyright: Copyright (c) 2003 by Bitstream, Inc. All Rights Reserved.\nDejaVu changes are in public domain\n
Version: 2.12
ItalicAngle: -11
UnderlinePosition: -85
UnderlineWidth: 90
Ascent: 1556
Descent: 492
Order2: 1
NeedsXUIDChange: 1
FSType: 0
PfmFamily: 17
TTFWeight: 700
TTFWidth: 5
LineGap: 0
VLineGap: 0
Panose: 2 11 7 9 3 3 4 11 2 4
OS2TypoAscent: 1556
OS2TypoAOffset: 0
OS2TypoDescent: -492
OS2TypoDOffset: 0
OS2TypoLinegap: 410
OS2WinAscent: 1901
OS2WinAOffset: 0
OS2WinDescent: 483
OS2WinDOffset: 0
HheadAscent: 1901
HheadAOffset: 0
HheadDescent: -483
HheadDOffset: 0
OS2Vendor: 'PfEd'
ScriptLang: 4
 1 DFLT 1 dflt 
 1 latn 1 dflt 
 1 cyrl 1 dflt 
 1 cyrl 1 SRB  
TtfTable: prep 910
\,q1GFI<%0Q+I-_]*"8n"-NE^OH2m8OLkUU7g"c,"-&TKN%tKnA-7^T",VgI"c7!sL_BlF'*Esf
",):9"bc^SK+.p7JW'barW@bf"G))+"bDU7JUdlRIjP>L=Ta1>"Fha#IPM"RrW@N_"+,>a"ag4N
Has+'5lUt5GsMU[7g"$&"*f#F"aFebG;98DrW@<B"*FAAF8>uZrW@-Q")oOgD\rRmrW?qN%0^JU
")/;KBn->"B,1Ya)Zsc("D8JPB0ZT3rW?a2"(XG("_<#`@q$,U@ho/U@1WTO'E_bT"(423"^j(f
?X=6H?PrrP%g-*!*X,h["'c6:>?\WB>Q+_.=^;27])u5e"BehQ"^,+5=[3*l,m.6J"'.K)"]g$R
<B:Zp<AFYU4!"Q)-Nd:F'*V<F"&]d7;3h;\A-5V+"&1iu"\g`S9KE^g9JQ]C(^!Al*X,/H"%iIo
8H&]]7L]Mj%0K'b"@Y^2"\&Cm6pUc)"%*n-6:&3e6N.'Q5[=OZ])t?L"@,*r"[H>q5X5H:CBHa`
,m?KE"$Iq44?FSf4CeOU3Y2HV*WnG7"$->_3;s"=rW>',"#^&[1LpSB0GF[FrW=hg"#'WU/hIG7
/eA+:$NhsZ""Pj3"Y5l@.V&W1rW=SJ"",E/"XfT<-5-J-q?&#>"!`3r+s@U',(0P:'*B?o"!'-!
*#f[t*0p[G)@H]f(BYV,"<%XM)F+EC*s3>r%L!\[!uDFL()7/[(,>t,$3LtU(^1UH!tt_K"VV^T
&eQr(&j?C0!YPYK1]n:^!tPGG"V6n$%Q=J!2ZjI"!t,2P"UdRRq?%'21'J$]!so#A"UQpd#R=H8
#^ld[!YPYA=9Aa/&d8E(!s8T;"ToeJ!YPS9*!60X!s,n4A;-!D.k<,#.k<,#.k<,#.k<,#.k<,#
.k<,#.k<,#.k<,#.k<,#.k<,#.k<,#.k<,#.k<,#.k<,#.k<,#.k<,#.k<,#.k<,#.k:TM.k<,#
.k<,#.k<,#.k<,#.k<,#.k<,#.k<,#.k<,#.k<,#.k<,#.k<,#.k<,#.k<,#.k<,#.k<,#.k<,#
.k<,#.k<,#.k<,#.k<,#.k<,#.k<,#.k<,#.k<,#.k<,#.k<,#.k<,#.k<,#.k<,#.k<,#.k<,#
.k<,#.k<,#.ieTi
EndTtf

StartChar: .notdef
Encoding: 0 -1 0
AltUni: 0
Width: 1233
Flags: W
Fore
104 -362 m 1,0,-1
 104 1444 l 1,1,-1
 1128 1444 l 1,2,-1
 1128 -362 l 1,3,-1
 104 -362 l 1,0,-1
219 -248 m 1,4,-1
 1014 -248 l 1,5,-1
 1014 1329 l 1,6,-1
 219 1329 l 1,7,-1
 219 -248 l 1,4,-1
EndSplineSet
EndChar
StartChar: exclam
Encoding: 33 33 33
Width: 1233
Flags: W
Fore
393 283 m 1,0,-1
 659 283 l 1,1,-1
 604 0 l 1,2,-1
 338 0 l 1,3,-1
 393 283 l 1,0,-1
629 1493 m 1,4,-1
 895 1493 l 1,5,-1
 768 838 l 1,6,-1
 666 481 l 1,7,-1
 467 481 l 1,8,-1
 500 838 l 1,9,-1
 629 1493 l 1,4,-1
EndSplineSet
EndChar
StartChar: quotedbl
Encoding: 34 34 34
Width: 1233
Flags: W
Fore
999 1493 m 1,0,-1
 999 938 l 1,1,-1
 743 938 l 1,2,-1
 743 1493 l 1,3,-1
 999 1493 l 1,0,-1
487 1493 m 1,4,-1
 487 938 l 1,5,-1
 231 938 l 1,6,-1
 231 1493 l 1,7,-1
 487 1493 l 1,4,-1
EndSplineSet
EndChar
StartChar: numbersign
Encoding: 35 35 35
Width: 1233
Flags: W
Fore
752 881 m 1,0,-1
 549 881 l 1,1,-1
 475 588 l 1,2,-1
 678 588 l 1,3,-1
 752 881 l 1,0,-1
696 1470 m 1,4,-1
 602 1096 l 1,5,-1
 807 1096 l 1,6,-1
 901 1470 l 1,7,-1
 1122 1470 l 1,8,-1
 1028 1096 l 1,9,-1
 1268 1096 l 1,10,-1
 1214 881 l 1,11,-1
 973 881 l 1,12,-1
 901 588 l 1,13,-1
 1141 588 l 1,14,-1
 1087 373 l 1,15,-1
 846 373 l 1,16,-1
 752 0 l 1,17,-1
 530 0 l 1,18,-1
 625 373 l 1,19,-1
 420 373 l 1,20,-1
 326 0 l 1,21,-1
 104 0 l 1,22,-1
 199 373 l 1,23,-1
 -41 373 l 1,24,-1
 12 588 l 1,25,-1
 254 588 l 1,26,-1
 326 881 l 1,27,-1
 86 881 l 1,28,-1
 139 1096 l 1,29,-1
 381 1096 l 1,30,-1
 475 1470 l 1,31,-1
 696 1470 l 1,4,-1
EndSplineSet
EndChar
StartChar: dollar
Encoding: 36 36 36
Width: 1233
Flags: W
Fore
647 532 m 1,0,-1
 588 227 l 1,1,2
 670 238 670 238 719 285.5 c 128,-1,3
 768 333 768 333 768 401 c 0,4,5
 768 453 768 453 739.5 484 c 128,-1,6
 711 515 711 515 647 532 c 1,0,-1
561 821 m 1,7,-1
 614 1099 l 1,8,9
 542 1090 542 1090 500.5 1045 c 128,-1,10
 459 1000 459 1000 459 932 c 0,11,12
 459 890 459 890 485 861.5 c 128,-1,13
 511 833 511 833 561 821 c 1,7,-1
485 -301 m 1,14,-1
 344 -301 l 1,15,-1
 401 0 l 1,16,17
 316 2 316 2 226 25 c 128,-1,18
 136 48 136 48 39 92 c 1,19,-1
 90 354 l 1,20,21
 179 293 179 293 268 260 c 128,-1,22
 357 227 357 227 444 223 c 1,23,-1
 512 569 l 1,24,25
 355 609 355 609 277 691 c 128,-1,26
 199 773 199 773 199 897 c 0,27,28
 199 1074 199 1074 326.5 1192.5 c 128,-1,29
 454 1311 454 1311 657 1319 c 1,30,-1
 705 1556 l 1,31,-1
 846 1556 l 1,32,-1
 799 1319 l 1,33,34
 870 1315 870 1315 943 1301 c 128,-1,35
 1016 1287 1016 1287 1092 1262 c 1,36,-1
 1042 1012 l 1,37,38
 982 1051 982 1051 910.5 1073 c 128,-1,39
 839 1095 839 1095 758 1100 c 1,40,-1
 694 782 l 1,41,42
 866 736 866 736 947 652 c 128,-1,43
 1028 568 1028 568 1028 438 c 0,44,45
 1028 254 1028 254 896.5 134.5 c 128,-1,46
 765 15 765 15 543 0 c 1,47,-1
 485 -301 l 1,14,-1
EndSplineSet
EndChar
StartChar: percent
Encoding: 37 37 37
Width: 1233
Flags: W
Fore
33 1112 m 0,0,1
 33 1246 33 1246 126 1339 c 128,-1,2
 219 1432 219 1432 352 1432 c 0,3,4
 485 1432 485 1432 578.5 1338.5 c 128,-1,5
 672 1245 672 1245 672 1112 c 0,6,7
 672 979 672 979 578.5 886 c 128,-1,8
 485 793 485 793 352 793 c 0,9,10
 219 793 219 793 126 885.5 c 128,-1,11
 33 978 33 978 33 1112 c 0,0,1
352 1249 m 0,12,13
 295 1249 295 1249 255 1209.5 c 128,-1,14
 215 1170 215 1170 215 1112 c 0,15,16
 215 1054 215 1054 255 1014.5 c 128,-1,17
 295 975 295 975 352 975 c 0,18,19
 410 975 410 975 449.5 1014.5 c 128,-1,20
 489 1054 489 1054 489 1112 c 0,21,22
 489 1169 489 1169 449 1209 c 128,-1,23
 409 1249 409 1249 352 1249 c 0,12,13
86 561 m 1,24,-1
 1128 979 l 1,25,-1
 1169 883 l 1,26,-1
 121 465 l 1,27,-1
 86 561 l 1,24,-1
580 319 m 0,28,29
 580 453 580 453 672.5 546 c 128,-1,30
 765 639 765 639 899 639 c 0,31,32
 1031 639 1031 639 1125 545.5 c 128,-1,33
 1219 452 1219 452 1219 319 c 0,34,35
 1219 187 1219 187 1125 93.5 c 128,-1,36
 1031 0 1031 0 899 0 c 0,37,38
 765 0 765 0 672.5 92.5 c 128,-1,39
 580 185 580 185 580 319 c 0,28,29
897 457 m 0,40,41
 841 457 841 457 801.5 417 c 128,-1,42
 762 377 762 377 762 319 c 0,43,44
 762 261 762 261 801 221.5 c 128,-1,45
 840 182 840 182 897 182 c 0,46,47
 955 182 955 182 995.5 222 c 128,-1,48
 1036 262 1036 262 1036 319 c 0,49,50
 1036 376 1036 376 995 416.5 c 128,-1,51
 954 457 954 457 897 457 c 0,40,41
EndSplineSet
EndChar
StartChar: ampersand
Encoding: 38 38 38
Width: 1233
Flags: W
Fore
739 72 m 1,0,1
 653 22 653 22 563.5 -3.5 c 128,-1,2
 474 -29 474 -29 387 -29 c 0,3,4
 195 -29 195 -29 81 77.5 c 128,-1,5
 -33 184 -33 184 -33 360 c 0,6,7
 -33 523 -33 523 65.5 665.5 c 128,-1,8
 164 808 164 808 350 913 c 1,9,10
 324 971 324 971 311.5 1021 c 128,-1,11
 299 1071 299 1071 299 1118 c 0,12,13
 299 1301 299 1301 433 1410.5 c 128,-1,14
 567 1520 567 1520 795 1520 c 0,15,16
 865 1520 865 1520 932.5 1509 c 128,-1,17
 1000 1498 1000 1498 1065 1477 c 1,18,-1
 1016 1221 l 1,19,20
 962 1256 962 1256 898 1275 c 128,-1,21
 834 1294 834 1294 768 1294 c 0,22,23
 680 1294 680 1294 633 1258.5 c 128,-1,24
 586 1223 586 1223 586 1157 c 0,25,26
 586 1123 586 1123 605 1065 c 128,-1,27
 624 1007 624 1007 664 920 c 2,28,-1
 885 440 l 1,29,30
 927 498 927 498 951 575 c 128,-1,31
 975 652 975 652 979 745 c 1,32,-1
 1214 745 l 1,33,34
 1203 588 1203 588 1143 462.5 c 128,-1,35
 1083 337 1083 337 975 246 c 1,36,-1
 1090 0 l 1,37,-1
 774 0 l 1,38,-1
 739 72 l 1,0,1
436 731 m 1,39,40
 346 679 346 679 299 604.5 c 128,-1,41
 252 530 252 530 252 438 c 0,42,43
 252 339 252 339 315.5 273 c 128,-1,44
 379 207 379 207 473 207 c 0,45,46
 517 207 517 207 562 220.5 c 128,-1,47
 607 234 607 234 653 262 c 1,48,-1
 436 731 l 1,39,40
EndSplineSet
EndChar
StartChar: quotesingle
Encoding: 39 39 39
Width: 1233
Flags: W
Fore
743 1493 m 1,0,-1
 743 938 l 1,1,-1
 487 938 l 1,2,-1
 487 1493 l 1,3,-1
 743 1493 l 1,0,-1
EndSplineSet
EndChar
StartChar: parenleft
Encoding: 40 40 40
Width: 1233
Flags: W
Fore
1079 1554 m 1,0,1
 846 1242 846 1242 729 940.5 c 128,-1,2
 612 639 612 639 612 346 c 0,3,4
 612 203 612 203 640 49.5 c 128,-1,5
 668 -104 668 -104 725 -270 c 1,6,-1
 500 -270 l 1,7,8
 418 -98 418 -98 378 67 c 128,-1,9
 338 232 338 232 338 393 c 0,10,11
 338 683 338 683 467.5 974 c 128,-1,12
 597 1265 597 1265 854 1554 c 1,13,-1
 1079 1554 l 1,0,1
EndSplineSet
EndChar
StartChar: parenright
Encoding: 41 41 41
Width: 1233
Flags: W
Fore
113 -270 m 1,0,1
 346 42 346 42 463 343.5 c 128,-1,2
 580 645 580 645 580 938 c 0,3,4
 580 1081 580 1081 552 1234.5 c 128,-1,5
 524 1388 524 1388 467 1554 c 1,6,-1
 692 1554 l 1,7,8
 773 1383 773 1383 813.5 1218 c 128,-1,9
 854 1053 854 1053 854 891 c 0,10,11
 854 601 854 601 724.5 310 c 128,-1,12
 595 19 595 19 338 -270 c 1,13,-1
 113 -270 l 1,0,1
EndSplineSet
EndChar
StartChar: asterisk
Encoding: 42 42 42
Width: 1233
Flags: W
Fore
1108 1217 m 1,0,-1
 778 1044 l 1,1,-1
 1108 870 l 1,2,-1
 1032 729 l 1,3,-1
 700 913 l 1,4,-1
 700 569 l 1,5,-1
 528 569 l 1,6,-1
 528 913 l 1,7,-1
 197 729 l 1,8,-1
 121 870 l 1,9,-1
 453 1044 l 1,10,-1
 121 1217 l 1,11,-1
 197 1358 l 1,12,-1
 528 1176 l 1,13,-1
 528 1520 l 1,14,-1
 700 1520 l 1,15,-1
 700 1176 l 1,16,-1
 1032 1358 l 1,17,-1
 1108 1217 l 1,0,-1
EndSplineSet
EndChar
StartChar: plus
Encoding: 43 43 43
Width: 1233
Flags: W
Fore
735 1192 m 1,0,-1
 735 762 l 1,1,-1
 1165 762 l 1,2,-1
 1165 524 l 1,3,-1
 735 524 l 1,4,-1
 735 92 l 1,5,-1
 498 92 l 1,6,-1
 498 524 l 1,7,-1
 66 524 l 1,8,-1
 66 762 l 1,9,-1
 498 762 l 1,10,-1
 498 1192 l 1,11,-1
 735 1192 l 1,0,-1
EndSplineSet
EndChar
StartChar: comma
Encoding: 44 44 44
Width: 1233
Flags: W
Fore
434 367 m 1,0,-1
 748 367 l 1,1,-1
 694 96 l 1,2,-1
 424 -287 l 1,3,-1
 209 -287 l 1,4,-1
 381 96 l 1,5,-1
 434 367 l 1,0,-1
EndSplineSet
EndChar
StartChar: hyphen
Encoding: 45 45 45
Width: 1233
Flags: W
Fore
299 735 m 1,0,-1
 928 735 l 1,1,-1
 872 444 l 1,2,-1
 244 444 l 1,3,-1
 299 735 l 1,0,-1
EndSplineSet
EndChar
StartChar: period
Encoding: 46 46 46
Width: 1233
Flags: W
Fore
418 367 m 1,0,-1
 752 367 l 1,1,-1
 682 0 l 1,2,-1
 348 0 l 1,3,-1
 418 367 l 1,0,-1
EndSplineSet
EndChar
StartChar: slash
Encoding: 47 47 47
Width: 1233
Flags: W
Fore
852 1493 m 1,0,-1
 1075 1493 l 1,1,-1
 221 -190 l 1,2,-1
 0 -190 l 1,3,-1
 852 1493 l 1,0,-1
EndSplineSet
EndChar
StartChar: zero
Encoding: 48 48 48
Width: 1233
Flags: W
Fore
489 745 m 0,0,1
 489 798 489 798 525.5 834 c 128,-1,2
 562 870 562 870 614 870 c 0,3,4
 667 870 667 870 704 833.5 c 128,-1,5
 741 797 741 797 741 745 c 0,6,7
 741 694 741 694 704 657.5 c 128,-1,8
 667 621 667 621 614 621 c 0,9,10
 562 621 562 621 525.5 656.5 c 128,-1,11
 489 692 489 692 489 745 c 0,0,1
383 440 m 0,12,13
 383 327 383 327 417 273 c 128,-1,14
 451 219 451 219 522 219 c 0,15,16
 586 219 586 219 639.5 272 c 128,-1,17
 693 325 693 325 729 424 c 0,18,19
 783 576 783 576 815.5 750 c 128,-1,20
 848 924 848 924 848 1051 c 0,21,22
 848 1165 848 1165 815 1218.5 c 128,-1,23
 782 1272 782 1272 711 1272 c 0,24,25
 644 1272 644 1272 591 1220 c 128,-1,26
 538 1168 538 1168 502 1067 c 0,27,28
 448 918 448 918 415.5 744 c 128,-1,29
 383 570 383 570 383 440 c 0,12,13
1143 1071 m 0,30,31
 1143 858 1143 858 1092 638.5 c 128,-1,32
 1041 419 1041 419 956 260 c 0,33,34
 883 123 883 123 762.5 47 c 128,-1,35
 642 -29 642 -29 498 -29 c 0,36,37
 305 -29 305 -29 197.5 89 c 128,-1,38
 90 207 90 207 90 420 c 0,39,40
 90 631 90 631 140.5 852 c 128,-1,41
 191 1073 191 1073 274 1229 c 0,42,43
 348 1366 348 1366 469 1443 c 128,-1,44
 590 1520 590 1520 733 1520 c 0,45,46
 926 1520 926 1520 1034.5 1401.5 c 128,-1,47
 1143 1283 1143 1283 1143 1071 c 0,30,31
EndSplineSet
EndChar
StartChar: one
Encoding: 49 49 49
Width: 1233
Flags: W
Fore
94 260 m 1,0,-1
 424 260 l 1,1,-1
 612 1229 l 1,2,-1
 291 1153 l 1,3,-1
 342 1419 l 1,4,-1
 668 1493 l 1,5,-1
 950 1493 l 1,6,-1
 711 260 l 1,7,-1
 1020 260 l 1,8,-1
 969 0 l 1,9,-1
 43 0 l 1,10,-1
 94 260 l 1,0,-1
EndSplineSet
EndChar
StartChar: two
Encoding: 50 50 50
Width: 1233
Flags: W
Fore
354 260 m 1,0,-1
 971 260 l 1,1,-1
 920 0 l 1,2,-1
 -29 0 l 1,3,-1
 20 252 l 1,4,-1
 297 500 l 2,5,6
 348 546 348 546 442 628 c 0,7,8
 844 982 844 982 844 1135 c 0,9,10
 844 1207 844 1207 788 1247.5 c 128,-1,11
 732 1288 732 1288 633 1288 c 0,12,13
 551 1288 551 1288 447 1258.5 c 128,-1,14
 343 1229 343 1229 225 1171 c 1,15,-1
 276 1438 l 1,16,17
 385 1478 385 1478 492 1499 c 128,-1,18
 599 1520 599 1520 700 1520 c 0,19,20
 893 1520 893 1520 1014 1425 c 128,-1,21
 1135 1330 1135 1330 1135 1180 c 0,22,23
 1135 931 1135 931 681 542 c 2,24,-1
 641 508 l 1,25,-1
 354 260 l 1,0,-1
EndSplineSet
EndChar
StartChar: three
Encoding: 51 51 51
Width: 1233
Flags: W
Fore
514 668 m 2,0,-1
 356 668 l 1,1,-1
 408 928 l 1,2,-1
 565 928 l 2,3,4
 689 928 689 928 766.5 983.5 c 128,-1,5
 844 1039 844 1039 844 1124 c 0,6,7
 844 1194 844 1194 786.5 1232 c 128,-1,8
 729 1270 729 1270 623 1270 c 0,9,10
 540 1270 540 1270 440.5 1249 c 128,-1,11
 341 1228 341 1228 231 1188 c 1,12,-1
 285 1456 l 1,13,14
 389 1488 389 1488 485.5 1504 c 128,-1,15
 582 1520 582 1520 670 1520 c 0,16,17
 874 1520 874 1520 997 1423 c 128,-1,18
 1120 1326 1120 1326 1120 1167 c 0,19,20
 1120 1027 1120 1027 1025.5 930.5 c 128,-1,21
 931 834 931 834 764 805 c 1,22,23
 898 769 898 769 964 687 c 128,-1,24
 1030 605 1030 605 1030 473 c 0,25,26
 1030 243 1030 243 866.5 107 c 128,-1,27
 703 -29 703 -29 422 -29 c 0,28,29
 320 -29 320 -29 205.5 -10 c 128,-1,30
 91 9 91 9 -31 45 c 1,31,-1
 23 315 l 1,32,33
 119 269 119 269 222.5 245 c 128,-1,34
 326 221 326 221 434 221 c 0,35,36
 588 221 588 221 669 289.5 c 128,-1,37
 750 358 750 358 750 487 c 0,38,39
 750 569 750 569 685.5 618.5 c 128,-1,40
 621 668 621 668 514 668 c 2,0,-1
EndSplineSet
EndChar
StartChar: four
Encoding: 52 52 52
Width: 1233
Flags: W
Fore
772 1153 m 1,0,-1
 289 575 l 1,1,-1
 662 575 l 1,2,-1
 772 1153 l 1,0,-1
811 1493 m 1,3,-1
 1120 1493 l 1,4,-1
 942 575 l 1,5,-1
 1106 575 l 1,6,-1
 1057 322 l 1,7,-1
 893 322 l 1,8,-1
 831 0 l 1,9,-1
 549 0 l 1,10,-1
 612 322 l 1,11,-1
 18 322 l 1,12,-1
 76 608 l 1,13,-1
 811 1493 l 1,3,-1
EndSplineSet
EndChar
StartChar: five
Encoding: 53 53 53
Width: 1233
Flags: W
Fore
340 1493 m 1,0,-1
 1151 1493 l 1,1,-1
 1100 1233 l 1,2,-1
 528 1233 l 1,3,-1
 475 956 l 1,4,5
 508 969 508 969 544 975 c 128,-1,6
 580 981 580 981 621 981 c 0,7,8
 818 981 818 981 934.5 864.5 c 128,-1,9
 1051 748 1051 748 1051 551 c 0,10,11
 1051 284 1051 284 873 127.5 c 128,-1,12
 695 -29 695 -29 387 -29 c 0,13,14
 292 -29 292 -29 196.5 -13 c 128,-1,15
 101 3 101 3 6 35 c 1,16,-1
 57 301 l 1,17,18
 127 261 127 261 212.5 240 c 128,-1,19
 298 219 298 219 393 219 c 0,20,21
 565 219 565 219 664.5 298 c 128,-1,22
 764 377 764 377 764 512 c 0,23,24
 764 616 764 616 693 676.5 c 128,-1,25
 622 737 622 737 500 737 c 0,26,27
 422 737 422 737 339.5 717 c 128,-1,28
 257 697 257 697 178 659 c 1,29,-1
 340 1493 l 1,0,-1
EndSplineSet
EndChar
StartChar: six
Encoding: 54 54 54
Width: 1233
Flags: W
Fore
803 557 m 0,0,1
 803 645 803 645 757.5 696.5 c 128,-1,2
 712 748 712 748 635 748 c 0,3,4
 530 748 530 748 456.5 648 c 128,-1,5
 383 548 383 548 383 401 c 0,6,7
 383 313 383 313 428.5 260 c 128,-1,8
 474 207 474 207 549 207 c 0,9,10
 657 207 657 207 730 307 c 128,-1,11
 803 407 803 407 803 557 c 0,0,1
1169 1458 m 1,12,-1
 1118 1190 l 1,13,14
 1058 1234 1058 1234 988 1257 c 128,-1,15
 918 1280 918 1280 846 1280 c 0,16,17
 689 1280 689 1280 583 1171.5 c 128,-1,18
 477 1063 477 1063 430 854 c 1,19,20
 490 919 490 919 566 952 c 128,-1,21
 642 985 642 985 731 985 c 0,22,23
 898 985 898 985 995 873.5 c 128,-1,24
 1092 762 1092 762 1092 569 c 0,25,26
 1092 310 1092 310 938 138.5 c 128,-1,27
 784 -33 784 -33 551 -33 c 0,28,29
 324 -33 324 -33 210 92.5 c 128,-1,30
 96 218 96 218 96 469 c 0,31,32
 96 686 96 686 156.5 891 c 128,-1,33
 217 1096 217 1096 326 1247 c 0,34,35
 424 1383 424 1383 563 1450.5 c 128,-1,36
 702 1518 702 1518 887 1518 c 0,37,38
 954 1518 954 1518 1023.5 1503 c 128,-1,39
 1093 1488 1093 1488 1169 1458 c 1,12,-1
EndSplineSet
EndChar
StartChar: seven
Encoding: 55 55 55
Width: 1233
Flags: W
Fore
262 1493 m 1,0,-1
 1225 1493 l 1,1,-1
 1184 1284 l 1,2,-1
 428 0 l 1,3,-1
 109 0 l 1,4,-1
 844 1233 l 1,5,-1
 211 1233 l 1,6,-1
 262 1493 l 1,0,-1
EndSplineSet
EndChar
StartChar: eight
Encoding: 56 56 56
Width: 1233
Flags: W
Fore
778 477 m 0,0,1
 778 565 778 565 724.5 616.5 c 128,-1,2
 671 668 671 668 580 668 c 0,3,4
 468 668 468 668 397 592.5 c 128,-1,5
 326 517 326 517 326 399 c 0,6,7
 326 313 326 313 381.5 261 c 128,-1,8
 437 209 437 209 528 209 c 0,9,10
 637 209 637 209 707.5 284.5 c 128,-1,11
 778 360 778 360 778 477 c 0,0,1
434 799 m 1,12,13
 330 826 330 826 276.5 896.5 c 128,-1,14
 223 967 223 967 223 1077 c 0,15,16
 223 1260 223 1260 370.5 1390 c 128,-1,17
 518 1520 518 1520 731 1520 c 0,18,19
 912 1520 912 1520 1024.5 1421 c 128,-1,20
 1137 1322 1137 1322 1137 1163 c 0,21,22
 1137 1015 1137 1015 1048 913 c 128,-1,23
 959 811 959 811 809 786 c 1,24,25
 918 757 918 757 979 672.5 c 128,-1,26
 1040 588 1040 588 1040 465 c 0,27,28
 1040 245 1040 245 891.5 108 c 128,-1,29
 743 -29 743 -29 504 -29 c 0,30,31
 294 -29 294 -29 178.5 70.5 c 128,-1,32
 63 170 63 170 63 350 c 0,33,34
 63 519 63 519 162 638.5 c 128,-1,35
 261 758 261 758 434 799 c 1,12,13
485 1069 m 0,36,37
 485 996 485 996 530.5 949.5 c 128,-1,38
 576 903 576 903 647 903 c 0,39,40
 748 903 748 903 812.5 963 c 128,-1,41
 877 1023 877 1023 877 1116 c 0,42,43
 877 1195 877 1195 831 1239.5 c 128,-1,44
 785 1284 785 1284 702 1284 c 0,45,46
 610 1284 610 1284 547.5 1222 c 128,-1,47
 485 1160 485 1160 485 1069 c 0,36,37
EndSplineSet
EndChar
StartChar: nine
Encoding: 57 57 57
Width: 1233
Flags: W
Fore
55 29 m 1,0,-1
 106 297 l 1,1,2
 167 253 167 253 237 230 c 128,-1,3
 307 207 307 207 379 207 c 0,4,5
 535 207 535 207 641 315.5 c 128,-1,6
 747 424 747 424 795 633 c 1,7,8
 734 568 734 568 658 535 c 128,-1,9
 582 502 582 502 494 502 c 0,10,11
 328 502 328 502 231.5 613 c 128,-1,12
 135 724 135 724 135 918 c 0,13,14
 135 1177 135 1177 288 1348.5 c 128,-1,15
 441 1520 441 1520 674 1520 c 0,16,17
 901 1520 901 1520 1014.5 1394 c 128,-1,18
 1128 1268 1128 1268 1128 1018 c 0,19,20
 1128 801 1128 801 1067.5 594.5 c 128,-1,21
 1007 388 1007 388 899 238 c 0,22,23
 802 102 802 102 663 35.5 c 128,-1,24
 524 -31 524 -31 338 -31 c 0,25,26
 271 -31 271 -31 201 -16 c 128,-1,27
 131 -1 131 -1 55 29 c 1,0,-1
424 928 m 0,28,29
 424 840 424 840 468.5 789.5 c 128,-1,30
 513 739 513 739 590 739 c 0,31,32
 694 739 694 739 768 839 c 128,-1,33
 842 939 842 939 842 1085 c 0,34,35
 842 1173 842 1173 796.5 1226.5 c 128,-1,36
 751 1280 751 1280 676 1280 c 0,37,38
 568 1280 568 1280 496 1179 c 128,-1,39
 424 1078 424 1078 424 928 c 0,28,29
EndSplineSet
EndChar
StartChar: colon
Encoding: 58 58 58
Width: 1233
Flags: W
Fore
510 1063 m 1,0,-1
 844 1063 l 1,1,-1
 772 698 l 1,2,-1
 438 698 l 1,3,-1
 510 1063 l 1,0,-1
375 367 m 1,4,-1
 709 367 l 1,5,-1
 639 0 l 1,6,-1
 305 0 l 1,7,-1
 375 367 l 1,4,-1
EndSplineSet
EndChar
StartChar: semicolon
Encoding: 59 59 59
Width: 1233
Flags: W
Fore
375 367 m 1,0,-1
 709 367 l 1,1,-1
 655 96 l 1,2,-1
 385 -287 l 1,3,-1
 170 -287 l 1,4,-1
 322 96 l 1,5,-1
 375 367 l 1,0,-1
510 1063 m 1,6,-1
 844 1063 l 1,7,-1
 772 698 l 1,8,-1
 438 698 l 1,9,-1
 510 1063 l 1,6,-1
EndSplineSet
EndChar
StartChar: less
Encoding: 60 60 60
Width: 1233
Flags: W
Fore
1145 926 m 1,0,-1
 350 641 l 1,1,-1
 1145 358 l 1,2,-1
 1145 109 l 1,3,-1
 88 524 l 1,4,-1
 88 760 l 1,5,-1
 1145 1176 l 1,6,-1
 1145 926 l 1,0,-1
EndSplineSet
EndChar
StartChar: equal
Encoding: 61 61 61
Width: 1233
Flags: W
Fore
88 532 m 1,0,-1
 1145 532 l 1,1,-1
 1145 295 l 1,2,-1
 88 295 l 1,3,-1
 88 532 l 1,0,-1
88 987 m 1,4,-1
 1145 987 l 1,5,-1
 1145 752 l 1,6,-1
 88 752 l 1,7,-1
 88 987 l 1,4,-1
EndSplineSet
EndChar
StartChar: greater
Encoding: 62 62 62
Width: 1233
Flags: W
Fore
88 926 m 1,0,-1
 88 1176 l 1,1,-1
 1145 760 l 1,2,-1
 1145 524 l 1,3,-1
 88 109 l 1,4,-1
 88 358 l 1,5,-1
 883 641 l 1,6,-1
 88 926 l 1,0,-1
EndSplineSet
EndChar
StartChar: question
Encoding: 63 63 63
Width: 1233
Flags: W
Fore
346 283 m 1,0,-1
 612 283 l 1,1,-1
 557 0 l 1,2,-1
 291 0 l 1,3,-1
 346 283 l 1,0,-1
635 401 m 1,4,-1
 369 401 l 1,5,-1
 399 555 l 1,6,7
 417 651 417 651 461 722.5 c 128,-1,8
 505 794 505 794 598 872 c 1,9,-1
 705 965 l 1,10,-1
 713 972 l 2,11,12
 858 1098 858 1098 858 1165 c 0,13,14
 858 1222 858 1222 821 1253 c 128,-1,15
 784 1284 784 1284 715 1284 c 0,16,17
 626 1284 626 1284 523.5 1247.5 c 128,-1,18
 421 1211 421 1211 305 1139 c 1,19,-1
 358 1407 l 1,20,21
 460 1462 460 1462 567 1491 c 128,-1,22
 674 1520 674 1520 778 1520 c 0,23,24
 943 1520 943 1520 1042 1437.5 c 128,-1,25
 1141 1355 1141 1355 1141 1221 c 0,26,27
 1141 1126 1141 1126 1092 1043 c 128,-1,28
 1043 960 1043 960 926 862 c 1,29,-1
 821 776 l 1,30,-1
 813 769 l 2,31,32
 687 664 687 664 659 524 c 1,33,-1
 635 401 l 1,4,-1
EndSplineSet
EndChar
StartChar: at
Encoding: 64 64 64
Width: 1233
Flags: W
Fore
723 301 m 0,0,1
 827 301 827 301 898 392.5 c 128,-1,2
 969 484 969 484 969 621 c 0,3,4
 969 698 969 698 928.5 742 c 128,-1,5
 888 786 888 786 817 786 c 0,6,7
 714 786 714 786 642.5 696.5 c 128,-1,8
 571 607 571 607 571 477 c 0,9,10
 571 394 571 394 611 347.5 c 128,-1,11
 651 301 651 301 723 301 c 0,0,1
1067 135 m 1,12,-1
 870 135 l 1,13,-1
 887 217 l 1,14,15
 844 168 844 168 787 141.5 c 128,-1,16
 730 115 730 115 670 115 c 0,17,18
 531 115 531 115 451 203 c 128,-1,19
 371 291 371 291 371 444 c 0,20,21
 371 666 371 666 498.5 819.5 c 128,-1,22
 626 973 626 973 809 973 c 0,23,24
 881 973 881 973 933 948.5 c 128,-1,25
 985 924 985 924 1014 877 c 1,26,27
 1023 912 1023 912 1027.5 945 c 128,-1,28
 1032 978 1032 978 1032 1008 c 0,29,30
 1032 1099 1032 1099 970 1152.5 c 128,-1,31
 908 1206 908 1206 803 1206 c 0,32,33
 679 1206 679 1206 566 1142.5 c 128,-1,34
 453 1079 453 1079 365 961 c 0,35,36
 274 838 274 838 226 690 c 128,-1,37
 178 542 178 542 178 387 c 0,38,39
 178 148 178 148 296 8.5 c 128,-1,40
 414 -131 414 -131 614 -131 c 0,41,42
 693 -131 693 -131 774 -107 c 128,-1,43
 855 -83 855 -83 936 -35 c 1,44,-1
 999 -209 l 1,45,46
 892 -266 892 -266 796.5 -292.5 c 128,-1,47
 701 -319 701 -319 606 -319 c 0,48,49
 321 -319 321 -319 153.5 -128 c 128,-1,50
 -14 63 -14 63 -14 387 c 0,51,52
 -14 551 -14 551 30 709 c 128,-1,53
 74 867 74 867 158 1004 c 0,54,55
 274 1190 274 1190 442 1292.5 c 128,-1,56
 610 1395 610 1395 799 1395 c 0,57,58
 993 1395 993 1395 1111 1292.5 c 128,-1,59
 1229 1190 1229 1190 1229 1022 c 0,60,61
 1229 992 1229 992 1225.5 960 c 128,-1,62
 1222 928 1222 928 1214 892 c 1,63,-1
 1067 135 l 1,12,-1
EndSplineSet
EndChar
StartChar: A
Encoding: 65 65 65
Width: 1233
Flags: W
Fore
717 1219 m 1,0,-1
 453 612 l 1,1,-1
 737 612 l 1,2,-1
 717 1219 l 1,0,-1
582 1493 m 1,3,-1
 942 1493 l 1,4,-1
 1055 0 l 1,5,-1
 762 0 l 1,6,-1
 748 369 l 1,7,-1
 348 369 l 1,8,-1
 186 0 l 1,9,-1
 -113 0 l 1,10,-1
 582 1493 l 1,3,-1
EndSplineSet
EndChar
StartChar: B
Encoding: 66 66 66
Width: 1233
Flags: W
Fore
397 678 m 1,0,-1
 311 236 l 1,1,-1
 508 236 l 2,2,3
 664 236 664 236 737.5 302.5 c 128,-1,4
 811 369 811 369 811 510 c 0,5,6
 811 596 811 596 758 637 c 128,-1,7
 705 678 705 678 594 678 c 2,8,-1
 397 678 l 1,0,-1
510 1260 m 1,9,-1
 442 913 l 1,10,-1
 639 913 l 2,11,12
 760 913 760 913 821.5 967.5 c 128,-1,13
 883 1022 883 1022 883 1128 c 0,14,15
 883 1196 883 1196 840 1228 c 128,-1,16
 797 1260 797 1260 707 1260 c 2,17,-1
 510 1260 l 1,9,-1
270 1495 m 1,18,-1
 752 1495 l 2,19,20
 963 1495 963 1495 1070.5 1412 c 128,-1,21
 1178 1329 1178 1329 1178 1165 c 0,22,23
 1178 1004 1178 1004 1083 905 c 128,-1,24
 988 806 988 806 813 786 c 1,25,26
 952 774 952 774 1029 695 c 128,-1,27
 1106 616 1106 616 1106 485 c 0,28,29
 1106 377 1106 377 1068 283.5 c 128,-1,30
 1030 190 1030 190 961 127 c 0,31,32
 886 60 886 60 771 30 c 128,-1,33
 656 0 656 0 461 0 c 2,34,-1
 -20 0 l 1,35,-1
 270 1495 l 1,18,-1
EndSplineSet
EndChar
StartChar: C
Encoding: 67 67 67
Width: 1233
Flags: W
Fore
946 43 m 1,0,1
 869 7 869 7 788.5 -11 c 128,-1,2
 708 -29 708 -29 623 -29 c 0,3,4
 384 -29 384 -29 257.5 108.5 c 128,-1,5
 131 246 131 246 131 506 c 0,6,7
 131 736 131 736 201.5 947.5 c 128,-1,8
 272 1159 272 1159 393 1296 c 0,9,10
 490 1406 490 1406 620 1463 c 128,-1,11
 750 1520 750 1520 903 1520 c 0,12,13
 985 1520 985 1520 1063.5 1502 c 128,-1,14
 1142 1484 1142 1484 1219 1448 c 1,15,-1
 1155 1120 l 1,16,17
 1105 1188 1105 1188 1032.5 1222.5 c 128,-1,18
 960 1257 960 1257 872 1257 c 0,19,20
 792 1257 792 1257 715 1208.5 c 128,-1,21
 638 1160 638 1160 584 1075 c 0,22,23
 515 968 515 968 472.5 817.5 c 128,-1,24
 430 667 430 667 430 532 c 0,25,26
 430 386 430 386 493 308.5 c 128,-1,27
 556 231 556 231 674 231 c 0,28,29
 755 231 755 231 835.5 264.5 c 128,-1,30
 916 298 916 298 1010 371 c 1,31,-1
 946 43 l 1,0,1
EndSplineSet
EndChar
StartChar: D
Encoding: 68 68 68
Width: 1233
Flags: W
Fore
524 1227 m 1,0,-1
 338 266 l 1,1,-1
 434 266 l 2,2,3
 546 266 546 266 623 310 c 128,-1,4
 700 354 700 354 743 442 c 0,5,6
 795 548 795 548 827.5 694.5 c 128,-1,7
 860 841 860 841 860 967 c 0,8,9
 860 1099 860 1099 797.5 1163 c 128,-1,10
 735 1227 735 1227 606 1227 c 2,11,-1
 524 1227 l 1,0,-1
283 1493 m 1,12,-1
 598 1493 l 2,13,14
 883 1493 883 1493 1024 1370 c 128,-1,15
 1165 1247 1165 1247 1165 999 c 0,16,17
 1165 912 1165 912 1151.5 813.5 c 128,-1,18
 1138 715 1138 715 1110 602 c 0,19,20
 1073 451 1073 451 1021 346 c 128,-1,21
 969 241 969 241 897 172 c 0,22,23
 803 80 803 80 672 40 c 128,-1,24
 541 0 541 0 322 0 c 2,25,-1
 -8 0 l 1,26,-1
 283 1493 l 1,12,-1
EndSplineSet
EndChar
StartChar: E
Encoding: 69 69 69
Width: 1233
Flags: W
Fore
958 0 m 1,0,-1
 29 0 l 1,1,-1
 317 1493 l 1,2,-1
 1249 1493 l 1,3,-1
 1198 1233 l 1,4,-1
 563 1233 l 1,5,-1
 500 911 l 1,6,-1
 1075 911 l 1,7,-1
 1026 651 l 1,8,-1
 451 651 l 1,9,-1
 375 260 l 1,10,-1
 1010 260 l 1,11,-1
 958 0 l 1,0,-1
EndSplineSet
EndChar
StartChar: F
Encoding: 70 70 70
Width: 1233
Flags: W
Fore
1217 1233 m 1,0,-1
 582 1233 l 1,1,-1
 520 911 l 1,2,-1
 1098 911 l 1,3,-1
 1047 651 l 1,4,-1
 469 651 l 1,5,-1
 342 0 l 1,6,-1
 47 0 l 1,7,-1
 338 1493 l 1,8,-1
 1268 1493 l 1,9,-1
 1217 1233 l 1,0,-1
EndSplineSet
EndChar
StartChar: G
Encoding: 71 71 71
Width: 1233
Flags: W
Fore
991 94 m 1,0,1
 921 35 921 35 823 3 c 128,-1,2
 725 -29 725 -29 610 -29 c 0,3,4
 368 -29 368 -29 235 116 c 128,-1,5
 102 261 102 261 102 524 c 0,6,7
 102 739 102 739 174.5 949 c 128,-1,8
 247 1159 247 1159 367 1294 c 0,9,10
 465 1405 465 1405 595 1462.5 c 128,-1,11
 725 1520 725 1520 877 1520 c 0,12,13
 958 1520 958 1520 1036.5 1502 c 128,-1,14
 1115 1484 1115 1484 1192 1448 c 1,15,-1
 1126 1120 l 1,16,17
 1075 1187 1075 1187 1006 1222 c 128,-1,18
 937 1257 937 1257 856 1257 c 0,19,20
 785 1257 785 1257 720.5 1227.5 c 128,-1,21
 656 1198 656 1198 604 1141 c 1,22,23
 563 1094 563 1094 528.5 1031 c 128,-1,24
 494 968 494 968 469 891 c 0,25,26
 437 793 437 793 420 701.5 c 128,-1,27
 403 610 403 610 403 532 c 0,28,29
 403 388 403 388 467 309.5 c 128,-1,30
 531 231 531 231 647 231 c 0,31,32
 683 231 683 231 714.5 239.5 c 128,-1,33
 746 248 746 248 770 264 c 1,34,-1
 827 555 l 1,35,-1
 621 555 l 1,36,-1
 670 803 l 1,37,-1
 1130 803 l 1,38,-1
 991 94 l 1,0,1
EndSplineSet
EndChar
StartChar: H
Encoding: 72 72 72
Width: 1233
Flags: W
Fore
283 1493 m 1,0,-1
 578 1493 l 1,1,-1
 467 924 l 1,2,-1
 836 924 l 1,3,-1
 946 1493 l 1,4,-1
 1241 1493 l 1,5,-1
 950 0 l 1,6,-1
 655 0 l 1,7,-1
 784 664 l 1,8,-1
 416 664 l 1,9,-1
 287 0 l 1,10,-1
 -8 0 l 1,11,-1
 283 1493 l 1,0,-1
EndSplineSet
EndChar
StartChar: I
Encoding: 73 73 73
Width: 1233
Flags: W
Fore
266 1233 m 1,0,-1
 317 1493 l 1,1,-1
 1206 1493 l 1,2,-1
 1155 1233 l 1,3,-1
 858 1233 l 1,4,-1
 670 260 l 1,5,-1
 967 260 l 1,6,-1
 915 0 l 1,7,-1
 27 0 l 1,8,-1
 78 260 l 1,9,-1
 375 260 l 1,10,-1
 563 1233 l 1,11,-1
 266 1233 l 1,0,-1
EndSplineSet
EndChar
StartChar: J
Encoding: 74 74 74
Width: 1233
Flags: W
Fore
-20 78 m 1,0,-1
 45 422 l 1,1,2
 123 326 123 326 211.5 278.5 c 128,-1,3
 300 231 300 231 403 231 c 0,4,5
 519 231 519 231 575.5 285 c 128,-1,6
 632 339 632 339 659 479 c 1,7,-1
 807 1233 l 1,8,-1
 446 1233 l 1,9,-1
 498 1493 l 1,10,-1
 1153 1493 l 1,11,-1
 954 479 l 1,12,13
 921 309 921 309 880 223 c 128,-1,14
 839 137 839 137 772 82 c 0,15,16
 705 27 705 27 614 -1 c 128,-1,17
 523 -29 523 -29 410 -29 c 0,18,19
 299 -29 299 -29 192 -2.5 c 128,-1,20
 85 24 85 24 -20 78 c 1,0,-1
EndSplineSet
EndChar
StartChar: K
Encoding: 75 75 75
Width: 1233
Flags: W
Fore
270 1493 m 1,0,-1
 565 1493 l 1,1,-1
 457 936 l 1,2,-1
 1020 1493 l 1,3,-1
 1368 1493 l 1,4,-1
 762 889 l 1,5,-1
 1100 0 l 1,6,-1
 797 0 l 1,7,-1
 543 670 l 1,8,-1
 371 500 l 1,9,-1
 276 0 l 1,10,-1
 -18 0 l 1,11,-1
 270 1493 l 1,0,-1
EndSplineSet
EndChar
StartChar: L
Encoding: 76 76 76
Width: 1233
Flags: W
Fore
80 0 m 1,0,-1
 371 1493 l 1,1,-1
 666 1493 l 1,2,-1
 426 260 l 1,3,-1
 1057 260 l 1,4,-1
 1006 0 l 1,5,-1
 80 0 l 1,0,-1
EndSplineSet
EndChar
StartChar: M
Encoding: 77 77 77
Width: 1233
Flags: W
Fore
231 1493 m 1,0,-1
 584 1493 l 1,1,-1
 633 838 l 1,2,-1
 930 1493 l 1,3,-1
 1290 1493 l 1,4,-1
 1001 0 l 1,5,-1
 748 0 l 1,6,-1
 985 1198 l 1,7,-1
 692 543 l 1,8,-1
 473 543 l 1,9,-1
 426 1198 l 1,10,-1
 195 0 l 1,11,-1
 -57 0 l 1,12,-1
 231 1493 l 1,0,-1
EndSplineSet
EndChar
StartChar: N
Encoding: 78 78 78
Width: 1233
Flags: W
Fore
266 1493 m 1,0,-1
 569 1493 l 1,1,-1
 784 408 l 1,2,-1
 995 1493 l 1,3,-1
 1255 1493 l 1,4,-1
 967 0 l 1,5,-1
 674 0 l 1,6,-1
 449 1085 l 1,7,-1
 238 0 l 1,8,-1
 -25 0 l 1,9,-1
 266 1493 l 1,0,-1
EndSplineSet
EndChar
StartChar: O
Encoding: 79 79 79
Width: 1233
Flags: W
Fore
868 1020 m 0,0,1
 868 1140 868 1140 828 1200 c 128,-1,2
 788 1260 788 1260 707 1260 c 0,3,4
 648 1260 648 1260 598 1224.5 c 128,-1,5
 548 1189 548 1189 512 1120 c 1,6,7
 490 1081 490 1081 468.5 1016.5 c 128,-1,8
 447 952 447 952 424 860 c 0,9,10
 395 745 395 745 380 645.5 c 128,-1,11
 365 546 365 546 365 471 c 0,12,13
 365 351 365 351 405 292 c 128,-1,14
 445 233 445 233 526 233 c 0,15,16
 585 233 585 233 634.5 268.5 c 128,-1,17
 684 304 684 304 721 373 c 0,18,19
 744 417 744 417 766.5 482.5 c 128,-1,20
 789 548 789 548 809 631 c 0,21,22
 838 746 838 746 853 845.5 c 128,-1,23
 868 945 868 945 868 1020 c 0,0,1
61 465 m 0,24,25
 61 665 61 665 111 870 c 128,-1,26
 161 1075 161 1075 246 1229 c 0,27,28
 323 1369 323 1369 448 1444.5 c 128,-1,29
 573 1520 573 1520 729 1520 c 0,30,31
 944 1520 944 1520 1057.5 1394 c 128,-1,32
 1171 1268 1171 1268 1171 1030 c 0,33,34
 1171 828 1171 828 1122 621.5 c 128,-1,35
 1073 415 1073 415 989 264 c 0,36,37
 911 123 911 123 785.5 47 c 128,-1,38
 660 -29 660 -29 504 -29 c 0,39,40
 287 -29 287 -29 174 97.5 c 128,-1,41
 61 224 61 224 61 465 c 0,24,25
EndSplineSet
EndChar
StartChar: P
Encoding: 80 80 80
Width: 1233
Flags: W
Fore
553 1245 m 1,0,-1
 469 807 l 1,1,-1
 612 807 l 2,2,3
 758 807 758 807 830.5 874.5 c 128,-1,4
 903 942 903 942 903 1077 c 0,5,6
 903 1168 903 1168 851 1206.5 c 128,-1,7
 799 1245 799 1245 674 1245 c 2,8,-1
 553 1245 l 1,0,-1
307 1493 m 1,9,-1
 727 1493 l 2,10,11
 963 1493 963 1493 1086.5 1401.5 c 128,-1,12
 1210 1310 1210 1310 1210 1135 c 0,13,14
 1210 1021 1210 1021 1173.5 909 c 128,-1,15
 1137 797 1137 797 1079 731 c 0,16,17
 1001 640 1001 640 885 599.5 c 128,-1,18
 769 559 769 559 584 559 c 2,19,-1
 420 559 l 1,20,-1
 311 0 l 1,21,-1
 16 0 l 1,22,-1
 307 1493 l 1,9,-1
EndSplineSet
EndChar
StartChar: Q
Encoding: 81 81 81
Width: 1233
Flags: W
Fore
535 -29 m 1,0,-1
 508 -29 l 2,1,2
 290 -29 290 -29 175.5 96 c 128,-1,3
 61 221 61 221 61 461 c 0,4,5
 61 663 61 663 110.5 869.5 c 128,-1,6
 160 1076 160 1076 244 1227 c 0,7,8
 322 1368 322 1368 447.5 1444 c 128,-1,9
 573 1520 573 1520 729 1520 c 0,10,11
 940 1520 940 1520 1055.5 1396.5 c 128,-1,12
 1171 1273 1171 1273 1171 1049 c 0,13,14
 1171 836 1171 836 1122.5 626.5 c 128,-1,15
 1074 417 1074 417 989 262 c 0,16,17
 954 196 954 196 901.5 141 c 128,-1,18
 849 86 849 86 776 39 c 1,19,-1
 924 -147 l 1,20,-1
 713 -281 l 1,21,-1
 535 -29 l 1,0,-1
868 1020 m 0,22,23
 868 1140 868 1140 828 1200 c 128,-1,24
 788 1260 788 1260 707 1260 c 0,25,26
 648 1260 648 1260 598 1224.5 c 128,-1,27
 548 1189 548 1189 512 1120 c 1,28,29
 490 1081 490 1081 468.5 1016.5 c 128,-1,30
 447 952 447 952 424 860 c 0,31,32
 395 745 395 745 380 645.5 c 128,-1,33
 365 546 365 546 365 471 c 0,34,35
 365 351 365 351 405 292 c 128,-1,36
 445 233 445 233 526 233 c 0,37,38
 585 233 585 233 634.5 268.5 c 128,-1,39
 684 304 684 304 721 373 c 0,40,41
 744 417 744 417 766.5 482.5 c 128,-1,42
 789 548 789 548 809 631 c 0,43,44
 838 746 838 746 853 845.5 c 128,-1,45
 868 945 868 945 868 1020 c 0,22,23
EndSplineSet
EndChar
StartChar: R
Encoding: 82 82 82
Width: 1233
Flags: W
Fore
788 705 m 1,0,1
 849 696 849 696 883 660 c 128,-1,2
 917 624 917 624 944 537 c 1,3,-1
 1108 0 l 1,4,-1
 807 0 l 1,5,-1
 701 376 l 2,6,7
 698 386 698 386 693 403 c 0,8,9
 640 590 640 590 535 590 c 2,10,-1
 418 590 l 1,11,-1
 303 0 l 1,12,-1
 8 0 l 1,13,-1
 299 1493 l 1,14,-1
 709 1493 l 2,15,16
 941 1493 941 1493 1053 1405.5 c 128,-1,17
 1165 1318 1165 1318 1165 1137 c 0,18,19
 1165 950 1165 950 1067 837.5 c 128,-1,20
 969 725 969 725 788 705 c 1,0,1
547 1245 m 1,21,-1
 467 838 l 1,22,-1
 590 838 l 2,23,24
 725 838 725 838 794.5 902 c 128,-1,25
 864 966 864 966 864 1090 c 0,26,27
 864 1168 864 1168 818 1206.5 c 128,-1,28
 772 1245 772 1245 680 1245 c 2,29,-1
 547 1245 l 1,21,-1
EndSplineSet
EndChar
StartChar: S
Encoding: 83 83 83
Width: 1233
Flags: W
Fore
506 664 m 2,0,1
 314 744 314 744 252 819 c 128,-1,2
 190 894 190 894 190 1020 c 0,3,4
 190 1240 190 1240 351.5 1380 c 128,-1,5
 513 1520 513 1520 770 1520 c 0,6,7
 873 1520 873 1520 970.5 1499.5 c 128,-1,8
 1068 1479 1068 1479 1159 1438 c 1,9,-1
 1102 1153 l 1,10,11
 1034 1215 1034 1215 943 1246.5 c 128,-1,12
 852 1278 852 1278 741 1278 c 0,13,14
 623 1278 623 1278 549 1221.5 c 128,-1,15
 475 1165 475 1165 475 1077 c 0,16,17
 475 993 475 993 659 910 c 2,18,-1
 666 907 l 1,19,-1
 782 856 l 2,20,21
 928 791 928 791 995.5 699.5 c 128,-1,22
 1063 608 1063 608 1063 475 c 0,23,24
 1063 245 1063 245 902 108 c 128,-1,25
 741 -29 741 -29 467 -29 c 0,26,27
 357 -29 357 -29 242.5 -3 c 128,-1,28
 128 23 128 23 4 76 c 1,29,-1
 63 381 l 1,30,31
 160 300 160 300 266 257.5 c 128,-1,32
 372 215 372 215 479 215 c 0,33,34
 612 215 612 215 688 273.5 c 128,-1,35
 764 332 764 332 764 432 c 0,36,37
 764 494 764 494 729 539.5 c 128,-1,38
 694 585 694 585 625 614 c 2,39,-1
 506 664 l 2,0,1
EndSplineSet
EndChar
StartChar: T
Encoding: 84 84 84
Width: 1233
Flags: W
Fore
618 0 m 1,0,-1
 324 0 l 1,1,-1
 563 1235 l 1,2,-1
 180 1235 l 1,3,-1
 229 1493 l 1,4,-1
 1288 1493 l 1,5,-1
 1237 1235 l 1,6,-1
 858 1235 l 1,7,-1
 618 0 l 1,0,-1
EndSplineSet
EndChar
StartChar: U
Encoding: 85 85 85
Width: 1233
Flags: W
Fore
68 551 m 1,0,-1
 252 1493 l 1,1,-1
 547 1493 l 1,2,-1
 348 477 l 1,3,4
 348 475 348 475 347 471 c 0,5,6
 340 424 340 424 340 403 c 0,7,8
 340 321 340 321 386 276 c 128,-1,9
 432 231 432 231 516 231 c 0,10,11
 624 231 624 231 688.5 292 c 128,-1,12
 753 353 753 353 778 477 c 1,13,-1
 977 1493 l 1,14,-1
 1272 1493 l 1,15,-1
 1087 551 l 1,16,17
 1052 371 1052 371 1012 278.5 c 128,-1,18
 972 186 972 186 909 123 c 0,19,20
 833 49 833 49 729 10 c 128,-1,21
 625 -29 625 -29 500 -29 c 0,22,23
 281 -29 281 -29 163 70 c 128,-1,24
 45 169 45 169 45 352 c 0,25,26
 45 394 45 394 50.5 444 c 128,-1,27
 56 494 56 494 68 551 c 1,0,-1
EndSplineSet
EndChar
StartChar: V
Encoding: 86 86 86
Width: 1233
Flags: W
Fore
518 242 m 1,0,-1
 1024 1493 l 1,1,-1
 1325 1493 l 1,2,-1
 680 0 l 1,3,-1
 268 0 l 1,4,-1
 203 1493 l 1,5,-1
 494 1493 l 1,6,-1
 518 242 l 1,0,-1
EndSplineSet
EndChar
StartChar: W
Encoding: 87 87 87
Width: 1233
Flags: W
Fore
143 1493 m 1,0,-1
 397 1493 l 1,1,-1
 289 397 l 1,2,-1
 561 1106 l 1,3,-1
 799 1106 l 1,4,-1
 811 397 l 1,5,-1
 1108 1493 l 1,6,-1
 1370 1493 l 1,7,-1
 909 0 l 1,8,-1
 639 0 l 1,9,-1
 627 784 l 1,10,-1
 309 0 l 1,11,-1
 41 0 l 1,12,-1
 143 1493 l 1,0,-1
EndSplineSet
EndChar
StartChar: X
Encoding: 88 88 88
Width: 1233
Flags: W
Fore
1071 0 m 1,0,-1
 780 0 l 1,1,-1
 580 512 l 1,2,-1
 180 0 l 1,3,-1
 -143 0 l 1,4,-1
 471 782 l 1,5,-1
 184 1493 l 1,6,-1
 475 1493 l 1,7,-1
 662 1030 l 1,8,-1
 1022 1493 l 1,9,-1
 1343 1493 l 1,10,-1
 770 756 l 1,11,-1
 1071 0 l 1,0,-1
EndSplineSet
EndChar
StartChar: Y
Encoding: 89 89 89
Width: 1233
Flags: W
Fore
145 1493 m 1,0,-1
 438 1493 l 1,1,-1
 625 844 l 1,2,-1
 1036 1493 l 1,3,-1
 1358 1493 l 1,4,-1
 725 588 l 1,5,-1
 610 0 l 1,6,-1
 317 0 l 1,7,-1
 432 588 l 1,8,-1
 145 1493 l 1,0,-1
EndSplineSet
EndChar
StartChar: Z
Encoding: 90 90 90
Width: 1233
Flags: W
Fore
281 1493 m 1,0,-1
 1290 1493 l 1,1,-1
 1241 1249 l 1,2,-1
 365 260 l 1,3,-1
 1065 260 l 1,4,-1
 1014 0 l 1,5,-1
 -33 0 l 1,6,-1
 14 244 l 1,7,-1
 872 1233 l 1,8,-1
 229 1233 l 1,9,-1
 281 1493 l 1,0,-1
EndSplineSet
EndChar
StartChar: bracketleft
Encoding: 91 91 91
Width: 1233
Flags: W
Fore
580 1556 m 1,0,-1
 1087 1556 l 1,1,-1
 1049 1366 l 1,2,-1
 807 1366 l 1,3,-1
 526 -80 l 1,4,-1
 768 -80 l 1,5,-1
 731 -270 l 1,6,-1
 223 -270 l 1,7,-1
 580 1556 l 1,0,-1
EndSplineSet
EndChar
StartChar: backslash
Encoding: 92 92 92
Width: 1233
Flags: W
Fore
543 1493 m 1,0,-1
 741 -190 l 1,1,-1
 539 -190 l 1,2,-1
 340 1493 l 1,3,-1
 543 1493 l 1,0,-1
EndSplineSet
EndChar
StartChar: bracketright
Encoding: 93 93 93
Width: 1233
Flags: W
Fore
612 -270 m 1,0,-1
 106 -270 l 1,1,-1
 143 -80 l 1,2,-1
 385 -80 l 1,3,-1
 666 1366 l 1,4,-1
 424 1366 l 1,5,-1
 461 1556 l 1,6,-1
 969 1556 l 1,7,-1
 612 -270 l 1,0,-1
EndSplineSet
EndChar
StartChar: asciicircum
Encoding: 94 94 94
Width: 1233
Flags: W
Fore
739 1493 m 1,0,-1
 1176 936 l 1,1,-1
 934 936 l 1,2,-1
 616 1237 l 1,3,-1
 299 936 l 1,4,-1
 57 936 l 1,5,-1
 494 1493 l 1,6,-1
 739 1493 l 1,0,-1
EndSplineSet
EndChar
StartChar: underscore
Encoding: 95 95 95
Width: 1233
Flags: W
Fore
1233 -293 m 1,0,-1
 1233 -483 l 1,1,-1
 0 -483 l 1,2,-1
 0 -293 l 1,3,-1
 1233 -293 l 1,0,-1
EndSplineSet
EndChar
StartChar: grave
Encoding: 96 96 96
Width: 1233
Flags: W
Fore
655 1638 m 1,0,-1
 864 1262 l 1,1,-1
 666 1262 l 1,2,-1
 371 1638 l 1,3,-1
 655 1638 l 1,0,-1
EndSplineSet
EndChar
StartChar: a
Encoding: 97 97 97
Width: 1233
Flags: W
Fore
690 530 m 2,0,1
 518 530 518 530 435 478 c 128,-1,2
 352 426 352 426 352 317 c 0,3,4
 352 254 352 254 392.5 213 c 128,-1,5
 433 172 433 172 496 172 c 0,6,7
 614 172 614 172 694 265 c 128,-1,8
 774 358 774 358 803 530 c 1,9,-1
 690 530 l 2,0,1
1114 639 m 1,10,-1
 991 0 l 1,11,-1
 700 0 l 1,12,-1
 725 125 l 1,13,14
 658 48 658 48 571.5 9.5 c 128,-1,15
 485 -29 485 -29 375 -29 c 0,16,17
 224 -29 224 -29 135.5 58.5 c 128,-1,18
 47 146 47 146 47 295 c 0,19,20
 47 510 47 510 202.5 623.5 c 128,-1,21
 358 737 358 737 651 737 c 2,22,-1
 844 737 l 1,23,-1
 852 786 l 2,24,25
 853 792 853 792 853.5 797.5 c 128,-1,26
 854 803 854 803 854 815 c 0,27,28
 854 872 854 872 803 902 c 128,-1,29
 752 932 752 932 655 932 c 0,30,31
 573 932 573 932 469.5 903.5 c 128,-1,32
 366 875 366 875 248 819 c 1,33,-1
 295 1069 l 1,34,35
 408 1108 408 1108 508.5 1127.5 c 128,-1,36
 609 1147 609 1147 700 1147 c 0,37,38
 917 1147 917 1147 1029 1071 c 128,-1,39
 1141 995 1141 995 1141 848 c 0,40,41
 1141 809 1141 809 1134 756 c 128,-1,42
 1127 703 1127 703 1114 639 c 1,10,-1
EndSplineSet
EndChar
StartChar: b
Encoding: 98 98 98
Width: 1233
Flags: W
Fore
600 209 m 0,0,1
 711 209 711 209 790.5 350.5 c 128,-1,2
 870 492 870 492 870 694 c 0,3,4
 870 795 870 795 828.5 851 c 128,-1,5
 787 907 787 907 713 907 c 0,6,7
 599 907 599 907 516.5 768.5 c 128,-1,8
 434 630 434 630 434 432 c 0,9,10
 434 328 434 328 479 268.5 c 128,-1,11
 524 209 524 209 600 209 c 0,0,1
381 207 m 1,12,-1
 340 0 l 1,13,-1
 47 0 l 1,14,-1
 350 1556 l 1,15,-1
 643 1556 l 1,16,-1
 524 952 l 1,17,18
 587 1048 587 1048 670 1097.5 c 128,-1,19
 753 1147 753 1147 848 1147 c 0,20,21
 994 1147 994 1147 1079.5 1037.5 c 128,-1,22
 1165 928 1165 928 1165 739 c 0,23,24
 1165 608 1165 608 1134.5 478.5 c 128,-1,25
 1104 349 1104 349 1049 244 c 0,26,27
 980 115 980 115 875 43 c 128,-1,28
 770 -29 770 -29 653 -29 c 0,29,30
 542 -29 542 -29 470 33.5 c 128,-1,31
 398 96 398 96 381 207 c 1,12,-1
EndSplineSet
EndChar
StartChar: c
Encoding: 99 99 99
Width: 1233
Flags: W
Fore
956 37 m 1,0,1
 879 4 879 4 797.5 -12.5 c 128,-1,2
 716 -29 716 -29 633 -29 c 0,3,4
 407 -29 407 -29 278.5 95 c 128,-1,5
 150 219 150 219 150 434 c 0,6,7
 150 751 150 751 333.5 949 c 128,-1,8
 517 1147 517 1147 813 1147 c 0,9,10
 911 1147 911 1147 996 1126.5 c 128,-1,11
 1081 1106 1081 1106 1157 1063 c 1,12,-1
 1104 795 l 1,13,14
 1043 853 1043 853 975 881 c 128,-1,15
 907 909 907 909 829 909 c 0,16,17
 659 909 659 909 552.5 785 c 128,-1,18
 446 661 446 661 446 463 c 0,19,20
 446 335 446 335 507 272 c 128,-1,21
 568 209 568 209 692 209 c 0,22,23
 762 209 762 209 841.5 235 c 128,-1,24
 921 261 921 261 1012 313 c 1,25,-1
 956 37 l 1,0,1
EndSplineSet
EndChar
StartChar: d
Encoding: 100 100 100
Width: 1233
Flags: W
Fore
633 909 m 0,0,1
 522 909 522 909 442 767.5 c 128,-1,2
 362 626 362 626 362 424 c 0,3,4
 362 323 362 323 403.5 267 c 128,-1,5
 445 211 445 211 518 211 c 0,6,7
 632 211 632 211 715.5 349.5 c 128,-1,8
 799 488 799 488 799 686 c 0,9,10
 799 790 799 790 754 849.5 c 128,-1,11
 709 909 709 909 633 909 c 0,0,1
854 911 m 1,12,-1
 979 1556 l 1,13,-1
 1272 1556 l 1,14,-1
 969 0 l 1,15,-1
 678 0 l 1,16,-1
 709 166 l 1,17,18
 643 70 643 70 560.5 20.5 c 128,-1,19
 478 -29 478 -29 383 -29 c 0,20,21
 237 -29 237 -29 151.5 81 c 128,-1,22
 66 191 66 191 66 381 c 0,23,24
 66 510 66 510 97 638.5 c 128,-1,25
 128 767 128 767 184 874 c 0,26,27
 253 1003 253 1003 358 1076 c 128,-1,28
 463 1149 463 1149 580 1149 c 0,29,30
 692 1149 692 1149 765.5 1085.5 c 128,-1,31
 839 1022 839 1022 854 911 c 1,12,-1
EndSplineSet
EndChar
StartChar: e
Encoding: 101 101 101
Width: 1233
Flags: W
Fore
993 55 m 1,0,1
 898 13 898 13 795 -8 c 128,-1,2
 692 -29 692 -29 582 -29 c 0,3,4
 334 -29 334 -29 205 89.5 c 128,-1,5
 76 208 76 208 76 436 c 0,6,7
 76 577 76 577 120 709 c 128,-1,8
 164 841 164 841 244 938 c 0,9,10
 328 1040 328 1040 444 1094.5 c 128,-1,11
 560 1149 560 1149 694 1149 c 0,12,13
 903 1149 903 1149 1029 1029 c 128,-1,14
 1155 909 1155 909 1155 711 c 0,15,16
 1155 666 1155 666 1148.5 607 c 128,-1,17
 1142 548 1142 548 1128 465 c 1,18,-1
 369 465 l 1,19,20
 366 448 366 448 364.5 433 c 128,-1,21
 363 418 363 418 362 403 c 0,22,23
 362 304 362 304 429 253.5 c 128,-1,24
 496 203 496 203 627 203 c 0,25,26
 735 203 735 203 843 234 c 128,-1,27
 951 265 951 265 1044 324 c 1,28,-1
 993 55 l 1,0,1
876 684 m 1,29,30
 880 698 880 698 881.5 711.5 c 128,-1,31
 883 725 883 725 883 737 c 0,32,33
 883 822 883 822 832 871 c 128,-1,34
 781 920 781 920 692 920 c 0,35,36
 592 920 592 920 521 861 c 128,-1,37
 450 802 450 802 410 684 c 1,38,-1
 876 684 l 1,29,30
EndSplineSet
EndChar
StartChar: f
Encoding: 102 102 102
Width: 1233
Flags: W
Fore
856 1196 m 1,0,-1
 840 1120 l 1,1,-1
 1184 1120 l 1,2,-1
 1141 895 l 1,3,-1
 797 895 l 1,4,-1
 623 0 l 1,5,-1
 330 0 l 1,6,-1
 504 895 l 1,7,-1
 231 895 l 1,8,-1
 274 1120 l 1,9,-1
 547 1120 l 1,10,-1
 563 1198 l 1,11,12
 605 1409 605 1409 697 1482.5 c 128,-1,13
 789 1556 789 1556 1028 1556 c 2,14,-1
 1268 1556 l 1,15,-1
 1225 1331 l 1,16,-1
 995 1331 l 2,17,18
 930 1331 930 1331 901 1303.5 c 128,-1,19
 872 1276 872 1276 856 1196 c 1,0,-1
EndSplineSet
EndChar
StartChar: g
Encoding: 103 103 103
Width: 1233
Flags: W
Fore
520 246 m 0,0,1
 635 246 635 246 719 378.5 c 128,-1,2
 803 511 803 511 803 698 c 0,3,4
 803 798 803 798 762 853.5 c 128,-1,5
 721 909 721 909 649 909 c 0,6,7
 535 909 535 909 451 776.5 c 128,-1,8
 367 644 367 644 367 459 c 0,9,10
 367 357 367 357 407 301.5 c 128,-1,11
 447 246 447 246 520 246 c 0,0,1
987 84 m 1,12,13
 934 -193 934 -193 796 -308.5 c 128,-1,14
 658 -424 658 -424 385 -424 c 0,15,16
 287 -424 287 -424 196 -409 c 128,-1,17
 105 -394 105 -394 18 -365 c 1,18,-1
 72 -100 l 1,19,20
 147 -145 147 -145 229.5 -167.5 c 128,-1,21
 312 -190 312 -190 399 -190 c 0,22,23
 524 -190 524 -190 594.5 -131.5 c 128,-1,24
 665 -73 665 -73 688 51 c 1,25,-1
 715 184 l 1,26,27
 661 101 661 101 583.5 58.5 c 128,-1,28
 506 16 506 16 410 16 c 0,29,30
 253 16 253 16 160.5 120.5 c 128,-1,31
 68 225 68 225 68 403 c 0,32,33
 68 542 68 542 110 683 c 128,-1,34
 152 824 152 824 225 932 c 0,35,36
 295 1035 295 1035 395.5 1093 c 128,-1,37
 496 1151 496 1151 602 1151 c 0,38,39
 706 1151 706 1151 773.5 1096 c 128,-1,40
 841 1041 841 1041 862 938 c 1,41,-1
 897 1120 l 1,42,-1
 1190 1120 l 1,43,-1
 987 84 l 1,12,13
EndSplineSet
EndChar
StartChar: h
Encoding: 104 104 104
Width: 1233
Flags: W
Fore
1102 728 m 2,0,-1
 961 0 l 1,1,-1
 668 0 l 1,2,-1
 801 682 l 2,3,4
 806 708 806 708 808.5 734.5 c 128,-1,5
 811 761 811 761 811 788 c 0,6,7
 811 846 811 846 782 876.5 c 128,-1,8
 753 907 753 907 698 907 c 0,9,10
 615 907 615 907 557 835.5 c 128,-1,11
 499 764 499 764 473 629 c 2,12,-1
 352 0 l 1,13,-1
 59 0 l 1,14,-1
 362 1556 l 1,15,-1
 653 1556 l 1,16,-1
 537 952 l 1,17,18
 585 1044 585 1044 669 1095.5 c 128,-1,19
 753 1147 753 1147 854 1147 c 0,20,21
 982 1147 982 1147 1051 1077.5 c 128,-1,22
 1120 1008 1120 1008 1120 881 c 0,23,24
 1120 851 1120 851 1115.5 813 c 128,-1,25
 1111 775 1111 775 1102 728 c 2,0,-1
EndSplineSet
EndChar
StartChar: i
Encoding: 105 105 105
Width: 1233
Flags: W
Fore
309 1120 m 1,0,-1
 889 1120 l 1,1,-1
 715 225 l 1,2,-1
 1079 225 l 1,3,-1
 1036 0 l 1,4,-1
 14 0 l 1,5,-1
 57 225 l 1,6,-1
 422 225 l 1,7,-1
 553 895 l 1,8,-1
 266 895 l 1,9,-1
 309 1120 l 1,0,-1
702 1665 m 1,10,-1
 995 1665 l 1,11,-1
 928 1323 l 1,12,-1
 635 1323 l 1,13,-1
 702 1665 l 1,10,-1
EndSplineSet
EndChar
StartChar: j
Encoding: 106 106 106
Width: 1233
Flags: W
Fore
733 43 m 1,0,1
 700 -124 700 -124 669.5 -195.5 c 128,-1,2
 639 -267 639 -267 592 -313 c 0,3,4
 533 -372 533 -372 452 -398 c 128,-1,5
 371 -424 371 -424 244 -424 c 2,6,-1
 -63 -424 l 1,7,-1
 -18 -199 l 1,8,-1
 213 -199 l 2,9,10
 313 -199 313 -199 364 -145.5 c 128,-1,11
 415 -92 415 -92 440 43 c 1,12,-1
 606 895 l 1,13,-1
 309 895 l 1,14,-1
 352 1120 l 1,15,-1
 942 1120 l 1,16,-1
 733 43 l 1,0,1
983 1323 m 1,17,-1
 690 1323 l 1,18,-1
 756 1665 l 1,19,-1
 1049 1665 l 1,20,-1
 983 1323 l 1,17,-1
EndSplineSet
EndChar
StartChar: k
Encoding: 107 107 107
Width: 1233
Flags: W
Fore
383 1556 m 1,0,-1
 676 1556 l 1,1,-1
 524 774 l 1,2,-1
 928 1120 l 1,3,-1
 1298 1120 l 1,4,-1
 793 702 l 1,5,-1
 1106 0 l 1,6,-1
 795 0 l 1,7,-1
 573 524 l 1,8,-1
 457 428 l 1,9,-1
 375 0 l 1,10,-1
 82 0 l 1,11,-1
 383 1556 l 1,0,-1
EndSplineSet
EndChar
StartChar: l
Encoding: 108 108 108
Width: 1233
Flags: W
Fore
625 365 m 2,0,1
 621 345 621 345 618.5 328.5 c 128,-1,2
 616 312 616 312 616 307 c 0,3,4
 616 262 616 262 647 243.5 c 128,-1,5
 678 225 678 225 756 225 c 2,6,-1
 1034 225 l 1,7,-1
 989 0 l 1,8,-1
 692 0 l 2,9,10
 487 0 487 0 402 56 c 128,-1,11
 317 112 317 112 317 242 c 0,12,13
 317 265 317 265 322 300 c 128,-1,14
 327 335 327 335 336 379 c 1,15,-1
 539 1331 l 1,16,-1
 233 1331 l 1,17,-1
 276 1556 l 1,18,-1
 874 1556 l 1,19,-1
 625 365 l 2,0,1
EndSplineSet
EndChar
StartChar: m
Encoding: 109 109 109
Width: 1233
Flags: W
Fore
770 1008 m 1,0,1
 802 1072 802 1072 866 1109.5 c 128,-1,2
 930 1147 930 1147 1006 1147 c 0,3,4
 1098 1147 1098 1147 1152 1091 c 128,-1,5
 1206 1035 1206 1035 1206 938 c 0,6,7
 1206 891 1206 891 1200.5 842.5 c 128,-1,8
 1195 794 1195 794 1180 719 c 1,9,-1
 1040 0 l 1,10,-1
 801 0 l 1,11,-1
 940 719 l 2,12,13
 950 770 950 770 954 800.5 c 128,-1,14
 958 831 958 831 958 846 c 0,15,16
 958 886 958 886 940.5 907 c 128,-1,17
 923 928 923 928 889 928 c 0,18,19
 841 928 841 928 812.5 883 c 128,-1,20
 784 838 784 838 762 719 c 1,21,-1
 623 0 l 1,22,-1
 383 0 l 1,23,-1
 524 719 l 1,24,25
 532 761 532 761 536.5 794 c 128,-1,26
 541 827 541 827 541 846 c 0,27,28
 541 886 541 886 523 907 c 128,-1,29
 505 928 505 928 471 928 c 0,30,31
 424 928 424 928 396.5 884.5 c 128,-1,32
 369 841 369 841 346 719 c 1,33,-1
 207 0 l 1,34,-1
 -33 0 l 1,35,-1
 184 1120 l 1,36,-1
 397 1120 l 1,37,-1
 375 1004 l 1,38,39
 416 1072 416 1072 476.5 1109.5 c 128,-1,40
 537 1147 537 1147 606 1147 c 0,41,42
 675 1147 675 1147 718.5 1109.5 c 128,-1,43
 762 1072 762 1072 770 1008 c 1,0,1
EndSplineSet
EndChar
StartChar: n
Encoding: 110 110 110
Width: 1233
Flags: W
Fore
1102 728 m 2,0,-1
 961 0 l 1,1,-1
 668 0 l 1,2,-1
 801 682 l 2,3,4
 806 708 806 708 808.5 734.5 c 128,-1,5
 811 761 811 761 811 788 c 0,6,7
 811 846 811 846 782 876.5 c 128,-1,8
 753 907 753 907 698 907 c 0,9,10
 616 907 616 907 557.5 835 c 128,-1,11
 499 763 499 763 473 629 c 2,12,-1
 352 0 l 1,13,-1
 59 0 l 1,14,-1
 276 1120 l 1,15,-1
 569 1120 l 1,16,-1
 537 952 l 1,17,18
 585 1044 585 1044 669 1095.5 c 128,-1,19
 753 1147 753 1147 854 1147 c 0,20,21
 982 1147 982 1147 1051 1077.5 c 128,-1,22
 1120 1008 1120 1008 1120 881 c 0,23,24
 1120 851 1120 851 1115.5 813 c 128,-1,25
 1111 775 1111 775 1102 728 c 2,0,-1
EndSplineSet
EndChar
StartChar: o
Encoding: 111 111 111
Width: 1233
Flags: W
Fore
850 684 m 0,0,1
 850 793 850 793 803.5 852 c 128,-1,2
 757 911 757 911 672 911 c 0,3,4
 549 911 549 911 466 775 c 128,-1,5
 383 639 383 639 383 434 c 0,6,7
 383 328 383 328 431.5 267.5 c 128,-1,8
 480 207 480 207 563 207 c 0,9,10
 684 207 684 207 767 343.5 c 128,-1,11
 850 480 850 480 850 684 c 0,0,1
88 426 m 0,12,13
 88 748 88 748 254.5 948.5 c 128,-1,14
 421 1149 421 1149 688 1149 c 0,15,16
 903 1149 903 1149 1024 1028.5 c 128,-1,17
 1145 908 1145 908 1145 694 c 0,18,19
 1145 371 1145 371 978.5 171 c 128,-1,20
 812 -29 812 -29 545 -29 c 0,21,22
 330 -29 330 -29 209 91.5 c 128,-1,23
 88 212 88 212 88 426 c 0,12,13
EndSplineSet
EndChar
StartChar: p
Encoding: 112 112 112
Width: 1233
Flags: W
Fore
379 207 m 1,0,-1
 256 -426 l 1,1,-1
 -37 -426 l 1,2,-1
 264 1120 l 1,3,-1
 557 1120 l 1,4,-1
 524 952 l 1,5,6
 595 1050 595 1050 677 1098.5 c 128,-1,7
 759 1147 759 1147 852 1147 c 0,8,9
 999 1147 999 1147 1084 1037.5 c 128,-1,10
 1169 928 1169 928 1169 739 c 0,11,12
 1169 610 1169 610 1138 480 c 128,-1,13
 1107 350 1107 350 1051 244 c 0,14,15
 982 115 982 115 877 43 c 128,-1,16
 772 -29 772 -29 655 -29 c 0,17,18
 543 -29 543 -29 471 33 c 128,-1,19
 399 95 399 95 379 207 c 1,0,-1
602 209 m 0,20,21
 713 209 713 209 793.5 351 c 128,-1,22
 874 493 874 493 874 694 c 0,23,24
 874 795 874 795 832.5 851 c 128,-1,25
 791 907 791 907 717 907 c 0,26,27
 603 907 603 907 519.5 768.5 c 128,-1,28
 436 630 436 630 436 432 c 0,29,30
 436 328 436 328 481 268.5 c 128,-1,31
 526 209 526 209 602 209 c 0,20,21
EndSplineSet
EndChar
StartChar: q
Encoding: 113 113 113
Width: 1233
Flags: W
Fore
854 911 m 1,0,-1
 893 1120 l 1,1,-1
 1186 1120 l 1,2,-1
 885 -426 l 1,3,-1
 594 -426 l 1,4,-1
 709 166 l 1,5,6
 646 71 646 71 563 21 c 128,-1,7
 480 -29 480 -29 385 -29 c 0,8,9
 239 -29 239 -29 153.5 81 c 128,-1,10
 68 191 68 191 68 381 c 0,11,12
 68 510 68 510 99 638.5 c 128,-1,13
 130 767 130 767 186 874 c 0,14,15
 256 1004 256 1004 360 1076.5 c 128,-1,16
 464 1149 464 1149 580 1149 c 0,17,18
 691 1149 691 1149 763.5 1086.5 c 128,-1,19
 836 1024 836 1024 854 911 c 1,0,-1
633 909 m 0,20,21
 522 909 522 909 442 767.5 c 128,-1,22
 362 626 362 626 362 424 c 0,23,24
 362 324 362 324 404 267.5 c 128,-1,25
 446 211 446 211 520 211 c 0,26,27
 634 211 634 211 716.5 349.5 c 128,-1,28
 799 488 799 488 799 686 c 0,29,30
 799 790 799 790 754 849.5 c 128,-1,31
 709 909 709 909 633 909 c 0,20,21
EndSplineSet
EndChar
StartChar: r
Encoding: 114 114 114
Width: 1233
Flags: W
Fore
1174 815 m 1,0,1
 1126 858 1126 858 1067 878.5 c 128,-1,2
 1008 899 1008 899 934 899 c 0,3,4
 768 899 768 899 678.5 811 c 128,-1,5
 589 723 589 723 549 516 c 2,6,-1
 449 0 l 1,7,-1
 154 0 l 1,8,-1
 373 1120 l 1,9,-1
 666 1120 l 1,10,-1
 631 946 l 1,11,12
 693 1042 693 1042 792 1094.5 c 128,-1,13
 891 1147 891 1147 1010 1147 c 0,14,15
 1072 1147 1072 1147 1127.5 1132 c 128,-1,16
 1183 1117 1183 1117 1227 1090 c 1,17,-1
 1174 815 l 1,0,1
EndSplineSet
EndChar
StartChar: s
Encoding: 115 115 115
Width: 1233
Flags: W
Fore
1094 1085 m 1,0,-1
 1044 831 l 1,1,2
 969 884 969 884 882 911 c 128,-1,3
 795 938 795 938 702 938 c 0,4,5
 608 938 608 938 553 903 c 128,-1,6
 498 868 498 868 498 809 c 0,7,8
 498 764 498 764 534.5 736.5 c 128,-1,9
 571 709 571 709 700 672 c 2,10,-1
 774 651 l 2,11,12
 902 614 902 614 961 544 c 128,-1,13
 1020 474 1020 474 1020 360 c 0,14,15
 1020 178 1020 178 882.5 74.5 c 128,-1,16
 745 -29 745 -29 500 -29 c 0,17,18
 396 -29 396 -29 292.5 -11.5 c 128,-1,19
 189 6 189 6 90 41 c 1,20,-1
 141 297 l 1,21,22
 227 241 227 241 322 211.5 c 128,-1,23
 417 182 417 182 510 182 c 0,24,25
 620 182 620 182 681.5 219.5 c 128,-1,26
 743 257 743 257 743 324 c 0,27,28
 743 370 743 370 712.5 396 c 128,-1,29
 682 422 682 422 549 461 c 1,30,-1
 461 485 l 1,31,32
 339 521 339 521 282 590.5 c 128,-1,33
 225 660 225 660 225 772 c 0,34,35
 225 940 225 940 361 1043.5 c 128,-1,36
 497 1147 497 1147 723 1147 c 0,37,38
 816 1147 816 1147 909 1131.5 c 128,-1,39
 1002 1116 1002 1116 1094 1085 c 1,0,-1
EndSplineSet
EndChar
StartChar: t
Encoding: 116 116 116
Width: 1233
Flags: W
Fore
848 1438 m 1,0,-1
 786 1120 l 1,1,-1
 1169 1120 l 1,2,-1
 1126 895 l 1,3,-1
 743 895 l 1,4,-1
 639 365 l 2,5,6
 635 345 635 345 633 330 c 128,-1,7
 631 315 631 315 631 307 c 0,8,9
 631 262 631 262 661 243.5 c 128,-1,10
 691 225 691 225 770 225 c 2,11,-1
 995 225 l 1,12,-1
 952 0 l 1,13,-1
 707 0 l 2,14,15
 503 0 503 0 417.5 55.5 c 128,-1,16
 332 111 332 111 332 240 c 0,17,18
 332 261 332 261 336.5 295 c 128,-1,19
 341 329 341 329 350 379 c 1,20,-1
 451 895 l 1,21,-1
 164 895 l 1,22,-1
 207 1120 l 1,23,-1
 494 1120 l 1,24,-1
 555 1438 l 1,25,-1
 848 1438 l 1,0,-1
EndSplineSet
EndChar
StartChar: u
Encoding: 117 117 117
Width: 1233
Flags: W
Fore
123 391 m 1,0,-1
 266 1120 l 1,1,-1
 557 1120 l 1,2,-1
 426 436 l 2,3,4
 421 409 421 409 418.5 383 c 128,-1,5
 416 357 416 357 416 332 c 0,6,7
 416 274 416 274 445 242.5 c 128,-1,8
 474 211 474 211 528 211 c 0,9,10
 611 211 611 211 667.5 281 c 128,-1,11
 724 351 724 351 752 489 c 1,12,-1
 874 1120 l 1,13,-1
 1165 1120 l 1,14,-1
 948 0 l 1,15,-1
 655 0 l 1,16,-1
 688 166 l 1,17,18
 644 76 644 76 559 23.5 c 128,-1,19
 474 -29 474 -29 373 -29 c 0,20,21
 244 -29 244 -29 175 41.5 c 128,-1,22
 106 112 106 112 106 244 c 0,23,24
 106 272 106 272 110 308 c 128,-1,25
 114 344 114 344 123 391 c 1,0,-1
EndSplineSet
EndChar
StartChar: v
Encoding: 118 118 118
Width: 1233
Flags: W
Fore
1231 1120 m 1,0,-1
 680 0 l 1,1,-1
 311 0 l 1,2,-1
 172 1120 l 1,3,-1
 455 1120 l 1,4,-1
 535 242 l 1,5,-1
 924 1120 l 1,6,-1
 1231 1120 l 1,0,-1
EndSplineSet
EndChar
StartChar: w
Encoding: 119 119 119
Width: 1233
Flags: W
Fore
96 1120 m 1,0,-1
 336 1120 l 1,1,-1
 303 262 l 1,2,-1
 530 827 l 1,3,-1
 760 827 l 1,4,-1
 782 262 l 1,5,-1
 1073 1120 l 1,6,-1
 1325 1120 l 1,7,-1
 907 0 l 1,8,-1
 627 0 l 1,9,-1
 608 590 l 1,10,-1
 369 0 l 1,11,-1
 90 0 l 1,12,-1
 96 1120 l 1,0,-1
EndSplineSet
EndChar
StartChar: x
Encoding: 120 120 120
Width: 1233
Flags: W
Fore
1227 1120 m 1,0,-1
 750 567 l 1,1,-1
 1028 0 l 1,2,-1
 729 0 l 1,3,-1
 559 356 l 1,4,-1
 256 0 l 1,5,-1
 -76 0 l 1,6,-1
 436 594 l 1,7,-1
 178 1120 l 1,8,-1
 479 1120 l 1,9,-1
 627 803 l 1,10,-1
 895 1120 l 1,11,-1
 1227 1120 l 1,0,-1
EndSplineSet
EndChar
StartChar: y
Encoding: 121 121 121
Width: 1233
Flags: W
Fore
551 -121 m 2,0,1
 439 -319 439 -319 357.5 -371.5 c 128,-1,2
 276 -424 276 -424 150 -424 c 2,3,-1
 -90 -424 l 1,4,-1
 -45 -201 l 1,5,-1
 72 -201 l 2,6,7
 159 -201 159 -201 209 -171 c 128,-1,8
 259 -141 259 -141 319 -29 c 2,9,-1
 358 45 l 1,10,-1
 141 1120 l 1,11,-1
 438 1120 l 1,12,-1
 565 420 l 1,13,-1
 948 1120 l 1,14,-1
 1257 1120 l 1,15,-1
 551 -121 l 2,0,1
EndSplineSet
EndChar
StartChar: z
Encoding: 122 122 122
Width: 1233
Flags: W
Fore
293 1120 m 1,0,-1
 1188 1120 l 1,1,-1
 1143 891 l 1,2,-1
 436 219 l 1,3,-1
 1012 219 l 1,4,-1
 969 0 l 1,5,-1
 49 0 l 1,6,-1
 94 229 l 1,7,-1
 801 901 l 1,8,-1
 250 901 l 1,9,-1
 293 1120 l 1,0,-1
EndSplineSet
EndChar
StartChar: braceleft
Encoding: 123 123 123
Width: 1233
Flags: W
Fore
879 -143 m 1,0,-1
 842 -334 l 1,1,-1
 694 -334 l 2,2,3
 498 -334 498 -334 414 -279.5 c 128,-1,4
 330 -225 330 -225 330 -100 c 0,5,6
 330 -77 330 -77 333.5 -49 c 128,-1,7
 337 -21 337 -21 348 35 c 2,8,-1
 391 250 l 1,9,10
 400 298 400 298 404 328.5 c 128,-1,11
 408 359 408 359 408 379 c 0,12,13
 408 455 408 455 360 485.5 c 128,-1,14
 312 516 312 516 193 516 c 2,15,-1
 131 516 l 1,16,-1
 168 707 l 1,17,-1
 229 707 l 2,18,19
 372 707 372 707 436 762 c 128,-1,20
 500 817 500 817 530 973 c 2,21,-1
 571 1188 l 2,22,23
 614 1412 614 1412 707.5 1484 c 128,-1,24
 801 1556 801 1556 1061 1556 c 2,25,-1
 1210 1556 l 1,26,-1
 1174 1366 l 1,27,-1
 1051 1366 l 2,28,29
 947 1366 947 1366 902.5 1323 c 128,-1,30
 858 1280 858 1280 831 1139 c 1,31,-1
 793 930 l 1,32,33
 761 763 761 763 698.5 696 c 128,-1,34
 636 629 636 629 506 612 c 1,35,36
 601 591 601 591 642.5 547.5 c 128,-1,37
 684 504 684 504 684 428 c 0,38,39
 684 399 684 399 680 364.5 c 128,-1,40
 676 330 676 330 668 291 c 2,41,-1
 627 86 l 2,42,43
 618 40 618 40 614 12 c 128,-1,44
 610 -16 610 -16 610 -33 c 0,45,46
 610 -92 610 -92 644 -117.5 c 128,-1,47
 678 -143 678 -143 758 -143 c 2,48,-1
 879 -143 l 1,0,-1
EndSplineSet
EndChar
StartChar: bar
Encoding: 124 124 124
Width: 1233
Flags: W
Fore
729 1565 m 1,0,-1
 729 -483 l 1,1,-1
 502 -483 l 1,2,-1
 502 1565 l 1,3,-1
 729 1565 l 1,0,-1
EndSplineSet
EndChar
StartChar: braceright
Encoding: 125 125 125
Width: 1233
Flags: W
Fore
6 -143 m 1,0,-1
 129 -143 l 2,1,2
 232 -143 232 -143 276 -100.5 c 128,-1,3
 320 -58 320 -58 348 86 c 1,4,-1
 387 291 l 1,5,6
 419 455 419 455 482 524 c 128,-1,7
 545 593 545 593 674 612 c 1,8,9
 580 628 580 628 538 670 c 128,-1,10
 496 712 496 712 496 791 c 0,11,12
 496 817 496 817 500 852.5 c 128,-1,13
 504 888 504 888 512 930 c 1,14,-1
 553 1139 l 1,15,16
 562 1187 562 1187 565.5 1214 c 128,-1,17
 569 1241 569 1241 569 1257 c 0,18,19
 569 1317 569 1317 536 1341.5 c 128,-1,20
 503 1366 503 1366 422 1366 c 2,21,-1
 301 1366 l 1,22,-1
 338 1556 l 1,23,-1
 485 1556 l 2,24,25
 690 1556 690 1556 772 1508 c 128,-1,26
 854 1460 854 1460 854 1346 c 0,27,28
 854 1311 854 1311 834 1202 c 1,29,-1
 831 1187 l 1,30,-1
 790 972 l 2,31,32
 784 940 784 940 780 911 c 128,-1,33
 776 882 776 882 776 862 c 0,34,35
 776 777 776 777 823.5 742 c 128,-1,36
 871 707 871 707 987 707 c 2,37,-1
 1049 707 l 1,38,-1
 1012 516 l 1,39,-1
 950 516 l 2,40,41
 809 516 809 516 743.5 458 c 128,-1,42
 678 400 678 400 649 250 c 1,43,-1
 608 35 l 1,44,45
 565 -187 565 -187 466 -260.5 c 128,-1,46
 367 -334 367 -334 119 -334 c 2,47,-1
 -31 -334 l 1,48,-1
 6 -143 l 1,0,-1
EndSplineSet
EndChar
StartChar: asciitilde
Encoding: 126 126 126
Width: 1233
Flags: W
Fore
1145 811 m 1,0,-1
 1145 578 l 1,1,2
 1070 518 1070 518 998.5 490.5 c 128,-1,3
 927 463 927 463 848 463 c 0,4,5
 758 463 758 463 645 514 c 0,6,7
 623 524 623 524 612 528 c 0,8,9
 535 562 535 562 483.5 574 c 128,-1,10
 432 586 432 586 381 586 c 0,11,12
 303 586 303 586 232.5 557 c 128,-1,13
 162 528 162 528 88 465 c 1,14,-1
 88 694 l 1,15,16
 166 755 166 755 239 782 c 128,-1,17
 312 809 312 809 395 809 c 0,18,19
 448 809 448 809 498 798 c 128,-1,20
 548 787 548 787 622 756 c 0,21,22
 633 751 633 751 655 741 c 0,23,24
 771 686 771 686 864 686 c 0,25,26
 934 686 934 686 1003 716.5 c 128,-1,27
 1072 747 1072 747 1145 811 c 1,0,-1
EndSplineSet
EndChar
StartChar: exclamdown
Encoding: 161 161 161
Width: 1233
Flags: W
Fore
840 1210 m 1,0,-1
 573 1210 l 1,1,-1
 629 1493 l 1,2,-1
 895 1493 l 1,3,-1
 840 1210 l 1,0,-1
604 0 m 1,4,-1
 338 0 l 1,5,-1
 465 655 l 1,6,-1
 567 1012 l 1,7,-1
 766 1012 l 1,8,-1
 731 655 l 1,9,-1
 604 0 l 1,4,-1
EndSplineSet
EndChar
StartChar: cent
Encoding: 162 162 162
Width: 1233
Flags: W
Fore
1102 1077 m 1,0,-1
 1049 813 l 1,1,2
 1004 853 1004 853 949 876.5 c 128,-1,3
 894 900 894 900 830 907 c 1,4,-1
 695 215 l 1,5,6
 759 220 759 220 823.5 243 c 128,-1,7
 888 266 888 266 952 307 c 1,8,-1
 901 43 l 1,9,10
 839 12 839 12 775.5 -5 c 128,-1,11
 712 -22 712 -22 647 -25 c 1,12,-1
 592 -313 l 1,13,-1
 451 -313 l 1,14,-1
 506 -25 l 1,15,16
 312 -3 312 -3 208 115.5 c 128,-1,17
 104 234 104 234 104 434 c 0,18,19
 104 589 104 589 158.5 727 c 128,-1,20
 213 865 213 865 315 971 c 0,21,22
 395 1054 395 1054 502.5 1098.5 c 128,-1,23
 610 1143 610 1143 733 1145 c 1,24,-1
 788 1432 l 1,25,-1
 930 1432 l 1,26,-1
 875 1145 l 1,27,28
 928 1142 928 1142 985 1125 c 128,-1,29
 1042 1108 1042 1108 1102 1077 c 1,0,-1
552 215 m 1,30,-1
 688 907 l 1,31,32
 552 892 552 892 458.5 761.5 c 128,-1,33
 365 631 365 631 365 457 c 0,34,35
 365 351 365 351 417 284.5 c 128,-1,36
 469 218 469 218 552 215 c 1,30,-1
EndSplineSet
EndChar
StartChar: sterling
Encoding: 163 163 163
Width: 1233
Flags: W
Fore
1245 1456 m 1,0,-1
 1192 1190 l 1,1,2
 1132 1231 1132 1231 1073 1251.5 c 128,-1,3
 1014 1272 1014 1272 952 1272 c 0,4,5
 847 1272 847 1272 783.5 1205 c 128,-1,6
 720 1138 720 1138 692 995 c 1,7,-1
 659 819 l 1,8,-1
 995 819 l 1,9,-1
 952 594 l 1,10,-1
 614 594 l 1,11,-1
 551 260 l 1,12,-1
 1032 260 l 1,13,-1
 981 0 l 1,14,-1
 -23 0 l 1,15,-1
 29 260 l 1,16,-1
 264 260 l 1,17,-1
 328 594 l 1,18,-1
 129 594 l 1,19,-1
 174 819 l 1,20,-1
 373 819 l 1,21,-1
 410 1016 l 1,22,23
 461 1284 461 1284 589 1402 c 128,-1,24
 717 1520 717 1520 956 1520 c 0,25,26
 1030 1520 1030 1520 1102 1504 c 128,-1,27
 1174 1488 1174 1488 1245 1456 c 1,0,-1
EndSplineSet
EndChar
StartChar: currency
Encoding: 164 164 164
Width: 1233
Flags: W
Fore
827 643 m 0,0,1
 827 716 827 716 777 765.5 c 128,-1,2
 727 815 727 815 653 815 c 0,3,4
 580 815 580 815 529.5 765.5 c 128,-1,5
 479 716 479 716 479 643 c 0,6,7
 479 569 479 569 529.5 518 c 128,-1,8
 580 467 580 467 653 467 c 0,9,10
 727 467 727 467 777 518 c 128,-1,11
 827 569 827 569 827 643 c 0,0,1
819 938 m 1,12,-1
 991 1108 l 1,13,-1
 1118 979 l 1,14,-1
 948 809 l 1,15,16
 971 768 971 768 982 726.5 c 128,-1,17
 993 685 993 685 993 641 c 0,18,19
 993 594 993 594 981.5 553.5 c 128,-1,20
 970 513 970 513 946 477 c 1,21,-1
 1118 307 l 1,22,-1
 987 176 l 1,23,-1
 817 348 l 1,24,25
 781 324 781 324 741 312.5 c 128,-1,26
 701 301 701 301 653 301 c 0,27,28
 614 301 614 301 572 311.5 c 128,-1,29
 530 322 530 322 485 344 c 1,30,-1
 315 176 l 1,31,-1
 186 305 l 1,32,-1
 356 475 l 1,33,34
 334 517 334 517 322.5 558.5 c 128,-1,35
 311 600 311 600 311 641 c 0,36,37
 311 688 311 688 322.5 728.5 c 128,-1,38
 334 769 334 769 358 807 c 1,39,-1
 186 977 l 1,40,-1
 317 1108 l 1,41,-1
 483 936 l 1,42,43
 524 960 524 960 565.5 971.5 c 128,-1,44
 607 983 607 983 653 983 c 0,45,46
 692 983 692 983 732.5 972 c 128,-1,47
 773 961 773 961 819 938 c 1,12,-1
EndSplineSet
EndChar
StartChar: yen
Encoding: 165 165 165
Width: 1233
Flags: W
Fore
127 1493 m 1,0,-1
 444 1493 l 1,1,-1
 618 893 l 1,2,-1
 1026 1493 l 1,3,-1
 1343 1493 l 1,4,-1
 969 965 l 1,5,-1
 1192 965 l 1,6,-1
 1155 778 l 1,7,-1
 834 778 l 1,8,-1
 719 627 l 1,9,-1
 1126 627 l 1,10,-1
 1090 438 l 1,11,-1
 678 438 l 1,12,-1
 592 0 l 1,13,-1
 299 0 l 1,14,-1
 383 438 l 1,15,-1
 -29 438 l 1,16,-1
 8 627 l 1,17,-1
 416 627 l 1,18,-1
 358 778 l 1,19,-1
 37 778 l 1,20,-1
 74 965 l 1,21,-1
 297 965 l 1,22,-1
 127 1493 l 1,0,-1
EndSplineSet
EndChar
StartChar: brokenbar
Encoding: 166 166 166
Width: 1233
Flags: W
Fore
729 408 m 1,0,-1
 729 -350 l 1,1,-1
 502 -350 l 1,2,-1
 502 408 l 1,3,-1
 729 408 l 1,0,-1
729 1432 m 1,4,-1
 729 674 l 1,5,-1
 502 674 l 1,6,-1
 502 1432 l 1,7,-1
 729 1432 l 1,4,-1
EndSplineSet
EndChar
StartChar: section
Encoding: 167 167 167
Width: 1233
Flags: W
Fore
649 795 m 2,0,1
 648 795 648 795 608 822.5 c 128,-1,2
 568 850 568 850 530 877 c 1,3,4
 472 833 472 833 441 789 c 128,-1,5
 410 745 410 745 410 707 c 0,6,7
 410 668 410 668 427.5 639 c 128,-1,8
 445 610 445 610 483 584 c 2,9,-1
 561 530 l 2,10,11
 583 515 583 515 612 496 c 128,-1,12
 641 477 641 477 682 451 c 1,13,14
 739 490 739 490 770 534 c 128,-1,15
 801 578 801 578 801 618 c 0,16,17
 801 653 801 653 782 685 c 128,-1,18
 763 717 763 717 729 741 c 2,19,-1
 649 795 l 2,0,1
1059 1460 m 1,20,-1
 1014 1231 l 1,21,22
 946 1265 946 1265 880.5 1281.5 c 128,-1,23
 815 1298 815 1298 752 1298 c 0,24,25
 667 1298 667 1298 620 1264 c 128,-1,26
 573 1230 573 1230 573 1167 c 0,27,28
 573 1126 573 1126 603.5 1090 c 128,-1,29
 634 1054 634 1054 743 985 c 2,30,-1
 848 918 l 2,31,32
 947 853 947 853 989.5 792 c 128,-1,33
 1032 731 1032 731 1032 655 c 0,34,35
 1032 571 1032 571 976.5 496 c 128,-1,36
 921 421 921 421 807 354 c 1,37,38
 852 311 852 311 873.5 260.5 c 128,-1,39
 895 210 895 210 895 147 c 0,40,41
 895 -5 895 -5 775.5 -100 c 128,-1,42
 656 -195 656 -195 461 -195 c 0,43,44
 379 -195 379 -195 290.5 -180 c 128,-1,45
 202 -165 202 -165 104 -135 c 1,46,-1
 150 94 l 1,47,48
 224 61 224 61 303 44 c 128,-1,49
 382 27 382 27 457 27 c 0,50,51
 543 27 543 27 590 61 c 128,-1,52
 637 95 637 95 637 158 c 0,53,54
 637 227 637 227 485 328 c 2,55,-1
 467 340 l 1,56,-1
 367 408 l 1,57,58
 258 480 258 480 218 537.5 c 128,-1,59
 178 595 178 595 178 670 c 0,60,61
 178 763 178 763 239 840 c 128,-1,62
 300 917 300 917 414 967 c 1,63,64
 363 1008 363 1008 339 1057 c 128,-1,65
 315 1106 315 1106 315 1169 c 0,66,67
 315 1326 315 1326 432.5 1423 c 128,-1,68
 550 1520 550 1520 741 1520 c 0,69,70
 812 1520 812 1520 892 1505 c 128,-1,71
 972 1490 972 1490 1059 1460 c 1,20,-1
EndSplineSet
EndChar
StartChar: dieresis
Encoding: 168 168 168
Width: 1233
Flags: W
Fore
858 1585 m 1,0,-1
 1096 1585 l 1,1,-1
 1047 1339 l 1,2,-1
 811 1339 l 1,3,-1
 858 1585 l 1,0,-1
463 1585 m 1,4,-1
 700 1585 l 1,5,-1
 651 1339 l 1,6,-1
 416 1339 l 1,7,-1
 463 1585 l 1,4,-1
EndSplineSet
Ligature: 0 0 'liga' space uni0308
EndChar
StartChar: copyright
Encoding: 169 169 169
Width: 1233
Flags: W
Fore
848 1049 m 1,0,-1
 848 881 l 1,1,2
 796 912 796 912 750.5 926 c 128,-1,3
 705 940 705 940 657 940 c 0,4,5
 560 940 560 940 506.5 888 c 128,-1,6
 453 836 453 836 453 741 c 0,7,8
 453 646 453 646 506 594.5 c 128,-1,9
 559 543 559 543 657 543 c 0,10,11
 710 543 710 543 758 557.5 c 128,-1,12
 806 572 806 572 848 602 c 1,13,-1
 848 434 l 1,14,15
 793 417 793 417 740 408 c 128,-1,16
 687 399 687 399 637 399 c 0,17,18
 468 399 468 399 367 492.5 c 128,-1,19
 266 586 266 586 266 741 c 0,20,21
 266 897 266 897 367 990 c 128,-1,22
 468 1083 468 1083 637 1083 c 0,23,24
 692 1083 692 1083 744.5 1074.5 c 128,-1,25
 797 1066 797 1066 848 1049 c 1,0,-1
616 1358 m 0,26,27
 743 1358 743 1358 852 1313 c 128,-1,28
 961 1268 961 1268 1051 1178 c 0,29,30
 1141 1087 1141 1087 1187 977 c 128,-1,31
 1233 867 1233 867 1233 741 c 0,32,33
 1233 616 1233 616 1187.5 507 c 128,-1,34
 1142 398 1142 398 1051 307 c 0,35,36
 960 216 960 216 851 170.5 c 128,-1,37
 742 125 742 125 616 125 c 0,38,39
 491 125 491 125 382 170.5 c 128,-1,40
 273 216 273 216 182 307 c 0,41,42
 91 398 91 398 45.5 507 c 128,-1,43
 0 616 0 616 0 741 c 0,44,45
 0 867 0 867 46 977 c 128,-1,46
 92 1087 92 1087 182 1178 c 0,47,48
 272 1268 272 1268 381 1313 c 128,-1,49
 490 1358 490 1358 616 1358 c 0,26,27
616 1229 m 0,50,51
 517 1229 517 1229 432 1193.5 c 128,-1,52
 347 1158 347 1158 274 1085 c 0,53,54
 203 1014 203 1014 167 928 c 128,-1,55
 131 842 131 842 131 741 c 0,56,57
 131 643 131 643 167 558 c 128,-1,58
 203 473 203 473 274 401 c 0,59,60
 345 329 345 329 431 292.5 c 128,-1,61
 517 256 517 256 616 256 c 0,62,63
 716 256 716 256 802 292.5 c 128,-1,64
 888 329 888 329 958 401 c 1,65,66
 1030 473 1030 473 1066 558 c 128,-1,67
 1102 643 1102 643 1102 741 c 0,68,69
 1102 842 1102 842 1066 928 c 128,-1,70
 1030 1014 1030 1014 958 1085 c 1,71,72
 886 1158 886 1158 801.5 1193.5 c 128,-1,73
 717 1229 717 1229 616 1229 c 0,50,51
EndSplineSet
EndChar
StartChar: ordfeminine
Encoding: 170 170 170
Width: 1233
Flags: W
Fore
1032 1165 m 2,0,-1
 944 717 l 1,1,-1
 737 717 l 1,2,-1
 756 805 l 1,3,4
 710 751 710 751 648.5 724.5 c 128,-1,5
 587 698 587 698 508 698 c 0,6,7
 401 698 401 698 337.5 759 c 128,-1,8
 274 820 274 820 274 924 c 0,9,10
 274 1073 274 1073 385.5 1153 c 128,-1,11
 497 1233 497 1233 705 1233 c 2,12,-1
 840 1233 l 1,13,-1
 846 1268 l 1,14,15
 847 1271 847 1271 847.5 1275 c 128,-1,16
 848 1279 848 1279 848 1286 c 0,17,18
 848 1326 848 1326 811.5 1347 c 128,-1,19
 775 1368 775 1368 705 1368 c 0,20,21
 648 1368 648 1368 574.5 1348 c 128,-1,22
 501 1328 501 1328 418 1290 c 1,23,-1
 451 1464 l 1,24,25
 531 1492 531 1492 602.5 1506 c 128,-1,26
 674 1520 674 1520 739 1520 c 0,27,28
 887 1520 887 1520 969 1467.5 c 128,-1,29
 1051 1415 1051 1415 1051 1321 c 0,30,31
 1051 1289 1051 1289 1047 1254.5 c 128,-1,32
 1043 1220 1043 1220 1032 1165 c 2,0,-1
731 1087 m 2,33,34
 609 1087 609 1087 550.5 1051 c 128,-1,35
 492 1015 492 1015 492 940 c 0,36,37
 492 896 492 896 521 867 c 128,-1,38
 550 838 550 838 594 838 c 0,39,40
 679 838 679 838 735 902.5 c 128,-1,41
 791 967 791 967 811 1087 c 1,42,-1
 731 1087 l 2,33,34
246 598 m 1,43,-1
 934 598 l 1,44,-1
 899 428 l 1,45,-1
 211 428 l 1,46,-1
 246 598 l 1,43,-1
EndSplineSet
EndChar
StartChar: guillemotleft
Encoding: 171 171 171
Width: 1233
Flags: W
Fore
1102 1059 m 1,0,-1
 1057 821 l 1,1,-1
 737 600 l 1,2,-1
 971 379 l 1,3,-1
 926 141 l 1,4,-1
 532 535 l 1,5,-1
 557 666 l 1,6,-1
 1102 1059 l 1,0,-1
649 1059 m 1,7,-1
 602 821 l 1,8,-1
 283 600 l 1,9,-1
 516 379 l 1,10,-1
 471 141 l 1,11,-1
 78 535 l 1,12,-1
 102 666 l 1,13,-1
 649 1059 l 1,7,-1
EndSplineSet
EndChar
StartChar: logicalnot
Encoding: 172 172 172
Width: 1233
Flags: W
Fore
88 899 m 1,0,-1
 1145 899 l 1,1,-1
 1145 362 l 1,2,-1
 907 362 l 1,3,-1
 907 662 l 1,4,-1
 88 662 l 1,5,-1
 88 899 l 1,0,-1
EndSplineSet
EndChar
StartChar: sfthyphen
Encoding: 173 173 173
Width: 1233
Flags: W
Fore
299 735 m 1,0,-1
 928 735 l 1,1,-1
 872 444 l 1,2,-1
 244 444 l 1,3,-1
 299 735 l 1,0,-1
EndSplineSet
EndChar
StartChar: registered
Encoding: 174 174 174
Width: 1233
Flags: W
Fore
616 1358 m 0,0,1
 743 1358 743 1358 852 1313 c 128,-1,2
 961 1268 961 1268 1051 1178 c 0,3,4
 1141 1087 1141 1087 1187 977 c 128,-1,5
 1233 867 1233 867 1233 741 c 0,6,7
 1233 616 1233 616 1187.5 507 c 128,-1,8
 1142 398 1142 398 1051 307 c 0,9,10
 960 216 960 216 851 170.5 c 128,-1,11
 742 125 742 125 616 125 c 0,12,13
 491 125 491 125 382 170.5 c 128,-1,14
 273 216 273 216 182 307 c 0,15,16
 91 398 91 398 45.5 507 c 128,-1,17
 0 616 0 616 0 741 c 0,18,19
 0 867 0 867 46 977 c 128,-1,20
 92 1087 92 1087 182 1178 c 0,21,22
 272 1268 272 1268 381 1313 c 128,-1,23
 490 1358 490 1358 616 1358 c 0,0,1
588 944 m 2,24,-1
 524 944 l 1,25,-1
 524 780 l 1,26,-1
 588 780 l 2,27,28
 645 780 645 780 673.5 800 c 128,-1,29
 702 820 702 820 702 860 c 0,30,31
 702 903 702 903 674 923.5 c 128,-1,32
 646 944 646 944 588 944 c 2,24,-1
606 1055 m 2,33,34
 739 1055 739 1055 803.5 1011 c 128,-1,35
 868 967 868 967 868 877 c 0,36,37
 868 812 868 812 829 769.5 c 128,-1,38
 790 727 790 727 719 715 c 1,39,40
 757 701 757 701 784.5 673 c 128,-1,41
 812 645 812 645 836 596 c 1,42,-1
 915 430 l 1,43,-1
 743 430 l 1,44,-1
 680 563 l 2,45,46
 653 621 653 621 624.5 644.5 c 128,-1,47
 596 668 596 668 555 670 c 2,48,-1
 524 670 l 1,49,-1
 524 430 l 1,50,-1
 360 430 l 1,51,-1
 360 1055 l 1,52,-1
 606 1055 l 2,33,34
616 1229 m 0,53,54
 517 1229 517 1229 432 1193.5 c 128,-1,55
 347 1158 347 1158 274 1085 c 0,56,57
 203 1014 203 1014 167 928 c 128,-1,58
 131 842 131 842 131 741 c 0,59,60
 131 643 131 643 167 558 c 128,-1,61
 203 473 203 473 274 399 c 1,62,63
 346 328 346 328 431.5 292 c 128,-1,64
 517 256 517 256 616 256 c 0,65,66
 715 256 715 256 801 292 c 128,-1,67
 887 328 887 328 958 399 c 0,68,69
 1030 473 1030 473 1066 558 c 128,-1,70
 1102 643 1102 643 1102 741 c 0,71,72
 1102 842 1102 842 1066 928 c 128,-1,73
 1030 1014 1030 1014 958 1085 c 1,74,75
 886 1158 886 1158 801.5 1193.5 c 128,-1,76
 717 1229 717 1229 616 1229 c 0,53,54
EndSplineSet
EndChar
StartChar: macron
Encoding: 175 175 175
Width: 1233
Flags: W
Fore
459 1556 m 1,0,-1
 1090 1556 l 1,1,-1
 1053 1368 l 1,2,-1
 422 1368 l 1,3,-1
 459 1556 l 1,0,-1
EndSplineSet
Ligature: 0 0 'liga' space uni0304
EndChar
StartChar: degree
Encoding: 176 176 176
Width: 1233
Flags: W
Fore
616 1520 m 0,0,1
 683 1520 683 1520 744 1494.5 c 128,-1,2
 805 1469 805 1469 852 1421 c 0,3,4
 899 1374 899 1374 923.5 1314 c 128,-1,5
 948 1254 948 1254 948 1186 c 0,6,7
 948 1120 948 1120 923 1059 c 128,-1,8
 898 998 898 998 852 952 c 0,9,10
 804 905 804 905 743 879.5 c 128,-1,11
 682 854 682 854 614 854 c 0,12,13
 473 854 473 854 378 949 c 128,-1,14
 283 1044 283 1044 283 1186 c 0,15,16
 283 1327 283 1327 379 1423.5 c 128,-1,17
 475 1520 475 1520 616 1520 c 0,0,1
616 1358 m 0,18,19
 544 1358 544 1358 494 1308 c 128,-1,20
 444 1258 444 1258 444 1186 c 0,21,22
 444 1114 444 1114 493 1065 c 128,-1,23
 542 1016 542 1016 614 1016 c 0,24,25
 686 1016 686 1016 736 1065.5 c 128,-1,26
 786 1115 786 1115 786 1186 c 0,27,28
 786 1258 786 1258 736.5 1308 c 128,-1,29
 687 1358 687 1358 616 1358 c 0,18,19
EndSplineSet
EndChar
StartChar: plusminus
Encoding: 177 177 177
Width: 1233
Flags: W
Fore
735 1284 m 1,0,-1
 735 930 l 1,1,-1
 1145 930 l 1,2,-1
 1145 694 l 1,3,-1
 735 694 l 1,4,-1
 735 340 l 1,5,-1
 498 340 l 1,6,-1
 498 694 l 1,7,-1
 88 694 l 1,8,-1
 88 930 l 1,9,-1
 498 930 l 1,10,-1
 498 1284 l 1,11,-1
 735 1284 l 1,0,-1
88 238 m 1,12,-1
 1145 238 l 1,13,-1
 1145 0 l 1,14,-1
 88 0 l 1,15,-1
 88 238 l 1,12,-1
EndSplineSet
EndChar
StartChar: twosuperior
Encoding: 178 178 178
Width: 1233
Flags: W
Fore
514 813 m 1,0,-1
 952 813 l 1,1,-1
 924 668 l 1,2,-1
 260 668 l 1,3,-1
 289 809 l 1,4,5
 340 846 340 846 431 911 c 0,6,7
 831 1197 831 1197 831 1288 c 0,8,9
 831 1333 831 1333 795 1357.5 c 128,-1,10
 759 1382 759 1382 692 1382 c 0,11,12
 629 1382 629 1382 554.5 1364 c 128,-1,13
 480 1346 480 1346 403 1311 c 1,14,-1
 434 1473 l 1,15,16
 510 1496 510 1496 583 1508 c 128,-1,17
 656 1520 656 1520 729 1520 c 0,18,19
 873 1520 873 1520 950.5 1466 c 128,-1,20
 1028 1412 1028 1412 1028 1313 c 0,21,22
 1028 1173 1028 1173 618 886 c 0,23,24
 550 839 550 839 514 813 c 1,0,-1
EndSplineSet
EndChar
StartChar: threesuperior
Encoding: 179 179 179
Width: 1233
Flags: W
Fore
639 1042 m 2,0,-1
 528 1042 l 1,1,-1
 557 1188 l 1,2,-1
 666 1188 l 2,3,4
 754 1188 754 1188 801 1215.5 c 128,-1,5
 848 1243 848 1243 848 1294 c 0,6,7
 848 1334 848 1334 808 1357 c 128,-1,8
 768 1380 768 1380 698 1380 c 0,9,10
 650 1380 650 1380 581 1368 c 128,-1,11
 512 1356 512 1356 432 1333 c 1,12,-1
 461 1485 l 1,13,14
 534 1502 534 1502 604.5 1511 c 128,-1,15
 675 1520 675 1520 741 1520 c 0,16,17
 882 1520 882 1520 961 1469 c 128,-1,18
 1040 1418 1040 1418 1040 1329 c 0,19,20
 1040 1239 1040 1239 979.5 1183.5 c 128,-1,21
 919 1128 919 1128 807 1116 c 1,22,23
 890 1107 890 1107 939.5 1057.5 c 128,-1,24
 989 1008 989 1008 989 934 c 0,25,26
 989 800 989 800 879.5 726.5 c 128,-1,27
 770 653 770 653 567 653 c 0,28,29
 492 653 492 653 418.5 663.5 c 128,-1,30
 345 674 345 674 276 694 c 1,31,-1
 307 848 l 1,32,33
 369 821 369 821 442 807 c 128,-1,34
 515 793 515 793 594 793 c 0,35,36
 690 793 690 793 745.5 833.5 c 128,-1,37
 801 874 801 874 801 944 c 0,38,39
 801 989 801 989 757.5 1015.5 c 128,-1,40
 714 1042 714 1042 639 1042 c 2,0,-1
EndSplineSet
EndChar
StartChar: acute
Encoding: 180 180 180
Width: 1233
Flags: W
Fore
887 1638 m 1,0,-1
 1208 1638 l 1,1,-1
 766 1262 l 1,2,-1
 569 1262 l 1,3,-1
 887 1638 l 1,0,-1
EndSplineSet
LCarets: 0 65535 '    ' 1 0 
Ligature: 0 0 'liga' space acutecomb
EndChar
StartChar: mu
Encoding: 181 181 181
Width: 1233
Flags: W
Fore
-55 -428 m 1,0,-1
 246 1120 l 1,1,-1
 535 1120 l 1,2,-1
 403 440 l 1,3,4
 397 412 397 412 394 388 c 128,-1,5
 391 364 391 364 391 346 c 0,6,7
 391 283 391 283 425 248 c 128,-1,8
 459 213 459 213 520 213 c 0,9,10
 602 213 602 213 653 269 c 128,-1,11
 704 325 704 325 727 440 c 1,12,-1
 858 1120 l 1,13,-1
 1147 1120 l 1,14,-1
 997 344 l 1,15,16
 992 309 992 309 989.5 292.5 c 128,-1,17
 987 276 987 276 987 268 c 0,18,19
 987 241 987 241 997.5 227 c 128,-1,20
 1008 213 1008 213 1028 213 c 0,21,22
 1040 213 1040 213 1054.5 219 c 128,-1,23
 1069 225 1069 225 1090 238 c 1,24,-1
 1047 16 l 1,25,26
 1001 -7 1001 -7 961 -18 c 128,-1,27
 921 -29 921 -29 885 -29 c 0,28,29
 813 -29 813 -29 775 8.5 c 128,-1,30
 737 46 737 46 725 129 c 1,31,32
 672 50 672 50 610.5 10.5 c 128,-1,33
 549 -29 549 -29 479 -29 c 0,34,35
 421 -29 421 -29 383 -5 c 128,-1,36
 345 19 345 19 330 66 c 1,37,-1
 233 -428 l 1,38,-1
 -55 -428 l 1,0,-1
EndSplineSet
EndChar
StartChar: paragraph
Encoding: 182 182 182
Width: 1233
Flags: W
Fore
672 1493 m 2,0,-1
 1190 1493 l 1,1,-1
 862 -197 l 1,2,-1
 672 -197 l 1,3,-1
 973 1346 l 1,4,-1
 782 1346 l 1,5,-1
 483 -197 l 1,6,-1
 293 -197 l 1,7,-1
 457 649 l 1,8,9
 286 667 286 667 194 753 c 128,-1,10
 102 839 102 839 102 981 c 0,11,12
 102 1198 102 1198 264.5 1345.5 c 128,-1,13
 427 1493 427 1493 672 1493 c 2,0,-1
EndSplineSet
EndChar
StartChar: periodcentered
Encoding: 183 183 183
Width: 1233
Flags: W
Fore
479 895 m 1,0,-1
 813 895 l 1,1,-1
 741 530 l 1,2,-1
 408 530 l 1,3,-1
 479 895 l 1,0,-1
EndSplineSet
EndChar
StartChar: cedilla
Encoding: 184 184 184
Width: 1233
Flags: W
Fore
563 0 m 1,0,1
 599 -48 599 -48 617 -94 c 128,-1,2
 635 -140 635 -140 635 -184 c 0,3,4
 635 -283 635 -283 558.5 -342 c 128,-1,5
 482 -401 482 -401 352 -401 c 0,6,7
 300 -401 300 -401 249 -394.5 c 128,-1,8
 198 -388 198 -388 150 -375 c 1,9,-1
 178 -219 l 1,10,11
 221 -236 221 -236 262 -245 c 128,-1,12
 303 -254 303 -254 338 -254 c 0,13,14
 406 -254 406 -254 442.5 -227 c 128,-1,15
 479 -200 479 -200 479 -150 c 0,16,17
 479 -124 479 -124 466 -89.5 c 128,-1,18
 453 -55 453 -55 422 0 c 1,19,-1
 563 0 l 1,0,1
EndSplineSet
Ligature: 0 0 'liga' space uni0327
EndChar
StartChar: onesuperior
Encoding: 185 185 185
Width: 1233
Flags: W
Fore
315 813 m 1,0,-1
 551 813 l 1,1,-1
 657 1356 l 1,2,-1
 428 1313 l 1,3,-1
 457 1462 l 1,4,-1
 686 1503 l 1,5,-1
 883 1503 l 1,6,-1
 748 813 l 1,7,-1
 975 813 l 1,8,-1
 946 668 l 1,9,-1
 289 668 l 1,10,-1
 315 813 l 1,0,-1
EndSplineSet
EndChar
StartChar: ordmasculine
Encoding: 186 186 186
Width: 1233
Flags: W
Fore
307 1016 m 0,0,1
 307 1240 307 1240 426.5 1380 c 128,-1,2
 546 1520 546 1520 739 1520 c 0,3,4
 894 1520 894 1520 980.5 1436 c 128,-1,5
 1067 1352 1067 1352 1067 1202 c 0,6,7
 1067 977 1067 977 948 837.5 c 128,-1,8
 829 698 829 698 637 698 c 0,9,10
 481 698 481 698 394 782 c 128,-1,11
 307 866 307 866 307 1016 c 0,0,1
856 1196 m 0,12,13
 856 1272 856 1272 822 1314 c 128,-1,14
 788 1356 788 1356 727 1356 c 0,15,16
 640 1356 640 1356 580 1260 c 128,-1,17
 520 1164 520 1164 520 1022 c 0,18,19
 520 947 520 947 554.5 904.5 c 128,-1,20
 589 862 589 862 649 862 c 0,21,22
 736 862 736 862 796 958 c 128,-1,23
 856 1054 856 1054 856 1196 c 0,12,13
254 598 m 1,24,-1
 942 598 l 1,25,-1
 909 428 l 1,26,-1
 221 428 l 1,27,-1
 254 598 l 1,24,-1
EndSplineSet
EndChar
StartChar: guillemotright
Encoding: 187 187 187
Width: 1233
Flags: W
Fore
260 1059 m 1,0,-1
 653 666 l 1,1,-1
 627 535 l 1,2,-1
 82 141 l 1,3,-1
 127 379 l 1,4,-1
 449 600 l 1,5,-1
 215 821 l 1,6,-1
 260 1059 l 1,0,-1
715 1059 m 1,7,-1
 1108 666 l 1,8,-1
 1081 535 l 1,9,-1
 537 141 l 1,10,-1
 582 379 l 1,11,-1
 903 600 l 1,12,-1
 670 821 l 1,13,-1
 715 1059 l 1,7,-1
EndSplineSet
EndChar
StartChar: questiondown
Encoding: 191 191 191
Width: 1233
Flags: W
Fore
594 1092 m 1,0,-1
 860 1092 l 1,1,-1
 831 938 l 1,2,3
 814 843 814 843 769.5 772 c 128,-1,4
 725 701 725 701 631 621 c 1,5,-1
 526 528 l 1,6,-1
 511 515 l 2,7,8
 371 393 371 393 371 328 c 0,9,10
 371 271 371 271 408 240 c 128,-1,11
 445 209 445 209 514 209 c 0,12,13
 603 209 603 209 705.5 245.5 c 128,-1,14
 808 282 808 282 924 354 c 1,15,-1
 872 86 l 1,16,17
 771 31 771 31 664 2 c 128,-1,18
 557 -27 557 -27 453 -27 c 0,19,20
 288 -27 288 -27 189 55.5 c 128,-1,21
 90 138 90 138 90 272 c 0,22,23
 90 367 90 367 139 450 c 128,-1,24
 188 533 188 533 305 631 c 1,25,-1
 410 717 l 1,26,-1
 418 724 l 2,27,28
 544 829 544 829 571 969 c 1,29,-1
 594 1092 l 1,0,-1
885 1210 m 1,30,-1
 618 1210 l 1,31,-1
 672 1493 l 1,32,-1
 940 1493 l 1,33,-1
 885 1210 l 1,30,-1
EndSplineSet
EndChar
StartChar: Aring
Encoding: 197 197 197
Width: 1233
Flags: W
Fore
623 1616 m 0,0,1
 623 1562 623 1562 661.5 1523.5 c 128,-1,2
 700 1485 700 1485 754 1485 c 0,3,4
 808 1485 808 1485 846.5 1523.5 c 128,-1,5
 885 1562 885 1562 885 1616 c 0,6,7
 885 1670 885 1670 846 1708.5 c 128,-1,8
 807 1747 807 1747 754 1747 c 0,9,10
 700 1747 700 1747 661.5 1708.5 c 128,-1,11
 623 1670 623 1670 623 1616 c 0,0,1
948 1409 m 1,12,-1
 1055 0 l 1,13,-1
 760 0 l 1,14,-1
 739 369 l 1,15,-1
 344 369 l 1,16,-1
 182 0 l 1,17,-1
 -113 0 l 1,18,-1
 547 1421 l 1,19,20
 511 1457 511 1457 490 1510 c 128,-1,21
 469 1563 469 1563 469 1616 c 0,22,23
 469 1733 469 1733 552.5 1817 c 128,-1,24
 636 1901 636 1901 754 1901 c 0,25,26
 870 1901 870 1901 954 1817 c 128,-1,27
 1038 1733 1038 1733 1038 1616 c 0,28,29
 1038 1557 1038 1557 1014.5 1503 c 128,-1,30
 991 1449 991 1449 948 1409 c 1,12,-1
709 1223 m 1,31,-1
 451 612 l 1,32,-1
 729 612 l 1,33,-1
 709 1223 l 1,31,-1
EndSplineSet
Ligature: 0 1 'liga' A uni030A
EndChar
StartChar: AE
Encoding: 198 198 198
Width: 1233
Flags: W
Fore
1311 1493 m 1,0,-1
 1260 1233 l 1,1,-1
 969 1233 l 1,2,-1
 909 922 l 1,3,-1
 1169 922 l 1,4,-1
 1118 662 l 1,5,-1
 858 662 l 1,6,-1
 780 260 l 1,7,-1
 1090 260 l 1,8,-1
 1038 0 l 1,9,-1
 475 0 l 1,10,-1
 547 362 l 1,11,-1
 264 362 l 1,12,-1
 109 0 l 1,13,-1
 -150 0 l 1,14,-1
 502 1493 l 1,15,-1
 1311 1493 l 1,0,-1
637 1233 m 1,16,-1
 365 598 l 1,17,-1
 592 598 l 1,18,-1
 717 1233 l 1,19,-1
 637 1233 l 1,16,-1
EndSplineSet
EndChar
StartChar: Eth
Encoding: 208 208 208
Width: 1233
Flags: W
Fore
283 1493 m 1,0,-1
 598 1493 l 2,1,2
 883 1493 883 1493 1024 1370 c 128,-1,3
 1165 1247 1165 1247 1165 999 c 0,4,5
 1165 912 1165 912 1151.5 813.5 c 128,-1,6
 1138 715 1138 715 1110 602 c 0,7,8
 1073 451 1073 451 1021 346 c 128,-1,9
 969 241 969 241 897 172 c 0,10,11
 803 80 803 80 672 40 c 128,-1,12
 541 0 541 0 322 0 c 2,13,-1
 -8 0 l 1,14,-1
 121 664 l 1,15,-1
 -16 664 l 1,16,-1
 31 901 l 1,17,-1
 166 901 l 1,18,-1
 283 1493 l 1,0,-1
524 1227 m 1,19,-1
 461 901 l 1,20,-1
 672 901 l 1,21,-1
 627 664 l 1,22,-1
 416 664 l 1,23,-1
 338 266 l 1,24,-1
 434 266 l 2,25,26
 546 266 546 266 623 310 c 128,-1,27
 700 354 700 354 743 442 c 0,28,29
 795 548 795 548 827.5 694.5 c 128,-1,30
 860 841 860 841 860 967 c 0,31,32
 860 1099 860 1099 797.5 1163 c 128,-1,33
 735 1227 735 1227 606 1227 c 2,34,-1
 524 1227 l 1,19,-1
EndSplineSet
EndChar
StartChar: multiply
Encoding: 215 215 215
Width: 1233
Flags: W
Fore
1112 971 m 1,0,-1
 782 643 l 1,1,-1
 1112 313 l 1,2,-1
 944 147 l 1,3,-1
 614 475 l 1,4,-1
 287 147 l 1,5,-1
 119 313 l 1,6,-1
 449 643 l 1,7,-1
 119 971 l 1,8,-1
 287 1139 l 1,9,-1
 614 811 l 1,10,-1
 944 1139 l 1,11,-1
 1112 971 l 1,0,-1
EndSplineSet
EndChar
StartChar: Oslash
Encoding: 216 216 216
Width: 1233
Flags: W
Fore
375 354 m 1,0,1
 393 294 393 294 431.5 263.5 c 128,-1,2
 470 233 470 233 526 233 c 0,3,4
 651 233 651 233 728.5 386 c 128,-1,5
 806 539 806 539 858 889 c 1,6,-1
 375 354 l 1,0,1
78 295 m 1,7,8
 70 329 70 329 65.5 366 c 128,-1,9
 61 403 61 403 61 442 c 0,10,11
 61 656 61 656 110 865 c 128,-1,12
 159 1074 159 1074 244 1227 c 0,13,14
 322 1369 322 1369 448 1444.5 c 128,-1,15
 574 1520 574 1520 731 1520 c 0,16,17
 836 1520 836 1520 919 1487 c 128,-1,18
 1002 1454 1002 1454 1063 1389 c 1,19,-1
 1217 1559 l 1,20,-1
 1356 1444 l 1,21,-1
 1151 1217 l 1,22,23
 1161 1161 1161 1161 1166 1112.5 c 128,-1,24
 1171 1064 1171 1064 1171 1020 c 0,25,26
 1171 958 1171 958 1164 887 c 128,-1,27
 1157 816 1157 816 1143 737 c 0,28,29
 1118 598 1118 598 1080 480 c 128,-1,30
 1042 362 1042 362 989 264 c 0,31,32
 911 123 911 123 785.5 47 c 128,-1,33
 660 -29 660 -29 504 -29 c 0,34,35
 390 -29 390 -29 303.5 8 c 128,-1,36
 217 45 217 45 160 117 c 1,37,-1
 0 -63 l 1,38,-1
 -141 51 l 1,39,-1
 78 295 l 1,7,8
852 1153 m 1,40,41
 834 1205 834 1205 796.5 1232.5 c 128,-1,42
 759 1260 759 1260 707 1260 c 0,43,44
 586 1260 586 1260 509.5 1113.5 c 128,-1,45
 433 967 433 967 379 629 c 1,46,-1
 852 1153 l 1,40,41
EndSplineSet
EndChar
StartChar: Thorn
Encoding: 222 222 222
Width: 1233
Flags: W
Fore
375 332 m 1,0,-1
 311 0 l 1,1,-1
 16 0 l 1,2,-1
 307 1493 l 1,3,-1
 602 1493 l 1,4,-1
 555 1266 l 1,5,-1
 682 1266 l 2,6,7
 918 1266 918 1266 1041.5 1174 c 128,-1,8
 1165 1082 1165 1082 1165 907 c 0,9,10
 1165 794 1165 794 1128.5 683 c 128,-1,11
 1092 572 1092 572 1034 506 c 1,12,13
 956 414 956 414 839.5 373 c 128,-1,14
 723 332 723 332 539 332 c 2,15,-1
 375 332 l 1,0,-1
510 1018 m 1,16,-1
 424 580 l 1,17,-1
 569 580 l 2,18,19
 715 580 715 580 786.5 647 c 128,-1,20
 858 714 858 714 858 850 c 0,21,22
 858 941 858 941 806.5 979.5 c 128,-1,23
 755 1018 755 1018 631 1018 c 2,24,-1
 510 1018 l 1,16,-1
EndSplineSet
EndChar
StartChar: germandbls
Encoding: 223 223 223
Width: 1233
Flags: W
Fore
1145 1059 m 1,0,1
 1004 1051 1004 1051 926 1001 c 128,-1,2
 848 951 848 951 848 868 c 0,3,4
 848 811 848 811 944 715 c 2,5,-1
 950 709 l 1,6,-1
 1026 633 l 2,7,8
 1085 574 1085 574 1114 511.5 c 128,-1,9
 1143 449 1143 449 1143 381 c 0,10,11
 1143 193 1143 193 1014.5 82 c 128,-1,12
 886 -29 886 -29 666 -29 c 0,13,14
 600 -29 600 -29 535 -16.5 c 128,-1,15
 470 -4 470 -4 406 20 c 1,16,-1
 455 270 l 1,17,18
 513 239 513 239 566.5 223 c 128,-1,19
 620 207 620 207 666 207 c 0,20,21
 756 207 756 207 808 246.5 c 128,-1,22
 860 286 860 286 860 354 c 0,23,24
 860 420 860 420 749 531 c 2,25,-1
 743 537 l 1,26,-1
 674 608 l 2,27,28
 630 653 630 653 609 704.5 c 128,-1,29
 588 756 588 756 588 815 c 0,30,31
 588 950 588 950 679.5 1043.5 c 128,-1,32
 771 1137 771 1137 940 1174 c 1,33,-1
 940 1190 l 2,34,35
 940 1254 940 1254 895 1289.5 c 128,-1,36
 850 1325 850 1325 768 1325 c 0,37,38
 675 1325 675 1325 618 1274 c 128,-1,39
 561 1223 561 1223 541 1122 c 1,40,-1
 322 0 l 1,41,-1
 29 0 l 1,42,-1
 248 1126 l 1,43,44
 289 1338 289 1338 420.5 1448.5 c 128,-1,45
 552 1559 552 1559 764 1559 c 0,46,47
 962 1559 962 1559 1059.5 1472 c 128,-1,48
 1157 1385 1157 1385 1157 1208 c 0,49,50
 1157 1165 1157 1165 1146 1065 c 1,51,-1
 1145 1059 l 1,0,1
EndSplineSet
EndChar
StartChar: ae
Encoding: 230 230 230
Width: 1233
Flags: W
Fore
463 401 m 2,0,-1
 477 479 l 1,1,-1
 403 479 l 2,2,3
 305 479 305 479 246.5 427.5 c 128,-1,4
 188 376 188 376 188 291 c 0,5,6
 188 240 188 240 217 210 c 128,-1,7
 246 180 246 180 295 180 c 0,8,9
 362 180 362 180 402 232 c 128,-1,10
 442 284 442 284 463 401 c 2,0,-1
991 688 m 1,11,-1
 1003 755 l 1,12,13
 1007 772 1007 772 1008.5 789 c 128,-1,14
 1010 806 1010 806 1010 834 c 0,15,16
 1010 885 1010 885 990 908.5 c 128,-1,17
 970 932 970 932 926 932 c 0,18,19
 870 932 870 932 834.5 890 c 128,-1,20
 799 848 799 848 780 760 c 1,21,-1
 766 688 l 1,22,-1
 991 688 l 1,11,-1
1176 477 m 1,23,-1
 725 477 l 1,24,25
 717 428 717 428 714 401.5 c 128,-1,26
 711 375 711 375 711 356 c 0,27,28
 711 276 711 276 753.5 228 c 128,-1,29
 796 180 796 180 866 180 c 0,30,31
 922 180 922 180 990.5 208.5 c 128,-1,32
 1059 237 1059 237 1124 289 c 1,33,-1
 1077 51 l 1,34,35
 1020 11 1020 11 952 -9 c 128,-1,36
 884 -29 884 -29 803 -29 c 0,37,38
 709 -29 709 -29 642 13.5 c 128,-1,39
 575 56 575 56 543 135 c 1,40,41
 482 52 482 52 408.5 11.5 c 128,-1,42
 335 -29 335 -29 246 -29 c 0,43,44
 119 -29 119 -29 44 50 c 128,-1,45
 -31 129 -31 129 -31 262 c 0,46,47
 -31 455 -31 455 90.5 572.5 c 128,-1,48
 212 690 212 690 416 690 c 2,49,-1
 524 690 l 1,50,-1
 535 748 l 2,51,52
 538 763 538 763 539.5 778 c 128,-1,53
 541 793 541 793 541 807 c 0,54,55
 541 868 541 868 507 900 c 128,-1,56
 473 932 473 932 408 932 c 0,57,58
 356 932 356 932 286.5 906.5 c 128,-1,59
 217 881 217 881 131 831 c 1,60,-1
 178 1069 l 1,61,62
 257 1108 257 1108 329.5 1127.5 c 128,-1,63
 402 1147 402 1147 471 1147 c 0,64,65
 553 1147 553 1147 611 1112 c 128,-1,66
 669 1077 669 1077 694 1014 c 1,67,68
 746 1079 746 1079 815.5 1113 c 128,-1,69
 885 1147 885 1147 969 1147 c 0,70,71
 1095 1147 1095 1147 1163 1077 c 128,-1,72
 1231 1007 1231 1007 1231 877 c 0,73,74
 1231 828 1231 828 1223 761 c 128,-1,75
 1215 694 1215 694 1198 606 c 1,76,-1
 1176 477 l 1,23,-1
EndSplineSet
EndChar
StartChar: eth
Encoding: 240 240 240
Width: 1233
Flags: W
Fore
838 778 m 1,0,1
 800 799 800 799 759 809 c 128,-1,2
 718 819 718 819 674 819 c 0,3,4
 545 819 545 819 460 708.5 c 128,-1,5
 375 598 375 598 375 428 c 0,6,7
 375 327 375 327 425 267 c 128,-1,8
 475 207 475 207 559 207 c 0,9,10
 685 207 685 207 766.5 332.5 c 128,-1,11
 848 458 848 458 848 655 c 0,12,13
 848 688 848 688 845.5 718 c 128,-1,14
 843 748 843 748 838 778 c 1,0,1
903 1329 m 1,15,16
 1023 1147 1023 1147 1082 979.5 c 128,-1,17
 1141 812 1141 812 1141 653 c 0,18,19
 1141 345 1141 345 976 158 c 128,-1,20
 811 -29 811 -29 539 -29 c 0,21,22
 321 -29 321 -29 201.5 86.5 c 128,-1,23
 82 202 82 202 82 412 c 0,24,25
 82 693 82 693 242 873 c 128,-1,26
 402 1053 402 1053 651 1053 c 0,27,28
 693 1053 693 1053 726 1047 c 128,-1,29
 759 1041 759 1041 788 1028 c 1,30,31
 761 1091 761 1091 733.5 1144.5 c 128,-1,32
 706 1198 706 1198 678 1243 c 1,33,-1
 348 1120 l 1,34,-1
 307 1235 l 1,35,-1
 614 1350 l 1,36,-1
 489 1556 l 1,37,-1
 768 1556 l 1,38,-1
 842 1436 l 1,39,-1
 1165 1554 l 1,40,-1
 1206 1442 l 1,41,-1
 903 1329 l 1,15,16
EndSplineSet
EndChar
StartChar: divide
Encoding: 247 247 247
Width: 1233
Flags: W
Fore
461 1198 m 1,0,-1
 770 1198 l 1,1,-1
 770 889 l 1,2,-1
 461 889 l 1,3,-1
 461 1198 l 1,0,-1
461 395 m 1,4,-1
 770 395 l 1,5,-1
 770 86 l 1,6,-1
 461 86 l 1,7,-1
 461 395 l 1,4,-1
66 762 m 1,8,-1
 1165 762 l 1,9,-1
 1165 524 l 1,10,-1
 66 524 l 1,11,-1
 66 762 l 1,8,-1
EndSplineSet
EndChar
StartChar: oslash
Encoding: 248 248 248
Width: 1233
Flags: W
Fore
434 266 m 1,0,1
 458 236 458 236 489.5 221.5 c 128,-1,2
 521 207 521 207 561 207 c 0,3,4
 682 207 682 207 758 328 c 128,-1,5
 834 449 834 449 850 670 c 1,6,-1
 434 266 l 1,0,1
129 209 m 1,7,8
 109 255 109 255 98.5 308 c 128,-1,9
 88 361 88 361 88 422 c 0,10,11
 88 749 88 749 253.5 949 c 128,-1,12
 419 1149 419 1149 688 1149 c 0,13,14
 780 1149 780 1149 857.5 1124 c 128,-1,15
 935 1099 935 1099 1001 1049 c 1,16,-1
 1194 1235 l 1,17,-1
 1311 1114 l 1,18,-1
 1104 913 l 1,19,20
 1124 864 1124 864 1134.5 809.5 c 128,-1,21
 1145 755 1145 755 1145 696 c 0,22,23
 1145 370 1145 370 979 170.5 c 128,-1,24
 813 -29 813 -29 543 -29 c 0,25,26
 445 -29 445 -29 369.5 -4 c 128,-1,27
 294 21 294 21 233 72 c 1,28,-1
 35 -117 l 1,29,-1
 -82 2 l 1,30,-1
 129 209 l 1,7,8
801 856 m 1,31,32
 776 884 776 884 744.5 897.5 c 128,-1,33
 713 911 713 911 674 911 c 0,34,35
 553 911 553 911 477.5 793 c 128,-1,36
 402 675 402 675 383 453 c 1,37,-1
 801 856 l 1,31,32
EndSplineSet
EndChar
StartChar: thorn
Encoding: 254 254 254
Width: 1233
Flags: W
Fore
602 209 m 0,0,1
 713 209 713 209 793.5 351 c 128,-1,2
 874 493 874 493 874 694 c 0,3,4
 874 795 874 795 832.5 851 c 128,-1,5
 791 907 791 907 717 907 c 0,6,7
 603 907 603 907 519.5 768.5 c 128,-1,8
 436 630 436 630 436 432 c 0,9,10
 436 328 436 328 481 268.5 c 128,-1,11
 526 209 526 209 602 209 c 0,0,1
379 207 m 1,12,-1
 256 -426 l 1,13,-1
 -37 -426 l 1,14,-1
 348 1556 l 1,15,-1
 641 1556 l 1,16,-1
 524 952 l 1,17,18
 595 1050 595 1050 677 1098.5 c 128,-1,19
 759 1147 759 1147 852 1147 c 0,20,21
 999 1147 999 1147 1084 1037.5 c 128,-1,22
 1169 928 1169 928 1169 739 c 0,23,24
 1169 610 1169 610 1138 480 c 128,-1,25
 1107 350 1107 350 1051 244 c 0,26,27
 982 115 982 115 877 43 c 128,-1,28
 772 -29 772 -29 655 -29 c 0,29,30
 543 -29 543 -29 471 33 c 128,-1,31
 399 95 399 95 379 207 c 1,12,-1
EndSplineSet
EndChar
StartChar: dcroat
Encoding: 273 273 273
Width: 1233
Flags: W
Fore
854 911 m 1,0,-1
 920 1251 l 1,1,-1
 616 1251 l 1,2,-1
 653 1440 l 1,3,-1
 956 1440 l 1,4,-1
 979 1556 l 1,5,-1
 1272 1556 l 1,6,-1
 1249 1440 l 1,7,-1
 1395 1440 l 1,8,-1
 1358 1251 l 1,9,-1
 1212 1251 l 1,10,-1
 969 0 l 1,11,-1
 678 0 l 1,12,-1
 709 166 l 1,13,14
 643 70 643 70 560.5 20.5 c 128,-1,15
 478 -29 478 -29 383 -29 c 0,16,17
 237 -29 237 -29 151.5 81 c 128,-1,18
 66 191 66 191 66 381 c 0,19,20
 66 510 66 510 97 638.5 c 128,-1,21
 128 767 128 767 184 874 c 0,22,23
 253 1003 253 1003 358 1076 c 128,-1,24
 463 1149 463 1149 580 1149 c 0,25,26
 692 1149 692 1149 765.5 1085.5 c 128,-1,27
 839 1022 839 1022 854 911 c 1,0,-1
633 909 m 0,28,29
 522 909 522 909 442 767.5 c 128,-1,30
 362 626 362 626 362 424 c 0,31,32
 362 323 362 323 403.5 267 c 128,-1,33
 445 211 445 211 518 211 c 0,34,35
 632 211 632 211 715.5 349.5 c 128,-1,36
 799 488 799 488 799 686 c 0,37,38
 799 790 799 790 754 849.5 c 128,-1,39
 709 909 709 909 633 909 c 0,28,29
EndSplineSet
EndChar
StartChar: Hbar
Encoding: 294 294 294
Width: 1233
Flags: W
Fore
282 1493 m 1,0,-1
 577 1493 l 1,1,-1
 534 1269 l 1,0,0
 903 1269 l 1,0,0
 946 1493 l 1,4,-1
 1240 1493 l 1,5,-1
 1197 1269 l 1,0,0
 1332 1269 l 1,1,-1
 1300 1105 l 1,2,-1
 1165 1105 l 1,0,0
 950 0 l 1,6,-1
 656 0 l 1,7,-1
 785 664 l 1,8,-1
 416 664 l 1,9,-1
 287 0 l 1,10,-1
 -8 0 l 1,11,-1
 207 1105 l 1,0,0
 73 1105 l 1,3,-1
 105 1269 l 1,0,-1
 239 1269 l 1,0,0
 282 1493 l 1,0,-1
502 1105 m 1,0,0
 467 924 l 1,2,-1
 836 924 l 1,3,-1
 871 1105 l 1,0,0
 502 1105 l 1,0,0
EndSplineSet
EndChar
StartChar: hbar
Encoding: 295 295 295
Width: 1233
Flags: W
Fore
1061 727 m 2,0,-1
 920 0 l 1,1,-1
 629 0 l 1,2,-1
 761 682 l 2,3,4
 769.5 726.5 769.5 726.5 771.5 746.5 c 128,-1,5
 774 773 774 773 774 800 c 0,6,7
 774 858 774 858 745 888.5 c 128,-1,8
 716 919 716 919 661 919 c 0,9,10
 578 919 578 919 520 847.5 c 128,-1,11
 462 776 462 776 436 641 c 2,12,-1
 312 0 l 1,10,-1
 21 0 l 1,11,-1
 268 1270 l 1,0,0
 108 1270 l 1,3,-1
 140 1434 l 1,0,-1
 300 1434 l 1,0,0
 323 1556 l 1,12,-1
 614 1556 l 1,13,-1
 591 1434 l 1,0,0
 868 1434 l 1,0,-1
 836 1270 l 1,3,-1
 559 1270 l 1,0,0
 497 952 l 1,17,18
 545 1044 545 1044 629 1095.5 c 128,-1,19
 713 1147 713 1147 814 1147 c 0,20,21
 942 1147 942 1147 1011 1077.5 c 128,-1,22
 1080 1008 1080 1008 1080 881 c 0,23,24
 1080 851 1080 851 1075.5 813 c 128,-1,25
 1072 784 1072 784 1061 727 c 2,0,-1
EndSplineSet
EndChar
StartChar: dotlessi
Encoding: 305 305 305
Width: 1233
Flags: W
Fore
309 1120 m 1,0,-1
 889 1120 l 1,1,-1
 715 225 l 1,2,-1
 1079 225 l 1,3,-1
 1036 0 l 1,4,-1
 14 0 l 1,5,-1
 57 225 l 1,6,-1
 422 225 l 1,7,-1
 553 895 l 1,8,-1
 266 895 l 1,9,-1
 309 1120 l 1,0,-1
EndSplineSet
EndChar
StartChar: IJ
Encoding: 306 306 306
Width: 1233
Flags: W
Fore
635.381 74 m 1,0,-1
 697.161 418 l 1,1,2
 741.449 322 741.449 322 795.303 274.5 c 128,-1,3
 849.156 227 849.156 227 915.076 227 c 0,4,5
 989.316 227 989.316 227 1028.64 281 c 128,-1,6
 1067.97 335 1067.97 335 1093.46 475 c 1,7,-1
 1232.42 1229 l 1,8,-1
 1001.38 1229 l 1,9,-1
 1049.91 1489 l 1,10,-1
 1469.11 1489 l 1,11,-1
 1282.27 475 l 1,12,13
 1251.17 305 1251.17 305 1219.89 219 c 128,-1,14
 1188.6 133 1188.6 133 1142.5 78 c 0,15,16
 1096.39 23 1096.39 23 1036.51 -5 c 128,-1,17
 976.624 -33 976.624 -33 904.305 -33 c 0,18,19
 833.265 -33 833.265 -33 766.339 -6.5 c 128,-1,20
 699.413 20 699.413 20 635.381 74 c 1,0,-1
242.572 1233 m 1,0,-1
 290.464 1493 l 1,1,-1
 859.424 1493 l 1,2,-1
 811.532 1233 l 1,3,-1
 621.452 1233 l 1,4,-1
 444.052 260 l 1,5,-1
 634.132 260 l 1,6,-1
 585.6 0 l 1,7,-1
 17.2803 0 l 1,8,-1
 65.1719 260 l 1,9,-1
 255.252 260 l 1,10,-1
 432.652 1233 l 1,11,-1
 242.572 1233 l 1,0,-1
EndSplineSet
EndChar
StartChar: ij
Encoding: 307 307 307
Width: 1233
Flags: W
Fore
1118.65 72 m 1,0,1
 1083.72 -95 1083.72 -95 1056.82 -166.5 c 128,-1,2
 1029.92 -238 1029.92 -238 992.621 -284 c 0,3,4
 945.724 -343 945.724 -343 884.905 -369 c 128,-1,5
 824.088 -395 824.088 -395 731.379 -395 c 2,6,-1
 507.27 -395 l 1,7,-1
 554.719 -170 l 1,8,-1
 723.349 -170 l 2,9,10
 796.349 -170 796.349 -170 837.051 -116.5 c 128,-1,11
 877.752 -63 877.752 -63 904.762 72 c 1,12,-1
 1081.23 924 l 1,13,-1
 864.418 924 l 1,14,-1
 910.407 1149 l 1,15,-1
 1341.11 1149 l 1,16,-1
 1118.65 72 l 1,0,1
1384.21 1352 m 1,17,-1
 1170.32 1352 l 1,18,-1
 1240.69 1694 l 1,19,-1
 1454.58 1694 l 1,20,-1
 1384.21 1352 l 1,17,-1
298.246 1120 m 1,0,-1
 721.646 1120 l 1,1,-1
 536.551 225 l 1,2,-1
 802.271 225 l 1,3,-1
 756.28 0 l 1,4,-1
 10.2197 0 l 1,5,-1
 56.2109 225 l 1,6,-1
 322.66 225 l 1,7,-1
 461.767 895 l 1,8,-1
 252.256 895 l 1,9,-1
 298.246 1120 l 1,0,-1
620.501 1665 m 1,10,-1
 834.391 1665 l 1,11,-1
 763.289 1323 l 1,12,-1
 549.398 1323 l 1,13,-1
 620.501 1665 l 1,10,-1
EndSplineSet
EndChar
StartChar: kgreenlandic
Encoding: 312 312 312
Width: 1233
Flags: W
Fore
283 1120 m 1,0,-1
 576 1120 l 1,1,-1
 502 739 l 1,2,-1
 928 1120 l 1,3,-1
 1283 1120 l 1,4,-1
 778 702 l 1,5,-1
 1089 0 l 1,6,-1
 765 0 l 1,7,-1
 560 524 l 1,8,-1
 441 428 l 1,9,-1
 358 0 l 1,10,-1
 65 0 l 1,11,-1
 283 1120 l 1,0,-1
EndSplineSet
EndChar
StartChar: Lslash
Encoding: 321 321 321
Width: 1233
Flags: W
Fore
80 0 m 1,0,-1
 176 502 l 1,1,-1
 45 403 l 1,2,-1
 -70 557 l 1,3,-1
 229 768 l 1,4,-1
 371 1493 l 1,5,-1
 666 1493 l 1,6,-1
 571 1012 l 1,7,-1
 821 1186 l 1,8,-1
 936 1032 l 1,9,-1
 518 737 l 1,10,-1
 426 260 l 1,11,-1
 1057 260 l 1,12,-1
 1006 0 l 1,13,-1
 80 0 l 1,0,-1
EndSplineSet
EndChar
StartChar: lslash
Encoding: 322 322 322
Width: 1233
Flags: W
Fore
639 364 m 2,0,1
 635 345 635 345 633 329 c 128,-1,2
 631 313 631 313 631 307 c 0,3,4
 631 262 631 262 661.5 243.5 c 128,-1,5
 692 225 692 225 770 225 c 2,6,-1
 1049 225 l 1,7,-1
 1004 0 l 1,8,-1
 707 0 l 2,9,10
 501 0 501 0 416.5 56 c 128,-1,11
 332 112 332 112 332 242 c 0,12,13
 332 265 332 265 336.5 300 c 128,-1,14
 341 335 341 335 350 379 c 2,15,-1
 403 639 l 1,16,-1
 127 444 l 1,17,-1
 37 590 l 1,18,-1
 455 874 l 1,19,-1
 553 1331 l 1,20,-1
 248 1331 l 1,21,-1
 291 1556 l 1,22,-1
 889 1556 l 1,23,-1
 795 1102 l 1,24,-1
 1085 1305 l 1,25,-1
 1188 1167 l 1,26,-1
 745 866 l 1,27,-1
 639 364 l 2,0,1
EndSplineSet
EndChar
StartChar: Eng
Encoding: 330 330 330
Width: 1233
Flags: W
Fore
257 1493 m 1,0,-1
 528 1493 l 1,1,-1
 800 458 l 1,2,-1
 1001 1493 l 1,3,-1
 1273 1493 l 1,4,-1
 995 60 l 1,0,0
 943 -206 943 -206 829.5 -316 c 128,-1,2
 716.5 -424 716.5 -424 508.5 -424 c 2,3,-1
 387.5 -424 l 1,4,-1
 431.5 -199 l 1,5,-1
 470.5 -199 l 2,6,7
 570.5 -199 570.5 -199 622 -144 c 128,-1,8
 674 -89 674 -89 700 44 c 1,0,0
 439 1035 l 1,7,-1
 238 0 l 1,8,-1
 -33 0 l 1,9,-1
 257 1493 l 1,0,-1
EndSplineSet
EndChar
StartChar: eng
Encoding: 331 331 331
Width: 1233
Flags: W
Fore
1142 727 m 2,0,-1
 1009 43 l 2,0,1
 960 -209 960 -209 848 -316 c 128,-1,2
 737 -424 737 -424 527 -424 c 2,3,-1
 406 -424 l 1,4,-1
 450 -199 l 1,5,-1
 489 -199 l 2,6,7
 589 -199 589 -199 641 -144 c 128,-1,8
 692 -89 692 -89 718 43 c 2,9,-1
 842 682 l 2,3,4
 854 743 854 743 854 786 c 0,0,0
 854 830 854 830 842 856 c 128,-1,5
 817 909 817 909 739 909 c 0,6,7
 660 909 660 909 601 838 c 128,-1,8
 542 767 542 767 517 641 c 2,9,-1
 393 0 l 1,10,-1
 102 0 l 1,11,-1
 319 1120 l 1,12,-1
 610 1120 l 1,13,-1
 578 952 l 1,14,15
 627 1045 627 1045 712 1096 c 128,-1,16
 797 1147 797 1147 903 1147 c 0,17,18
 1062 1147 1062 1147 1122 1042 c 128,-1,19
 1158 979 1158 979 1158 878 c 0,0,0
 1158 811 1158 811 1142 727 c 2,0,-1
EndSplineSet
EndChar
StartChar: OE
Encoding: 338 338 338
Width: 1233
Flags: W
Fore
1122 260 m 1,0,-1
 1071 0 l 1,1,-1
 494 0 l 2,2,3
 243 0 243 0 137 90.5 c 128,-1,4
 31 181 31 181 31 391 c 0,5,6
 31 541 31 541 64.5 724 c 128,-1,7
 98 907 98 907 158 1083 c 0,8,9
 229 1295 229 1295 352.5 1394 c 128,-1,10
 476 1493 476 1493 666 1493 c 2,11,-1
 1352 1493 l 1,12,-1
 1300 1233 l 1,13,-1
 969 1233 l 1,14,-1
 909 922 l 1,15,-1
 1210 922 l 1,16,-1
 1159 662 l 1,17,-1
 858 662 l 1,18,-1
 780 260 l 1,19,-1
 1122 260 l 1,0,-1
664 1233 m 2,20,21
 577 1233 577 1233 520.5 1186 c 128,-1,22
 464 1139 464 1139 430 1038 c 0,23,24
 378 886 378 886 346.5 716.5 c 128,-1,25
 315 547 315 547 315 434 c 0,26,27
 315 344 315 344 353.5 302 c 128,-1,28
 392 260 392 260 475 260 c 2,29,-1
 526 260 l 1,30,-1
 715 1233 l 1,31,-1
 664 1233 l 2,20,21
EndSplineSet
EndChar
StartChar: oe
Encoding: 339 339 339
Width: 1233
Flags: W
Fore
1022 690 m 1,0,-1
 1032 756 l 1,1,2
 1036 776 1036 776 1038 795.5 c 128,-1,3
 1040 815 1040 815 1040 834 c 0,4,5
 1040 886 1040 886 1020 910 c 128,-1,6
 1000 934 1000 934 956 934 c 0,7,8
 901 934 901 934 865.5 891.5 c 128,-1,9
 830 849 830 849 811 760 c 1,10,-1
 797 690 l 1,11,-1
 1022 690 l 1,0,-1
1206 479 m 1,12,-1
 756 479 l 1,13,14
 747 426 747 426 744 400 c 128,-1,15
 741 374 741 374 741 356 c 0,16,17
 741 277 741 277 784 230.5 c 128,-1,18
 827 184 827 184 899 184 c 0,19,20
 956 184 956 184 1023.5 211.5 c 128,-1,21
 1091 239 1091 239 1155 289 c 1,22,-1
 1108 51 l 1,23,24
 1051 11 1051 11 982 -9 c 128,-1,25
 913 -29 913 -29 831 -29 c 0,26,27
 737 -29 737 -29 670.5 11.5 c 128,-1,28
 604 52 604 52 584 121 c 1,29,30
 534 46 534 46 462.5 8.5 c 128,-1,31
 391 -29 391 -29 299 -29 c 0,32,33
 144 -29 144 -29 62 55 c 128,-1,34
 -20 139 -20 139 -20 297 c 0,35,36
 -20 437 -20 437 12 595 c 128,-1,37
 44 753 44 753 98 881 c 0,38,39
 154 1010 154 1010 253.5 1078.5 c 128,-1,40
 353 1147 353 1147 485 1147 c 0,41,42
 568 1147 568 1147 628 1116.5 c 128,-1,43
 688 1086 688 1086 725 1026 c 1,44,45
 773 1085 773 1085 842 1116 c 128,-1,46
 911 1147 911 1147 993 1147 c 0,47,48
 1123 1147 1123 1147 1192.5 1077.5 c 128,-1,49
 1262 1008 1262 1008 1262 877 c 0,50,51
 1262 828 1262 828 1253.5 761 c 128,-1,52
 1245 694 1245 694 1229 606 c 2,53,-1
 1206 479 l 1,12,-1
319 184 m 0,54,55
 371 184 371 184 405 216 c 128,-1,56
 439 248 439 248 465 322 c 0,57,58
 474 344 474 344 487.5 403 c 128,-1,59
 501 462 501 462 520 559 c 0,60,61
 538 649 538 649 547.5 709 c 128,-1,62
 557 769 557 769 557 797 c 0,63,64
 557 869 557 869 531.5 901.5 c 128,-1,65
 506 934 506 934 449 934 c 0,66,67
 397 934 397 934 363 902 c 128,-1,68
 329 870 329 870 303 797 c 0,69,70
 289 755 289 755 273.5 693 c 128,-1,71
 258 631 258 631 244 559 c 0,72,73
 228 478 228 478 219.5 417 c 128,-1,74
 211 356 211 356 211 322 c 0,75,76
 211 249 211 249 236.5 216.5 c 128,-1,77
 262 184 262 184 319 184 c 0,54,55
EndSplineSet
EndChar
StartChar: Tbar
Encoding: 358 358 358
Width: 1233
Flags: W
TeX: 0 0 0 0
Fore
619 0 m 1,0,-1
 324 0 l 1,1,-1
 428 538 l 1,0,0
 181 538 l 1,0,0
 219 730 l 1,0,0
 466 730 l 1,0,0
 564 1235 l 1,2,-1
 185 1235 l 1,3,-1
 235 1493 l 1,4,-1
 1288 1493 l 1,5,-1
 1238 1235 l 1,6,-1
 859 1235 l 1,7,-1
 761 730 l 1,0,0
 1008 730 l 1,0,0
 970 538 l 1,0,0
 723 538 l 1,0,0
 619 0 l 1,0,-1
EndSplineSet
EndChar
StartChar: tbar
Encoding: 359 359 359
Width: 1233
Flags: W
TeX: 0 0 0 0
Fore
830 1438 m 1,0,-1
 768 1120 l 1,1,-1
 1151 1120 l 1,2,-1
 1107 895 l 1,3,-1
 724 895 l 1,4,-1
 697 753 l 1,0,0
 881 753 l 1,0,0
 843 561 l 1,0,0
 659 561 l 1,0,0
 621 365 l 2,5,6
 616 340 616 340 616 320 c 0,0,0
 616 279 616 279 636 258 c 128,-1,7
 667 225 667 225 752 225 c 2,8,-1
 977 225 l 1,9,-1
 933 0 l 1,10,-1
 687 0 l 2,11,12
 435 0 435 0 362 80 c 128,-1,13
 315 131 315 131 315 238 c 0,0,0
 315 299 315 299 331 379 c 2,14,-1
 366 561 l 1,0,0
 188 561 l 1,0,0
 226 753 l 1,0,0
 404 753 l 1,0,0
 431 895 l 1,15,-1
 145 895 l 1,16,-1
 189 1120 l 1,17,-1
 475 1120 l 1,18,-1
 537 1438 l 1,19,-1
 830 1438 l 1,0,-1
EndSplineSet
EndChar
StartChar: longs
Encoding: 383 383 383
Width: 1233
Flags: W
TeX: 0 0 0 0
Fore
623 0 m 1,5,-1
 330 0 l 1,6,-1
 504 895 l 1,7,-1
 231 895 l 1,8,-1
 274 1120 l 1,9,-1
 547 1120 l 1,10,-1
 563 1198 l 1,11,12
 605 1409 605 1409 697 1482.5 c 128,-1,13
 789 1556 789 1556 1028 1556 c 2,14,-1
 1268 1556 l 1,15,-1
 1225 1331 l 1,16,-1
 995 1331 l 2,17,18
 930 1331 930 1331 901 1303.5 c 128,-1,19
 872 1276 872 1276 856 1196 c 1,0,-1
 623 0 l 1,5,-1
EndSplineSet
EndChar
StartChar: uni0181
Encoding: 385 385 385
Width: 1233
Flags: W
TeX: 117 0 0 0
Fore
486.299 1495 m 1,0,-1
 816.299 1495 l 2,1,2
 1065.3 1495 1065.3 1495 1172.43 1400.5 c 0,3,4
 1279.56 1306 1279.56 1306 1243.02 1118 c 0,5,6
 1215.03 974 1215.03 974 1125.28 893 c 0,7,8
 1035.54 812 1035.54 812 890.011 799 c 1,9,10
 1057.71 782 1057.71 782 1125.16 684 c 0,11,12
 1192.61 586 1192.61 586 1158.4 410 c 0,13,14
 1116.41 194 1116.41 194 967.556 97 c 0,15,16
 818.701 0 818.701 0 525.701 0 c 2,17,-1
 195.701 0 l 1,18,-1
 432.067 1216 l 1,19,20
 413.412 1216 413.412 1216 411.699 1215.45 c 0,21,22
 367.665 1214.26 367.665 1214.26 347.985 1195 c 0,23,24
 310.249 1158.06 310.249 1158.06 298.404 1110.9 c 0,25,26
 295.016 1097.41 295.016 1097.41 288.521 1064 c 1,27,-1
 33.5215 1064 l 1,28,-1
 48.4883 1141 l 2,29,30
 78.6172 1296 78.6172 1296 139.433 1361.26 c 0,31,32
 162.002 1385.48 162.002 1385.48 200.457 1413.5 c 0,33,34
 305.696 1490.18 305.696 1490.18 428.842 1490.18 c 0,35,36
 533.362 1490.18 533.362 1490.18 486.299 1495 c 1,0,-1
725.62 1260 m 1,37,-1
 658.17 913 l 1,38,-1
 703.17 913 l 2,39,40
 815.17 913 815.17 913 870.445 953 c 0,41,42
 925.721 993 925.721 993 943.604 1085 c 0,43,44
 961.486 1177 961.486 1177 921.053 1218.5 c 0,45,46
 880.62 1260 880.62 1260 770.62 1260 c 2,47,-1
 725.62 1260 l 1,37,-1
612.49 678 m 1,48,-1
 526.574 236 l 1,49,-1
 571.574 236 l 2,50,51
 712.574 236 712.574 236 778.404 284 c 0,52,53
 844.235 332 844.235 332 867.366 451 c 0,54,55
 890.887 572 890.887 572 842.188 625 c 0,56,57
 793.49 678 793.49 678 657.49 678 c 2,58,-1
 612.49 678 l 1,48,-1
EndSplineSet
EndChar
StartChar: uni0183
Encoding: 387 387 387
Width: 1233
Flags: W
TeX: 117 0 0 0
Fore
584.953 -29 m 0,0,1
 380.428 -29 380.428 -29 325.857 166 c 1,2,-1
 293.591 0 l 1,3,-1
 1.59082 0 l 1,4,-1
 304.047 1556 l 1,5,-1
 1103.05 1556 l 1,6,-1
 1062.42 1347 l 1,7,-1
 555.421 1347 l 1,8,-1
 480.39 961 l 1,9,10
 624.545 1147 624.545 1147 803.545 1147 c 0,11,12
 1005.35 1147 1005.35 1147 1083.25 990.59 c 0,13,14
 1157.97 840.533 1157.97 840.533 1103.25 559 c 0,15,16
 1048.82 279 1048.82 279 912.888 125 c 0,17,18
 776.953 -29 776.953 -29 584.953 -29 c 0,0,1
809.86 557 m 0,19,20
 841.35 719 841.35 719 805.233 811 c 0,21,22
 769.116 903 769.116 903 674.116 903 c 0,23,24
 579.116 903 579.116 903 506.233 811 c 0,25,26
 433.35 719 433.35 719 401.86 557 c 0,27,28
 370.371 395 370.371 395 407.488 303 c 0,29,30
 444.604 211 444.604 211 539.604 211 c 0,31,32
 634.604 211 634.604 211 706.488 303 c 0,33,34
 778.371 395 778.371 395 809.86 557 c 0,19,20
EndSplineSet
EndChar
StartChar: uni0184
Encoding: 388 388 388
Width: 1233
Flags: W
TeX: 117 0 0 0
Fore
403.102 248 m 1,0,-1
 524.102 248 l 2,8,-1
 669.102 248 669.102 248 737.126 297 c 128,-1,7
 805.15 346 805.15 346 828.671 467 c 0,5,6
 852.19 588 852.19 588 803.216 637 c 128,-1,4
 754.24 686 754.24 686 609.24 686 c 2,2,3
 488.24 686 l 1,1,-1
 403.102 248 l 1,0,-1
59.8955 0 m 1,9,-1
 241.446 934 l 1,0,0
 105.493 1068 l 1,19,-1
 645.104 1493 l 1,18,-1
 536.446 934 l 1,17,-1
 646.446 934 l 2,16,-1
 955.446 934 955.446 934 1069.56 824 c 128,-1,15
 1183.68 714 1183.68 714 1135.67 467 c 0,13,14
 1087.66 220 1087.66 220 930.777 110 c 128,-1,12
 773.896 0 773.896 0 464.896 0 c 2,10,11
 59.8955 0 l 1,9,-1
EndSplineSet
EndChar
StartChar: uni0185
Encoding: 389 389 389
Width: 1233
Flags: W
TeX: 117 0 0 0
Fore
854.86 557 m 0,0,1
 886.35 719 886.35 719 850.233 811 c 128,-1,2
 814.116 903 814.116 903 719.116 903 c 0,3,4
 624.116 903 624.116 903 551.233 811 c 128,-1,5
 478.35 719 478.35 719 446.86 557 c 0,6,7
 415.371 395 415.371 395 452.488 303 c 128,-1,8
 489.604 211 489.604 211 584.604 211 c 0,9,10
 679.604 211 679.604 211 751.488 303 c 128,-1,11
 823.371 395 823.371 395 854.86 557 c 0,0,1
525.39 961 m 1,12,13
 597.468 1054 597.468 1054 678.006 1100.5 c 128,-1,14
 758.545 1147 758.545 1147 848.545 1147 c 0,15,16
 1047.54 1147 1047.54 1147 1125.5 995 c 128,-1,17
 1203.45 843 1203.45 843 1148.25 559 c 0,18,19
 1093.82 279 1093.82 279 957.888 125 c 128,-1,20
 821.953 -29 821.953 -29 629.953 -29 c 0,21,22
 528.953 -29 528.953 -29 463.479 20 c 128,-1,23
 398.003 69 398.003 69 370.857 166 c 1,24,-1
 338.591 0 l 1,25,-1
 46.5908 0 l 1,26,-1
 228.142 934 l 1,0,0
 104.188 1068 l 1,27,-1
 641.047 1556 l 1,28,-1
 525.39 961 l 1,12,13
EndSplineSet
EndChar
StartChar: uni0186
Encoding: 390 390 390
Width: 1233
Flags: W
TeX: 117 0 0 0
Fore
15.4482 43 m 1,0,1
 79.2041 371 l 1,25,-1
 141.598 301 141.598 301 206.78 268.5 c 128,-1,24
 271.963 236 271.963 236 347.963 236 c 0,22,23
 509.963 236 509.963 236 617.441 364.5 c 128,-1,21
 724.919 493 724.919 493 773.902 745 c 0,19,20
 823.081 998 823.081 998 765.559 1126.5 c 128,-1,18
 708.037 1255 708.037 1255 546.037 1255 c 0,16,17
 470.037 1255 470.037 1255 392.22 1222.5 c 128,-1,15
 314.402 1190 314.402 1190 224.796 1120 c 1,13,14
 288.552 1448 l 1,12,-1
 363.55 1484 363.55 1484 445.049 1502 c 128,-1,11
 526.548 1520 526.548 1520 611.548 1520 c 0,9,10
 913.548 1520 913.548 1520 1033.87 1321 c 128,-1,8
 1154.18 1122 1154.18 1122 1080.9 745 c 0,6,7
 1007.82 369 1007.82 369 810.134 170 c 128,-1,5
 612.452 -29 612.452 -29 310.452 -29 c 0,3,4
 225.452 -29 225.452 -29 151.951 -11 c 128,-1,2
 78.4502 7 78.4502 7 15.4482 43 c 1,0,1
EndSplineSet
EndChar
StartChar: uni0187
Encoding: 391 391 391
Width: 1233
Flags: W
TeX: 117 0 0 0
Fore
675.009 236 m 0,0,1
 823.438 236 823.438 236 996.25 371 c 1,2,-1
 932.493 43 l 1,3,4
 778.498 -29 778.498 -29 609.498 -29 c 0,5,6
 307.498 -29 307.498 -29 187.18 170 c 0,7,8
 66.8613 369 66.8613 369 139.948 745 c 0,9,10
 246.308 1292.17 246.308 1292.17 603.066 1455.99 c 0,11,12
 742.479 1520 742.479 1520 910.593 1520 c 0,13,14
 958.413 1520 958.413 1520 1002.91 1514.3 c 1,15,16
 1115.46 1643 1115.46 1643 1343.5 1643 c 2,17,-1
 1440.5 1643 l 1,18,-1
 1396.77 1418 l 1,19,-1
 1381.77 1418 l 2,20,21
 1289.3 1418 1289.3 1418 1230.08 1363 c 0,22,23
 1180.04 1316.53 1180.04 1316.53 1152.73 1176 c 2,24,-1
 1141.84 1120 l 1,25,26
 1021.67 1254.82 1021.67 1254.82 873.082 1255 c 0,27,28
 711.082 1255 711.082 1255 603.604 1126.5 c 0,29,30
 496.127 998 496.127 998 446.948 745 c 0,31,32
 354.058 267.117 354.058 267.117 637.763 237.847 c 0,33,34
 655.658 236 655.658 236 675.009 236 c 0,0,1
EndSplineSet
EndChar
StartChar: uni0188
Encoding: 392 392 392
Width: 1233
Flags: W
TeX: 117 0 0 0
Fore
654.604 211 m 0,0,1
 822.743 211 822.743 211 975.959 326 c 1,2,-1
 923.67 57 l 1,3,4
 758.954 -29 758.954 -29 564.953 -29 c 0,5,6
 305.953 -29 305.953 -29 190.277 127 c 0,7,8
 74.6006 283 74.6006 283 128.249 559 c 0,9,10
 182.093 836 182.093 836 359.513 992.5 c 0,11,12
 536.934 1149 536.934 1149 795.934 1149 c 0,13,14
 822.854 1149 822.854 1149 848.827 1147.12 c 1,15,16
 906.741 1362.07 906.741 1362.07 995.054 1448 c 0,17,18
 1106.05 1556 1106.05 1556 1316.05 1556 c 2,19,-1
 1437.05 1556 l 1,20,-1
 1393.31 1331 l 1,21,-1
 1354.31 1331 l 2,22,23
 1259.14 1331 1259.14 1331 1202.62 1276 c 0,24,25
 1158.91 1233.46 1158.91 1233.46 1125.27 1089 c 2,26,-1
 1119.22 1063 l 1,27,-1
 1067.12 795 l 1,28,29
 956.628 909 956.628 909 790.282 909 c 0,30,31
 619.663 909 619.663 909 519.54 782.407 c 0,32,33
 452.101 697.141 452.101 697.141 425.249 559 c 0,34,35
 373.184 291.144 373.184 291.144 547.179 228.08 c 0,36,37
 594.304 211 594.304 211 654.604 211 c 0,0,1
EndSplineSet
EndChar
StartChar: uni018A
Encoding: 394 394 394
Width: 1233
Flags: W
TeX: 117 0 0 0
Fore
371.317 1206 m 1,0,1
 342.271 1206 342.271 1206 323.932 1168 c 0,2,3
 298.75 1115.83 298.75 1115.83 293.341 1088.18 c 2,4,-1
 288.716 1064 l 1,5,-1
 33.7158 1064 l 1,6,-1
 48.6826 1141 l 2,7,8
 77.8887 1291.25 77.8887 1291.25 139.627 1361.26 c 0,9,10
 235.37 1469.83 235.37 1469.83 375.491 1489.41 c 0,11,12
 401.201 1493 401.201 1493 427.104 1493 c 2,13,-1
 663.104 1493 l 2,14,15
 1029.1 1493 1029.1 1493 1156.19 1318.5 c 0,16,17
 1283.27 1144 1283.27 1144 1206.29 748 c 0,18,19
 1129.12 351 1129.12 351 934.009 175.5 c 0,20,21
 738.896 0 738.896 0 372.896 0 c 2,22,-1
 136.896 0 l 1,23,-1
 371.317 1206 l 1,0,1
670.399 1227 m 1,24,-1
 483.601 266 l 1,25,26
 657.601 266 657.601 266 752.885 375.5 c 0,27,28
 848.17 485 848.17 485 899.292 748 c 0,29,30
 950.024 1009 950.024 1009 897.212 1118 c 0,31,32
 844.399 1227 844.399 1227 670.399 1227 c 1,24,-1
EndSplineSet
EndChar
StartChar: uni018B
Encoding: 395 395 395
Width: 1233
Flags: W
TeX: 117 0 0 0
Fore
860.588 678 m 1,0,-1
 664.588 678 l 2,10,-1
 528.588 678 528.588 678 459.285 625 c 0,8,9
 389.983 572 389.983 572 366.464 451 c 0,6,7
 343.332 332 343.332 332 390.502 284 c 0,4,5
 437.672 236 437.672 236 578.672 236 c 2,2,3
 774.672 236 l 1,1,-1
 860.588 678 l 1,0,-1
352.202 1494 m 25,9,-1
 1304.01 1493 l 1,29,-1
 1013.8 0 l 1,28,-1
 532.798 0 l 2,27,-1
 239.798 0 239.798 0 128.652 97 c 0,25,26
 17.5068 193.997 17.5068 193.997 59.4941 410 c 0,23,24
 61.3896 419.752 61.3896 419.752 63.3545 429.036 c 0,21,22
 100.094 603.074 100.094 603.074 187.254 684 c 0,19,20
 195.015 691.204 195.015 691.204 216.72 713.041 c 1,17,18
 269.359 763.048 l 1,15,16
 437.928 909.765 437.928 909.765 710.268 913 c 1,13,14
 906.268 913 l 1,12,-1
 973.717 1260 l 1,11,-1
 306.717 1260 l 1,10,-1
 352.202 1494 l 25,9,-1
EndSplineSet
EndChar
StartChar: uni018C
Encoding: 396 396 396
Width: 1233
Flags: W
TeX: 117 0 0 0
Fore
399.953 -29 m 0,0,1
 207.953 -29 207.953 -29 131.888 125 c 0,2,3
 55.8223 279 55.8223 279 110.249 559 c 0,4,5
 164.974 840.533 164.974 840.533 298.039 990.59 c 0,6,7
 436.739 1147 436.739 1147 638.545 1147 c 0,8,9
 817.545 1147 817.545 1147 889.39 961 c 1,10,-1
 964.421 1347 l 1,11,-1
 457.421 1347 l 1,12,-1
 498.047 1556 l 1,13,-1
 1297.05 1556 l 1,14,-1
 994.591 0 l 1,15,-1
 702.591 0 l 1,16,-1
 734.857 166 l 1,17,18
 604.479 -29 604.479 -29 399.953 -29 c 0,0,1
402.86 557 m 0,19,20
 371.371 395 371.371 395 407.488 303 c 0,21,22
 443.604 211 443.604 211 538.604 211 c 0,23,24
 633.604 211 633.604 211 706.488 303 c 0,25,26
 779.371 395 779.371 395 810.86 557 c 0,27,28
 842.35 719 842.35 719 805.233 811 c 0,29,30
 768.116 903 768.116 903 673.116 903 c 0,31,32
 578.116 903 578.116 903 506.233 811 c 0,33,34
 434.35 719 434.35 719 402.86 557 c 0,19,20
EndSplineSet
EndChar
StartChar: uni018D
Encoding: 397 397 397
Width: 1233
Flags: W
TeX: 117 0 0 0
Fore
847.658 53 m 1,0,0
 980.412 -10 980.412 -10 951.061 -161 c 0,32,33
 924.819 -296 924.819 -296 783.657 -374 c 0,30,31
 643.376 -451 643.376 -451 419.69 -451 c 0,28,29
 321.007 -451 321.007 -451 239.022 -439 c 0,26,27
 233.966 -438.26 233.966 -438.26 229.076 -437.48 c 0,24,25
 198.828 -432.68 198.828 -432.68 84.0205 -403 c 1,22,23
 125.812 -188 l 1,21,-1
 137.185 -191.72 137.185 -191.72 149.556 -196.02 c 0,19,20
 239.224 -227.15 239.224 -227.15 275.871 -234 c 0,17,18
 362.955 -249 362.955 -249 443.955 -249 c 0,15,16
 548.303 -249 548.303 -249 612.563 -215 c 1,13,14
 637.271 -200.1 l 1,11,12
 677.339 -175 677.339 -175 685.892 -131 c 0,9,10
 705.719 -29 705.719 -29 542.719 -29 c 16,0,0
 304.719 -29 304.719 -29 195.028 129.5 c 128,-1,17
 85.3369 288 85.3369 288 138.015 559 c 0,18,19
 190.691 830 190.691 830 362.001 988.5 c 128,-1,20
 533.31 1147 533.31 1147 771.31 1147 c 0,21,22
 1008.31 1147 1008.31 1147 1118 988.5 c 128,-1,23
 1227.69 830 1227.69 830 1175.01 559 c 0,12,13
 1123.94 296.27 1123.94 296.27 951.028 129.5 c 128,-1,14
 873.565 54.79 873.565 54.79 847.658 53 c 1,0,0
588.981 209 m 0,0,1
 693.981 209 693.981 209 771.961 301.5 c 128,-1,2
 849.941 394 849.941 394 882.015 559 c 0,3,4
 914.087 724 914.087 724 872.067 816.5 c 128,-1,5
 830.047 909 830.047 909 725.047 909 c 0,6,7
 619.047 909 619.047 909 541.067 816.5 c 128,-1,8
 463.087 724 463.087 724 431.015 559 c 0,9,10
 398.941 394 398.941 394 440.961 301.5 c 128,-1,11
 482.981 209 482.981 209 588.981 209 c 0,0,1
EndSplineSet
EndChar
StartChar: uni018E
Encoding: 398 398 398
Width: 1233
Flags: W
TeX: 117 0 0 0
Fore
22.8955 0 m 1,0,-1
 73.4336 260 l 1,11,-1
 708.434 260 l 1,10,-1
 784.437 651 l 1,9,-1
 209.437 651 l 1,8,-1
 259.976 911 l 1,7,-1
 834.976 911 l 1,6,-1
 897.566 1233 l 1,5,-1
 262.566 1233 l 1,4,-1
 313.104 1493 l 1,3,-1
 1243.1 1493 l 1,2,-1
 952.896 0 l 1,1,-1
 22.8955 0 l 1,0,-1
EndSplineSet
EndChar
StartChar: uni018F
Encoding: 399 399 399
Width: 1233
Flags: W
TeX: 117 0 0 0
Fore
850.567 840 m 1,0,1
 880.872 1036.43 880.872 1036.43 857.614 1134.5 c 0,2,3
 829.037 1255 829.037 1255 701.037 1255 c 0,4,5
 625.036 1255 625.036 1255 547.22 1222.5 c 0,6,7
 469.412 1190 469.412 1190 379.796 1120 c 1,8,-1
 443.552 1448 l 1,9,10
 520.56 1484 520.56 1484 601.049 1502 c 0,11,12
 681.548 1520 681.548 1520 766.548 1520 c 0,13,14
 1026.55 1520 1026.55 1520 1120.95 1324 c 0,15,16
 1215.35 1128 1215.35 1128 1140.9 745 c 0,17,18
 1066.65 363 1066.65 363 896.051 167 c 0,19,20
 725.452 -29 725.452 -29 465.452 -29 c 0,21,22
 206.452 -29 206.452 -29 112.051 167 c 0,23,24
 17.6494 363 17.6494 363 91.9023 745 c 2,25,-1
 110.369 840 l 1,26,-1
 850.567 840 l 1,0,1
372.826 580 m 1,27,28
 356.513 436.082 356.513 436.082 375.386 356.5 c 0,29,30
 403.963 236 403.963 236 516.963 236 c 0,31,32
 630.963 236 630.963 236 706.386 356.5 c 0,33,34
 756.198 436.082 756.198 436.082 795.834 580 c 1,35,-1
 372.826 580 l 1,27,28
EndSplineSet
EndChar
StartChar: uni0190
Encoding: 400 400 400
Width: 1233
Flags: W
TeX: 117 0 0 0
Fore
660.936 668 m 2,0,-1
 532.936 668 532.936 668 450.787 605.5 c 128,-1,40
 368.638 543 368.638 543 346.284 428 c 0,38,39
 328.013 334 328.013 334 387.225 278.5 c 128,-1,37
 446.437 223 446.437 223 566.437 223 c 0,35,36
 686.437 223 686.437 223 800.198 247.5 c 128,-1,34
 913.961 272 913.961 272 1017.1 319 c 1,32,33
 963.837 45 l 1,31,-1
 856.839 9 856.839 9 743.646 -10 c 128,-1,30
 630.452 -29 630.452 -29 517.452 -29 c 0,28,29
 252.452 -29 252.452 -29 135.611 85 c 128,-1,27
 18.7715 199 18.7715 199 60.9521 416 c 0,25,26
 92.4414 578 92.4414 578 195.782 677.5 c 128,-1,24
 299.123 777 299.123 777 464.565 805 c 1,22,23
 328.619 831 328.619 831 269.045 915.5 c 128,-1,21
 209.47 1000 209.47 1000 235.322 1133 c 0,19,20
 270.505 1314 270.505 1314 422.526 1417 c 128,-1,18
 574.548 1520 574.548 1520 810.548 1520 c 0,16,17
 902.548 1520 902.548 1520 999.34 1503.5 c 128,-1,15
 1096.13 1487 1096.13 1487 1193.11 1456 c 1,13,14
 1141.01 1188 l 1,12,-1
 1045.79 1228 1045.79 1228 953.87 1249 c 128,-1,11
 861.952 1270 861.952 1270 777.952 1270 c 0,9,10
 667.952 1270 667.952 1270 598.414 1223.5 c 128,-1,8
 528.875 1177 528.875 1177 512.741 1094 c 0,6,7
 497.386 1015 497.386 1015 549.43 971.5 c 128,-1,5
 601.475 928 601.475 928 711.475 928 c 2,3,4
 869.475 928 l 1,2,-1
 818.936 668 l 1,1,-1
 660.936 668 l 2,0,-1
EndSplineSet
EndChar
StartChar: uni0191
Encoding: 401 401 401
Width: 1233
Flags: W
TeX: 117 0 0 0
Fore
1260.52 1233 m 1,0,-1
 721.024 1233 l 1,1,-1
 658.435 911 l 1,2,-1
 1140.93 911 l 1,3,-1
 1090.4 651 l 1,4,-1
 607.896 651 l 1,5,-1
 514.01 168 l 1,6,-1
 489.712 43 l 1,7,-1
 481.354 0 l 2,8,9
 431.25 -216.441 431.25 -216.441 328.93 -316 c 0,10,11
 217.934 -424 217.934 -424 7.93652 -424 c 2,12,-1
 -78.0635 -424 l 1,13,-1
 -34.3281 -199 l 1,14,15
 69.8584 -199 69.8584 -199 121.363 -144 c 0,16,17
 168.047 -94.1475 168.047 -94.1475 194.703 42.9561 c 0,18,-1
 219.01 168 l 1,19,-1
 476.563 1493 l 1,20,-1
 1311.06 1493 l 1,21,-1
 1260.52 1233 l 1,0,-1
EndSplineSet
EndChar
StartChar: florin
Encoding: 402 402 402
Width: 1233
Flags: W
Fore
924.736 1218 m 2,0,-1
 905.687 1120 l 1,1,-1
 1249.69 1120 l 1,2,-1
 1205.95 895 l 1,3,-1
 861.951 895 l 1,4,-1
 687.98 0 l 2,5,6
 639.932 -216.651 639.932 -216.651 536.557 -316 c 0,7,8
 424.063 -424 424.063 -424 214.563 -424 c 2,9,-1
 -101.437 -424 l 1,10,-1
 -57.7012 -199 l 1,11,-1
 176.299 -199 l 2,12,13
 275.164 -199 275.164 -199 325.99 -144 c 0,14,15
 377.911 -87.8145 377.911 -87.8145 403.339 43 c 2,16,-1
 568.951 895 l 1,17,-1
 296.951 895 l 1,18,-1
 340.687 1120 l 1,19,-1
 612.687 1120 l 1,20,-1
 627.849 1198 l 2,21,22
 667.113 1400 667.113 1400 766.274 1478 c 0,23,24
 865.437 1556 865.437 1556 1093.44 1556 c 2,25,-1
 1334.44 1556 l 1,26,-1
 1290.7 1331 l 1,27,-1
 1061.7 1331 l 2,28,29
 950.647 1332.37 950.647 1332.37 924.736 1218 c 2,0,-1
EndSplineSet
EndChar
StartChar: uni0193
Encoding: 403 403 403
Width: 1233
Flags: W
TeX: 117 0 0 0
Fore
547.009 236 m 0,0,1
 640.009 236 640.009 236 688.618 270 c 1,2,-1
 744.017 555 l 1,3,-1
 542.017 555 l 1,4,-1
 590.223 803 l 1,5,-1
 1050.22 803 l 1,6,-1
 917.267 119 l 1,7,8
 716.169 -29 716.169 -29 481.498 -29 c 0,9,10
 191.498 -29 191.498 -29 72.666 172.5 c 0,11,12
 -46.167 374 -46.167 374 25.9482 745 c 0,13,14
 131.337 1287.18 131.337 1287.18 484.125 1453.29 c 0,15,16
 625.805 1520 625.805 1520 796.593 1520 c 0,17,18
 857.065 1520 857.065 1520 914.767 1508.3 c 1,19,20
 926.725 1522.56 926.725 1522.56 939.509 1535 c 0,21,22
 1050.5 1643 1050.5 1643 1260.5 1643 c 2,23,-1
 1357.5 1643 l 1,24,-1
 1313.77 1418 l 1,25,-1
 1298.77 1418 l 2,26,27
 1206.3 1418 1206.3 1418 1147.08 1363 c 0,28,29
 1097.05 1316.54 1097.05 1316.54 1069.74 1176.05 c 0,30,-1
 1053.79 1094 l 1,31,-1
 1051.19 1098.4 l 2,32,33
 957.529 1255 957.529 1255 766.082 1255 c 0,34,35
 450.618 1255 450.618 1255 344.793 800.589 c 0,36,37
 338.507 773.598 338.507 773.598 332.948 745 c 0,38,39
 252.928 333.33 252.928 333.33 448.959 253.537 c 0,40,41
 492.042 236 492.042 236 547.009 236 c 0,0,1
EndSplineSet
EndChar
StartChar: uni0194
Encoding: 404 404 404
Width: 1233
Flags: W
TeX: 0 0 0 0
Fore
598.223 510 m 1,3,-1
462.506 762 m 1,0,0
 206.198 1493 l 1,7,-1
 527.798 1493 l 1,8,-1
 695.901 1012 l 1,9,-1
 1050.2 1493 l 1,10,-1
 1373.4 1493 l 1,11,-1
 832.906 762 l 1,5,-1
 966.931 380.296 966.931 380.296 892.467 -14 c 0,0,0
 841.364 -285.237 841.364 -285.237 436.418 -290 c 0,0,0
 31.5186 -294.857 31.5186 -294.857 84.4668 -14 c 0,0,0
 150.109 335.34 150.109 335.34 462.506 762 c 1,0,0
598.322 510 m 1,0,0
 402.632 242.567 402.632 242.567 381.202 125.6 c 0,0,0
 358.189 -0.0126953 358.189 -0.0126953 494.389 0 c 16,0,0
 632.791 0.0146484 632.791 0.0146484 658.058 130 c 0,0,0
 687.001 278.899 687.001 278.899 598.322 510 c 1,0,0
EndSplineSet
EndChar
StartChar: uni0195
Encoding: 405 405 405
Width: 1233
Flags: W
TeX: 117 0 0 0
Fore
1180.58 569 m 2,0,1
 1135.4 316 1135.4 316 1000.69 158 c 0,2,3
 872.751 4 872.751 4 711.974 0 c 2,4,-1
 622.585 -2 l 2,5,6
 486.002 -5 486.002 -5 441.521 116 c 0,7,8
 394.819 241 394.819 241 436.389 460 c 2,9,-1
 487.288 727 l 2,10,11
 500.005 813 500.005 813 485.169 855 c 0,12,13
 468.276 907 468.276 907 405.276 907 c 0,14,15
 341.276 907 341.276 907 291.476 836 c 0,16,17
 241.869 766 241.869 766 217.571 641 c 2,18,-1
 92.9736 0 l 1,19,-1
 -139.026 0 l 1,20,-1
 163.43 1556 l 1,21,-1
 395.43 1556 l 1,22,-1
 278.023 952 l 1,23,24
 321.101 1045 321.101 1045 391.015 1096 c 0,25,26
 460.928 1147 460.928 1147 545.928 1147 c 0,27,28
 672.928 1147 672.928 1147 717.518 1042 c 0,29,30
 761.913 936 761.913 936 721.288 727 c 2,31,-1
 670.389 460 l 2,32,33
 639.149 289 639.149 289 642.206 279 c 0,34,35
 660.098 227 660.098 227 689.875 231 c 2,36,-1
 703.265 233 l 2,37,38
 793.791 246 793.791 246 853.119 330 c 0,39,40
 920.391 424 920.391 424 946.826 560 c 2,41,-1
 1019.91 936 l 1,42,-1
 1251.91 936 l 1,43,-1
 1180.58 569 l 2,0,1
EndSplineSet
EndChar
StartChar: uni0196
Encoding: 406 406 406
Width: 1233
Flags: W
TeX: 117 0 0 0
Fore
414.699 462 m 18,0,0
 371.385 237.674 371.385 237.674 457.832 118 c 0,13,14
 543.896 0 543.896 0 748.896 0 c 2,11,12
 982.896 0 l 1,10,-1
 1033.43 260 l 1,9,-1
 847.628 261 l 2,8,-1
 746.117 261.546 746.117 261.546 716.57 307 c 0,6,7
 687.512 353 687.512 353 715.113 495 c 10,0,0
 858.566 1233 l 17,4,-1
 1155.57 1233 l 1,3,-1
 1206.1 1493 l 1,2,-1
 317.104 1493 l 1,1,-1
 266.566 1233 l 1,0,-1
 563.566 1233 l 9,11,-1
 414.699 462 l 18,0,0
EndSplineSet
EndChar
StartChar: uni0197
Encoding: 407 407 407
Width: 1233
Flags: W
TeX: 117 0 0 0
Fore
266.566 1233 m 1,0,-1
 317.104 1493 l 1,1,-1
 1206.1 1493 l 1,2,-1
 1155.57 1233 l 1,3,-1
 858.566 1233 l 1,4,-1
 760.793 730 l 1,5,-1
 1007.79 730 l 1,6,-1
 970.472 538 l 1,7,-1
 723.472 538 l 1,8,-1
 669.434 260 l 1,9,-1
 966.434 260 l 1,10,-1
 915.896 0 l 1,11,-1
 26.8955 0 l 1,12,-1
 77.4336 260 l 1,13,-1
 374.434 260 l 1,14,-1
 428.472 538 l 1,15,-1
 181.472 538 l 1,16,-1
 218.793 730 l 1,17,-1
 465.793 730 l 1,18,-1
 563.566 1233 l 1,19,-1
 266.566 1233 l 1,0,-1
EndSplineSet
EndChar
StartChar: uni0198
Encoding: 408 408 408
Width: 1233
Flags: W
TeX: 117 0 0 0
Fore
824.688 1060 m 2,9,-1
 670.401 905 l 1,5,-1
 982.485 0 l 1,6,-1
 654.487 0 l 1,7,-1
 431.11 672 l 1,8,-1
 267.844 506 l 1,9,-1
 169.487 0 l 1,10,-1
 -125.513 0 l 1,11,-1
 164.696 1493 l 1,0,-1
 459.697 1493 l 1,1,-1
 345.013 903 l 1,2,-1
 664.631 1230 l 2,0,0
 880.847 1451.21 880.847 1451.21 1020.14 1478.6 c 128,-1,2
 1155.3 1505.18 1155.3 1505.18 1274.84 1392.04 c 2,3,-1
 1328.94 1340.84 l 1,4,-1
 1154.29 1165.09 l 1,6,7
 1089.54 1226.37 1089.54 1226.37 1018.57 1210.17 c 128,-1,8
 961.108 1197.05 961.108 1197.05 824.688 1060 c 2,9,-1
EndSplineSet
EndChar
StartChar: uni0199
Encoding: 409 409 409
Width: 1233
Flags: W
TeX: 117 0 0 0
Fore
234.452 1089 m 2,0,1
 283.01 1338.8 283.01 1338.8 395.234 1448 c 0,2,3
 506.232 1556 506.232 1556 716.228 1556 c 2,4,-1
 837.228 1556 l 1,5,-1
 793.492 1331 l 1,6,-1
 754.492 1331 l 2,7,8
 656.351 1331 656.351 1331 602.802 1276 c 0,9,10
 551.573 1223.38 551.573 1223.38 525.452 1089 c 1,11,-1
 527.452 1089 l 1,12,-1
 459.419 739 l 1,13,-1
 885.479 1120 l 1,14,-1
 1240.48 1120 l 1,15,-1
 735.228 702 l 1,16,-1
 1046.77 0 l 1,17,-1
 722.772 0 l 1,18,-1
 517.627 524 l 1,19,-1
 398.967 428 l 1,20,-1
 315.772 0 l 1,21,-1
 22.7725 0 l 1,22,-1
 210.154 964 l 1,23,-1
 234.452 1089 l 2,0,1
EndSplineSet
EndChar
StartChar: uni019A
Encoding: 410 410 410
Width: 1233
Flags: W
TeX: 117 0 0 0
Fore
685.141 753 m 1,0,-1
 869.141 753 l 1,1,-1
 831.819 561 l 1,2,-1
 647.819 561 l 1,3,-1
 637.819 561 l 1,4,-1
 619.548 467 l 2,5,6
 593.89 335 593.89 335 624.198 280 c 0,7,8
 654.508 225 654.508 225 752.508 225 c 2,9,-1
 986.508 225 l 1,10,-1
 942.772 0 l 1,11,-1
 626.772 0 l 2,12,13
 417.772 0 417.772 0 347.766 108 c 0,14,15
 277.758 216 277.758 216 326.548 467 c 2,16,-1
 344.819 561 l 1,17,-1
 176.819 561 l 1,18,-1
 214.141 753 l 1,19,-1
 382.141 753 l 1,20,-1
 494.492 1331 l 1,21,-1
 197.492 1331 l 1,22,-1
 241.228 1556 l 1,23,-1
 831.228 1556 l 1,24,-1
 675.141 753 l 1,25,-1
 685.141 753 l 1,0,-1
EndSplineSet
EndChar
StartChar: uni019B
Encoding: 411 411 411
Width: 1233
Flags: W
TeX: 117 0 0 0
Fore
911.842 1518 m 1,0,-1
 983.74 1358 l 1,1,-1
 722.481 1195.39 l 1,2,-1
 1001.77 0 l 1,3,-1
 704.772 0 l 1,4,-1
 565.502 596.085 l 1,5,-1
 225.772 0 l 1,6,-1
 -71.2275 0 l 1,7,-1
 479.244 965.278 l 1,8,-1
 463.188 1034 l 1,9,-1
 223.799 885 l 1,10,-1
 155.288 1047 l 1,11,-1
 421.438 1212.69 l 1,12,-1
 341.228 1556 l 1,13,-1
 638.228 1556 l 1,14,-1
 680.724 1374.12 l 1,15,-1
 911.842 1518 l 1,0,-1
EndSplineSet
EndChar
StartChar: uni019C
Encoding: 412 412 412
Width: 1233
Flags: W
TeX: 117 0 0 0
Fore
426.29 112 m 1,0,1
 379.489 41 379.489 41 321.88 7 c 128,-1,2
 264.271 -27 264.271 -27 190.271 -27 c 0,3,4
 45.2705 -27 45.2705 -27 9.20898 73 c 128,-1,5
 -26.8525 173 -26.8525 173 34.5713 489 c 2,6,-1
 229.729 1493 l 1,7,-1
 469.729 1493 l 1,8,-1
 257.466 401 l 2,9,10
 233.168 276 233.168 276 244.004 234 c 128,-1,11
 254.84 192 254.84 192 304.84 192 c 0,12,13
 354.84 192 354.84 192 383.198 235 c 128,-1,14
 411.557 278 411.557 278 435.466 401 c 2,15,-1
 647.729 1493 l 1,16,-1
 884.729 1493 l 1,17,-1
 672.466 401 l 2,18,19
 648.557 278 648.557 278 660.198 235 c 128,-1,20
 671.84 192 671.84 192 721.84 192 c 0,21,22
 771.84 192 771.84 192 799.004 234 c 128,-1,23
 826.168 276 826.168 276 850.466 401 c 2,24,-1
 1062.73 1493 l 1,25,-1
 1302.73 1493 l 1,26,-1
 1012.52 0 l 1,27,-1
 799.52 0 l 1,28,-1
 822.067 116 l 1,29,30
 784.238 50 784.238 50 721.755 11.5 c 128,-1,31
 659.271 -27 659.271 -27 591.271 -27 c 0,32,33
 523.271 -27 523.271 -27 475.144 13.5 c 128,-1,34
 427.016 54 427.016 54 426.29 112 c 1,0,1
EndSplineSet
EndChar
StartChar: uni019D
Encoding: 413 413 413
Width: 1233
Flags: W
TeX: 117 0 0 0
Fore
365.155 -0 m 1,0,1
 300.741 -284.361 300.741 -284.361 136.024 -374.342 c 0,2,3
 41.458 -426 41.458 -426 -108.008 -426 c 2,4,-1
 -156.008 -426 l 1,5,-1
 -112.272 -201 l 1,6,-1
 -52.2725 -201 l 2,7,8
 6.08691 -201 6.08691 -201 64.3066 -126 c 0,9,10
 86.9854 -96.7842 86.9854 -96.7842 113.768 41 c 2,11,-1
 396.008 1493 l 1,12,-1
 713.008 1493 l 1,13,-1
 918.105 408 l 1,14,-1
 1129.01 1493 l 1,15,-1
 1389.01 1493 l 1,16,-1
 1098.8 0 l 1,17,-1
 783.798 0 l 1,18,-1
 576.701 1085 l 1,19,-1
 365.798 0 l 1,20,-1
 365.155 -0 l 1,0,1
EndSplineSet
EndChar
StartChar: uni019E
Encoding: 414 414 414
Width: 1233
Flags: W
TeX: 117 0 0 0
Fore
1142.24 727 m 2,0,-1
 918.12 -426 l 1,1,-1
 627.12 -426 l 1,2,-1
 842.493 682 l 2,3,4
 866.208 804 866.208 804 841.913 856.5 c 128,-1,5
 817.617 909 817.617 909 739.617 909 c 0,6,7
 660.617 909 660.617 909 601.316 838 c 128,-1,8
 542.016 767 542.016 767 517.523 641 c 2,9,-1
 392.926 0 l 1,10,-1
 101.926 0 l 1,11,-1
 319.632 1120 l 1,12,-1
 610.632 1120 l 1,13,-1
 577.976 952 l 1,14,15
 627.054 1045 627.054 1045 711.967 1096 c 128,-1,16
 796.88 1147 796.88 1147 902.88 1147 c 0,17,18
 1061.88 1147 1061.88 1147 1122.37 1041.5 c 128,-1,19
 1182.87 936 1182.87 936 1142.24 727 c 2,0,-1
EndSplineSet
EndChar
StartChar: uni019F
Encoding: 415 415 415
Width: 1233
Flags: W
TeX: 117 0 0 0
Fore
465.452 -29 m 0,0,1
 96.9326 -29 96.9326 -29 62.5752 361.938 c 0,2,3
 48.5234 521.833 48.5234 521.833 91.9023 745 c 0,4,5
 213.879 1372.51 213.879 1372.51 586.141 1492.76 c 0,6,7
 670.477 1520 670.477 1520 766.548 1520 c 0,8,9
 1026.55 1520 1026.55 1520 1120.95 1324 c 0,10,11
 1215.35 1128 1215.35 1128 1140.9 745 c 0,12,13
 1016.4 104.511 1016.4 104.511 630.775 -6.59473 c 0,14,15
 553.009 -29 553.009 -29 465.452 -29 c 0,0,1
860.17 911 m 1,16,17
 880.458 1108.27 880.458 1108.27 837.753 1186.55 c 0,18,19
 800.408 1255 800.408 1255 715.037 1255 c 0,20,21
 566.897 1255 566.897 1255 480.858 1041.49 c 0,22,23
 460.496 990.958 460.496 990.958 437.17 911 c 1,24,-1
 860.17 911 l 1,16,17
813.631 651 m 1,25,-1
 382.631 651 l 1,26,27
 352.863 451.473 352.863 451.473 375.386 356.5 c 0,28,29
 403.963 236 403.963 236 516.963 236 c 0,30,31
 630.963 236 630.963 236 706.386 356.5 c 0,32,33
 764.53 449.395 764.53 449.395 813.631 651 c 1,25,-1
EndSplineSet
EndChar
StartChar: uni01A2
Encoding: 418 418 418
Width: 1233
Flags: W
TeX: 117 0 0 0
Fore
350.752 -29 m 0,0,1
 19.084 -29 19.084 -29 -4.2373 361.938 c 0,2,3
 -13.7764 521.833 -13.7764 521.833 29.6025 745 c 0,4,5
 153.9 1384.45 153.9 1384.45 501.49 1497.02 c 0,6,7
 572.443 1520 572.443 1520 651.848 1520 c 0,8,9
 860.064 1520 860.064 1520 947.261 1364.81 c 1,10,-1
 1065.1 1493 l 1,11,-1
 1348.6 1493 l 1,12,-1
 1058.39 0 l 1,13,-1
 824.39 0 l 1,14,-1
 1045.21 1136 l 1,15,-1
 899.335 975.9 l 1,16,-1
 742.101 167 l 1,17,18
 584.752 -29 584.752 -29 350.752 -29 c 0,0,1
305.902 745 m 0,19,20
 237.649 393.868 237.649 393.868 301.937 289.312 c 0,21,22
 334.716 236 334.716 236 402.264 236 c 0,23,24
 504.863 236 504.863 236 575.086 356.5 c 1,25,-1
 726.313 1134.5 l 1,26,27
 702.937 1255 702.937 1255 600.337 1255 c 0,28,29
 458.859 1255 458.859 1255 373.545 1010.55 c 0,30,31
 337.378 906.926 337.378 906.926 305.902 745 c 0,19,20
EndSplineSet
EndChar
StartChar: uni01A3
Encoding: 419 419 419
Width: 1233
Flags: W
TeX: 117 0 0 0
Fore
56.585 559 m 0,0,1
 109.262 830 109.262 830 280.571 988.5 c 0,2,3
 451.88 1147 451.88 1147 688.88 1147 c 0,4,5
 843.801 1147 843.801 1147 947.44 1023.49 c 1,6,-1
 1097.91 1124 l 1,7,-1
 1381.41 1124 l 1,8,-1
 1080.12 -426 l 1,9,-1
 846.12 -426 l 1,10,-1
 1085.21 804 l 1,11,-1
 916.066 690.094 l 1,12,-1
 807.099 129.5 l 1,13,14
 635.789 -29 635.789 -29 460.289 -29 c 0,15,16
 223.289 -29 223.289 -29 113.599 129.5 c 0,17,18
 3.90723 288 3.90723 288 56.585 559 c 0,0,1
642.617 909 m 0,19,20
 537.617 909 537.617 909 459.638 816.5 c 0,21,22
 381.657 724 381.657 724 349.585 559 c 0,23,24
 317.512 394 317.512 394 359.531 301.5 c 0,25,26
 401.552 209 401.552 209 506.552 209 c 0,27,28
 550.052 209 550.052 209 628.031 301.5 c 1,29,-1
 728.138 816.5 l 1,30,31
 686.117 909 686.117 909 642.617 909 c 0,19,20
EndSplineSet
EndChar
StartChar: uni01A4
Encoding: 420 420 420
Width: 1233
Flags: W
TeX: 117 0 0 0
Fore
721.898 1245 m 1,0,-1
 636.76 807 l 1,1,-1
 655.76 807 l 2,2,3
 800.76 807 800.76 807 868.784 856 c 0,4,5
 936.81 905 936.81 905 960.329 1026 c 0,6,7
 983.85 1147 983.85 1147 934.874 1196 c 0,8,9
 885.898 1245 885.898 1245 740.898 1245 c 2,10,-1
 721.898 1245 l 1,0,-1
419.317 1206 m 1,11,12
 390.271 1206 390.271 1206 371.932 1168 c 0,13,14
 346.75 1115.83 346.75 1115.83 341.341 1088.18 c 2,15,-1
 336.716 1064 l 1,16,-1
 81.7158 1064 l 1,17,-1
 96.6826 1141 l 2,18,19
 125.889 1291.25 125.889 1291.25 187.627 1361.26 c 0,20,21
 283.369 1469.83 283.369 1469.83 423.491 1489.41 c 0,22,23
 449.201 1493 449.201 1493 475.104 1493 c 2,24,-1
 778.104 1493 l 2,25,26
 1087.1 1493 1087.1 1493 1201.22 1383 c 0,27,28
 1315.34 1273 1315.34 1273 1267.33 1026 c 0,29,30
 1219.32 779 1219.32 779 1062.44 669 c 0,31,32
 905.554 559 905.554 559 596.554 559 c 2,33,-1
 588.554 559 l 1,34,-1
 479.896 0 l 1,35,-1
 184.896 0 l 1,36,-1
 419.317 1206 l 1,11,12
EndSplineSet
EndChar
StartChar: uni01A5
Encoding: 421 421 421
Width: 1233
Flags: W
TeX: 117 0 0 0
Fore
849.223 561 m 0,0,1
 880.712 723 880.712 723 844.595 815 c 0,2,3
 808.479 907 808.479 907 713.479 907 c 0,4,5
 618.479 907 618.479 907 545.595 815 c 0,6,7
 472.712 723 472.712 723 441.223 561 c 0,8,9
 409.732 399 409.732 399 446.85 307 c 0,10,11
 483.967 215 483.967 215 578.967 215 c 0,12,13
 673.967 215 673.967 215 745.85 307 c 0,14,15
 817.732 399 817.732 399 849.223 561 c 0,0,1
613.538 -29 m 0,16,17
 433.964 -29 433.964 -29 362.888 158 c 1,18,-1
 249.369 -426 l 1,19,-1
 -42.6309 -426 l 1,20,-1
 247.784 1063 l 1,21,-1
 246.802 1063 l 1,22,-1
 252.855 1089 l 2,23,24
 313.834 1350.89 313.834 1350.89 413.638 1448 c 0,25,26
 524.632 1556 524.632 1556 734.631 1556 c 2,27,-1
 855.631 1556 l 1,28,-1
 811.896 1331 l 1,29,-1
 772.896 1331 l 2,30,31
 677.726 1331 677.726 1331 621.204 1276 c 0,32,33
 577.492 1233.46 577.492 1233.46 543.855 1089 c 1,34,-1
 544.855 1089 l 1,35,-1
 517.226 952 l 1,36,37
 647.604 1147 647.604 1147 852.129 1147 c 0,38,39
 1044.13 1147 1044.13 1147 1120.19 993 c 0,40,41
 1196.26 839 1196.26 839 1141.83 559 c 0,42,43
 1059.26 134.188 1059.26 134.188 804.583 13.3525 c 0,44,45
 715.32 -29 715.32 -29 613.538 -29 c 0,16,17
EndSplineSet
EndChar
StartChar: uni01A6
Encoding: 422 422 422
Width: 1233
Flags: W
TeX: 117 0 0 0
Fore
775.802 467 m 1,0,1
 818.053 458 818.053 458 844.022 425.764 c 0,2,3
 869.992 393.528 869.992 393.528 899.146 299 c 2,3,-1
 1064.76 -238 l 1,4,-1
 740.764 -238 l 1,5,-1
 621.598 183 l 2,8,9
 575.448 352 575.448 352 468.448 352 c 2,10,-1
 374.448 352 l 1,11,-1
 306.026 0 l 1,12,-1
 11.0264 0 l 1,13,-1
 301.236 1493 l 1,14,-1
 596.236 1493 l 1,0,0
 549.974 1255 l 1,0,0
 680.974 1255 l 2,15,16
 968.974 1255 968.974 1255 1074.65 1153 c 128,-1,17
 1148.9 1081.32 1148.9 1081.32 1148.9 946.443 c 0,0,0
 1148.9 889.378 1148.9 889.378 1135.61 821 c 0,18,19
 1105.68 667 1105.68 667 1012.99 576 c 128,-1,20
 920.301 485 920.301 485 775.802 467 c 1,0,1
501.768 1007 m 1,21,-1
 422.654 600 l 1,22,-1
 561.654 600 l 2,23,24
 682.654 600 682.654 600 744.388 647.5 c 128,-1,25
 806.121 695 806.121 695 827.309 804 c 0,26,27
 834.317 840.056 834.317 840.056 834.317 884.301 c 0,0,0
 834.317 1007 834.317 1007 640.768 1007 c 2,29,-1
 501.768 1007 l 1,21,-1
EndSplineSet
EndChar
StartChar: uni01A7
Encoding: 423 423 423
Width: 1233
Flags: W
TeX: 117 0 0 0
Fore
711.408 655 m 2,0,1
 555.718 600 l 2,39,-1
 474.081 571 474.081 571 424.265 520.5 c 128,-1,38
 374.448 470 374.448 470 361.425 403 c 0,36,37
 344.125 314 344.125 314 394.503 264.5 c 128,-1,35
 444.881 215 444.881 215 553.881 215 c 0,33,34
 661.881 215 661.881 215 780.351 256 c 128,-1,32
 898.82 297 898.82 297 1033.15 381 c 1,30,31
 973.862 76 l 1,29,-1
 859.755 24 859.755 24 743.104 -2.5 c 128,-1,28
 626.452 -29 626.452 -29 515.452 -29 c 0,26,27
 245.452 -29 245.452 -29 133.626 82.5 c 128,-1,25
 21.7988 194 21.7988 194 65.7295 420 c 0,23,24
 97.9961 586 97.9961 586 204.184 695 c 128,-1,22
 310.371 804 310.371 804 503.2 870 c 2,20,21
 639.53 918 l 2,19,-1
 781.056 967 781.056 967 830.428 1007.5 c 128,-1,18
 879.8 1048 879.8 1048 891.852 1110 c 0,16,17
 907.402 1190 907.402 1190 858.761 1233 c 128,-1,15
 810.119 1276 810.119 1276 703.119 1276 c 0,13,14
 607.119 1276 607.119 1276 502.315 1241 c 128,-1,12
 397.512 1206 397.512 1206 289.488 1139 c 1,10,11
 345.47 1427 l 1,9,-1
 455.412 1473 455.412 1473 562.979 1496.5 c 128,-1,8
 670.548 1520 670.548 1520 773.548 1520 c 0,6,7
 1000.55 1520 1000.55 1520 1108 1404 c 128,-1,5
 1215.45 1288 1215.45 1288 1175.99 1085 c 0,3,4
 1145.28 927 1145.28 927 1048.11 833.5 c 128,-1,2
 950.931 740 950.931 740 711.408 655 c 2,0,1
EndSplineSet
EndChar
StartChar: uni01A8
Encoding: 424 424 424
Width: 1233
Flags: W
TeX: 117 0 0 0
Fore
350.244 1085 m 1,0,-1
 445.27 1116 445.27 1116 542.783 1131.5 c 128,-1,39
 640.296 1147 640.296 1147 735.296 1147 c 0,37,38
 947.296 1147 947.296 1147 1046.8 1057 c 128,-1,36
 1146.31 967 1146.31 967 1114.82 805 c 0,34,35
 1088.38 669 1088.38 669 995.637 588 c 128,-1,33
 902.893 507 902.893 507 727.506 469 c 2,31,32
 643.007 451 l 2,30,-1
 495.398 417 495.398 417 452.066 387 c 128,-1,29
 408.735 357 408.735 357 397.85 301 c 0,27,28
 386.771 244 386.771 244 433.938 214 c 128,-1,26
 481.107 184 481.107 184 584.107 184 c 0,24,25
 678.107 184 678.107 184 784.244 213 c 128,-1,23
 890.382 242 890.382 242 998.072 297 c 1,21,22
 948.311 41 l 1,20,-1
 832.508 6 832.508 6 723.106 -11.5 c 128,-1,19
 613.704 -29 613.704 -29 512.704 -29 c 0,17,18
 284.704 -29 284.704 -29 188.019 57.5 c 128,-1,16
 91.332 144 91.332 144 124.96 317 c 0,14,15
 152.951 461 152.951 461 243.876 545.5 c 128,-1,13
 334.801 630 334.801 630 502.188 668 c 2,11,12
 590.075 688 l 1,10,-1
 601.658 691 l 2,9,-1
 825.377 741 825.377 741 840.928 821 c 0,7,8
 851.812 877 851.812 877 807.353 905.5 c 128,-1,6
 762.893 934 762.893 934 664.893 934 c 0,4,5
 576.893 934 576.893 934 484.241 907.5 c 128,-1,3
 391.591 881 391.591 881 300.482 829 c 1,1,2
 350.244 1085 l 1,0,-1
EndSplineSet
EndChar
StartChar: uni01AA
Encoding: 426 426 426
Width: 1233
Flags: W
TeX: 117 0 0 0
Fore
879.834 987 m 1,0,-1
 671.264 -86 l 2,29,-1
 658.727 -150.5 658.727 -150.5 679.964 -175 c 0,27,28
 700.768 -199 700.768 -199 764.299 -199 c 2,25,26
 993.299 -199 l 1,24,-1
 949.563 -424 l 1,23,-1
 708.563 -424 l 2,22,-1
 480.563 -424 480.563 -424 411.726 -346 c 0,20,21
 342.887 -268 342.887 -268 382.151 -66 c 2,18,19
 586.834 987 l 1,17,-1
 451.834 987 l 2,16,-1
 144.284 987 144.284 987 194.483 1263 c 0,14,15
 245.787 1545.08 245.787 1545.08 549.23 1554.94 c 1,12,13
 549.437 1556 l 1,11,-1
 599.437 1556 l 2,10,-1
 808.937 1556 808.937 1556 879.443 1448 c 0,8,9
 937.396 1359.08 937.396 1359.08 918.427 1198 c 1,6,7
 1055.85 1198 l 2,5,-1
 1171.85 1198 1171.85 1198 1227.65 1197 c 1,3,4
 1186.83 987 l 1,2,-1
 1018.83 987 l 1,1,-1
 879.834 987 l 1,0,-1
618.287 1197.09 m 1,30,31
 617.699 1246.7 617.699 1246.7 602.01 1276 c 0,38,39
 572.976 1330.23 572.976 1330.23 476.444 1330.99 c 0,36,37
 411.963 1325.98 411.963 1325.98 402.427 1273 c 0,34,35
 388.748 1197 388.748 1197 493.654 1197 c 0,32,33
 565.755 1197 565.755 1197 618.287 1197.09 c 1,30,31
476.581 1331 m 2,40,41
 505.701 1331 l 1,42,-1
 476.581 1331 l 2,40,41
EndSplineSet
EndChar
StartChar: uni01AB
Encoding: 427 427 427
Width: 1233
Flags: W
TeX: 117 0 0 0
Fore
969.519 1438 m 1,0,-1
 907.706 1120 l 1,1,-1
 1290.71 1120 l 1,2,-1
 1246.97 895 l 1,3,-1
 863.971 895 l 1,4,-1
 760.949 365 l 2,5,6
 746.37 290 746.37 290 776.553 257.5 c 0,7,8
 806.735 225 806.735 225 891.735 225 c 2,9,-1
 1116.74 225 l 1,10,-1
 1081.36 43 l 1,11,-1
 1073 0 l 1,12,-1
 1072.26 0 l 1,13,14
 1023.06 -214.342 1023.06 -214.342 918.576 -316 c 0,15,16
 807.583 -424 807.583 -424 597.583 -424 c 2,17,-1
 476.583 -424 l 1,18,-1
 520.318 -199 l 1,19,-1
 559.318 -199 l 2,20,21
 657.46 -199 657.46 -199 711.009 -144 c 0,22,23
 753.764 -100.087 753.764 -100.087 779.03 0.783203 c 1,24,25
 567.766 7.93945 567.766 7.93945 501.647 80.5 c 0,26,27
 428.295 161 428.295 161 470.67 379 c 2,28,-1
 570.971 895 l 1,29,-1
 284.971 895 l 1,30,-1
 328.706 1120 l 1,31,-1
 614.706 1120 l 1,32,-1
 676.519 1438 l 1,33,-1
 969.519 1438 l 1,0,-1
EndSplineSet
EndChar
StartChar: uni01AC
Encoding: 428 428 428
Width: 1233
Flags: W
TeX: 117 0 0 0
Fore
485.149 1237 m 1,0,0
 563.761 1235 l 1,2,-1
 323.701 0 l 1,1,-1
 618.701 0 l 1,0,-1
 858.761 1235 l 1,7,-1
 1237.76 1235 l 1,6,-1
 1287.91 1493 l 1,5,-1
 535.299 1495 l 1,4,-1
 582.362 1490.18 582.362 1490.18 477.842 1490.18 c 0,27,28
 354.696 1490.18 354.696 1490.18 249.457 1413.5 c 0,25,26
 211.002 1385.48 211.002 1385.48 188.433 1361.26 c 0,23,24
 127.617 1296 127.617 1296 97.4883 1141 c 2,21,22
 82.5215 1064 l 1,20,-1
 337.521 1064 l 1,19,-1
 344.016 1097.41 344.016 1097.41 347.403 1110.9 c 0,17,18
 367.566 1183.21 367.566 1183.21 401.067 1216 c 0,15,16
 420.747 1235.26 420.747 1235.26 464.781 1236.45 c 2,13,14
 466.494 1237 466.494 1237 485.149 1237 c 1,0,0
EndSplineSet
EndChar
StartChar: uni01AD
Encoding: 429 429 429
Width: 1233
Flags: W
TeX: 117 0 0 0
Fore
465.479 1120 m 1,0,1
 508.009 1338.8 508.009 1338.8 620.234 1448 c 0,2,3
 721.097 1546.14 721.097 1546.14 899.187 1554.99 c 0,4,5
 919.492 1556 919.492 1556 941.228 1556 c 2,6,-1
 1062.23 1556 l 1,7,-1
 1018.49 1331 l 1,8,-1
 979.492 1331 l 2,9,10
 881.35 1331 881.35 1331 827.802 1276 c 0,11,12
 776.574 1223.38 776.574 1223.38 756.479 1120 c 1,13,-1
 1139.48 1120 l 1,14,-1
 1095.74 895 l 1,15,-1
 712.742 895 l 1,16,-1
 609.721 365 l 2,17,18
 595.143 290 595.143 290 625.325 257.5 c 0,19,20
 655.508 225 655.508 225 740.508 225 c 2,21,-1
 965.508 225 l 1,22,-1
 921.772 0 l 1,23,-1
 675.772 0 l 2,24,25
 423.772 0 423.772 0 350.42 80.5 c 0,26,27
 277.067 161 277.067 161 319.442 379 c 2,28,-1
 419.742 895 l 1,29,-1
 133.742 895 l 1,30,-1
 177.479 1120 l 1,31,-1
 465.479 1120 l 1,0,1
EndSplineSet
EndChar
StartChar: uni01AE
Encoding: 430 430 430
Width: 1233
Flags: W
TeX: 117 0 0 0
Fore
369.941 -0 m 1,0,-1
 365.298 0 l 1,1,-1
 605.357 1235 l 1,2,-1
 226.357 1235 l 1,3,-1
 276.508 1493 l 1,4,-1
 1329.51 1493 l 1,5,-1
 1279.36 1235 l 1,6,-1
 900.357 1235 l 1,7,-1
 668.268 41 l 2,8,9
 642.146 -93.3838 642.146 -93.3838 672.919 -146 c 0,10,11
 705.085 -201 705.085 -201 803.228 -201 c 2,12,-1
 842.228 -201 l 1,13,-1
 798.492 -426 l 1,14,-1
 677.492 -426 l 2,15,16
 467.495 -426 467.495 -426 398.485 -318 c 0,17,18
 334.575 -217.982 334.575 -217.982 369.941 -0 c 1,0,-1
EndSplineSet
EndChar
StartChar: uni01B1
Encoding: 433 433 433
Width: 1233
Flags: W
TeX: 117 0 0 0
Fore
1243.88 1249 m 1,0,-1
 1005.88 1249 l 1,1,2
 1104.7 1140 1104.7 1140 1132.36 1004.5 c 128,-1,3
 1160.02 869 1160.02 869 1122.89 678 c 0,4,5
 1062.25 366 1062.25 366 887.174 183 c 128,-1,6
 712.103 0 712.103 0 477.103 0 c 0,7,8
 240.103 0 240.103 0 134.674 183 c 128,-1,9
 29.2451 366 29.2451 366 89.8926 678 c 0,10,11
 127.019 869 127.019 869 207.357 1004.5 c 128,-1,12
 287.696 1140 287.696 1140 428.884 1249 c 1,13,-1
 190.884 1249 l 1,14,-1
 231.897 1460 l 1,15,-1
 702.897 1460 l 1,16,-1
 650.804 1192 l 1,17,18
 554.447 1113 554.447 1113 492.705 996 c 128,-1,19
 430.963 879 430.963 879 398.501 712 c 0,20,21
 356.903 498 356.903 498 390.355 382 c 128,-1,22
 423.808 266 423.808 266 526.808 266 c 0,23,24
 628.808 266 628.808 266 707.855 382 c 128,-1,25
 786.903 498 786.903 498 828.501 712 c 0,26,27
 860.769 878 860.769 878 843.803 996.5 c 128,-1,28
 826.836 1115 826.836 1115 759.804 1192 c 1,29,-1
 811.897 1460 l 1,30,-1
 1284.9 1460 l 1,31,-1
 1243.88 1249 l 1,0,-1
EndSplineSet
EndChar
StartChar: uni01B2
Encoding: 434 434 434
Width: 1233
Flags: W
TeX: 117 0 0 0
Fore
797.322 707 m 0,0,1
 861.055 1034.88 861.055 1034.88 728.625 1187 c 1,2,-1
 739.704 1244 l 1,3,-1
 974.704 1244 l 1,4,5
 1073.52 1135 1073.52 1135 1101.18 999.5 c 0,6,7
 1128.84 864 1128.84 864 1091.71 673 c 0,8,9
 1031.07 361 1031.07 361 855.995 178 c 0,10,11
 685.707 0 685.707 0 396.896 0 c 0,12,13
 144.11 0 144.11 0 73.3154 175.604 c 0,14,15
 28.7461 286.156 28.7461 286.156 62.6992 462 c 2,16,-1
 211.566 1233 l 1,17,-1
 262.104 1493 l 1,18,-1
 557.104 1493 l 1,19,-1
 363.113 495 l 2,20,21
 335.512 353 335.512 353 364.57 307 c 0,22,23
 394.117 261.546 394.117 261.546 495.628 261 c 0,24,25
 649.299 261 649.299 261 742.634 508.789 c 0,26,27
 776.024 597.436 776.024 597.436 797.322 707 c 0,0,1
EndSplineSet
EndChar
StartChar: uni01B3
Encoding: 435 435 435
Width: 1233
Flags: W
TeX: 117 0 0 0
Fore
986.729 1026 m 2,0,-1
 695.146 588 l 1,1,-1
 580.851 0 l 1,2,-1
 285.851 0 l 1,3,-1
 400.146 588 l 1,4,-1
 147.346 1493 l 1,5,-1
 449.445 1493 l 1,6,-1
 608.317 893 l 1,7,-1
 746.551 1104 l 2,8,9
 956.082 1423.83 956.082 1423.83 1002.74 1452.02 c 0,10,11
 1154.36 1543.62 1154.36 1543.62 1308.18 1466.72 c 2,12,-1
 1363.65 1438.99 l 1,13,-1
 1258.81 1224 l 1,14,15
 1232 1242.82 1232 1242.82 1178.51 1241 c 0,16,17
 1128.73 1239.31 1128.73 1239.31 986.729 1026 c 2,0,-1
EndSplineSet
EndChar
StartChar: uni01B4
Encoding: 436 436 436
Width: 1233
Flags: W
TeX: 117 0 0 0
Fore
989.554 664 m 2,0,-1
 559.231 -121 l 2,1,2
 393.13 -424 393.13 -424 158.334 -424 c 2,3,-1
 -83.666 -424 l 1,4,-1
 -40.3193 -201 l 1,5,-1
 78.6807 -201 l 2,6,7
 168.681 -201 168.681 -201 216.609 -170.5 c 0,8,9
 264.538 -140 264.538 -140 329.114 -29 c 2,10,-1
 362.777 31 l 1,11,-1
 179.361 1120 l 1,12,-1
 471.961 1120 l 1,13,-1
 573.846 393 l 1,14,-1
 754.446 744 l 2,15,16
 899.205 1025.34 899.205 1025.34 993.202 1084.29 c 0,17,18
 1087.53 1143.44 1087.53 1143.44 1299.52 1105.19 c 2,19,-1
 1349.1 1096.24 l 1,20,-1
 1248.01 880 l 1,21,22
 1161.02 915.206 1161.02 915.206 1097.91 836 c 0,23,24
 1052.83 779.428 1052.83 779.428 989.554 664 c 2,0,-1
EndSplineSet
EndChar
StartChar: uni01B5
Encoding: 437 437 437
Width: 1233
Flags: W
TeX: 117 0 0 0
Fore
282.104 1493 m 1,0,-1
 1292.1 1493 l 1,1,-1
 1244.68 1249 l 1,2,-1
 780.65 730 l 1,3,-1
 1007.79 730 l 1,4,-1
 970.472 538 l 1,5,-1
 608.987 538 l 1,6,-1
 360.434 260 l 1,7,-1
 1066.43 260 l 1,8,-1
 1015.9 0 l 1,9,-1
 -30.1045 0 l 1,10,-1
 17.3242 244 l 1,11,-1
 273.939 538 l 1,12,-1
 181.472 538 l 1,13,-1
 218.793 730 l 1,14,-1
 441.525 730 l 1,15,-1
 880.566 1233 l 1,16,-1
 231.566 1233 l 1,17,-1
 282.104 1493 l 1,0,-1
EndSplineSet
EndChar
StartChar: uni01B6
Encoding: 438 438 438
Width: 1233
Flags: W
TeX: 117 0 0 0
Fore
289.853 1120 m 1,0,-1
 1184.85 1120 l 1,1,-1
 1140.34 891 l 1,2,-1
 862.985 632 l 1,3,-1
 1017.5 632 l 1,4,-1
 979.785 438 l 1,5,-1
 655.236 438 l 1,6,-1
 420.717 219 l 1,7,-1
 1009.72 219 l 1,8,-1
 967.147 0 l 1,9,-1
 48.1475 0 l 1,10,-1
 92.6602 229 l 1,11,-1
 316.782 438 l 1,12,-1
 205.785 438 l 1,13,-1
 243.495 632 l 1,14,-1
 524.819 632 l 1,15,-1
 813.283 901 l 1,16,-1
 247.283 901 l 1,17,-1
 289.853 1120 l 1,0,-1
EndSplineSet
EndChar
StartChar: uni01B7
Encoding: 439 439 439
Width: 1233
Flags: W
TeX: 117 0 0 0
Fore
1163.23 425 m 0,0,1
 1108.64 144.179 1108.64 144.179 846.294 35.374 c 0,2,3
 693.489 -28 693.489 -28 475.174 -28 c 0,4,5
 137.079 -28 137.079 -28 28.7217 88 c 0,6,7
 -90.4746 215.604 -90.4746 215.604 -47.0508 439 c 1,8,-1
 270.949 439 l 1,9,10
 250.062 331.543 250.062 331.543 336.013 274.547 c 0,11,12
 397.159 234 397.159 234 495.102 234 c 0,13,14
 729.858 234 729.858 234 799.688 380.114 c 0,15,16
 812.861 407.679 812.861 407.679 818.949 439 c 0,17,18
 853.751 618.038 853.751 618.038 634.158 642.333 c 0,19,20
 601.012 646 601.012 646 562.187 646 c 2,21,-1
 307.187 646 l 1,22,-1
 349.561 864 l 1,23,-1
 793.287 1233 l 1,24,-1
 227.287 1233 l 1,25,-1
 277.826 1493 l 1,26,-1
 1287.83 1493 l 1,27,-1
 1240.4 1249 l 1,28,-1
 761.451 848 l 1,29,30
 904.229 839.029 904.229 839.029 978.23 816 c 0,31,32
 1078.84 784.689 1078.84 784.689 1132.87 684.836 c 0,33,34
 1192.36 574.886 1192.36 574.886 1163.23 425 c 0,0,1
EndSplineSet
EndChar
StartChar: uni01B8
Encoding: 440 440 440
Width: 1233
Flags: W
TeX: 117 0 0 0
Fore
544.102 234 m 0,0,1
 685.575 234 685.575 234 774.271 312.495 c 0,2,3
 833.558 364.963 833.558 364.963 847.949 439 c 1,4,-1
 1165.95 439 l 1,5,6
 1122.53 215.604 1122.53 215.604 953.722 88 c 0,7,8
 800.269 -28 800.269 -28 462.174 -28 c 0,9,10
 4.05078 -28 4.05078 -28 -52.6113 245.93 c 0,11,12
 -69.0918 325.606 -69.0918 325.606 -49.7715 425 c 0,13,14
 -21.9756 568 -21.9756 568 68.8516 670 c 0,15,16
 169.839 783.41 169.839 783.41 287.23 816 c 0,17,18
 370.185 839.029 370.185 839.029 516.451 848 c 1,19,-1
 193.397 1249 l 1,20,-1
 240.826 1493 l 1,21,-1
 1250.83 1493 l 1,22,-1
 1200.29 1233 l 1,23,-1
 634.287 1233 l 1,24,-1
 934.561 864 l 1,25,-1
 892.187 646 l 1,26,-1
 637.187 646 l 2,27,28
 340.187 646 340.187 646 299.949 439 c 0,29,30
 272.919 299.942 272.919 299.942 401.8 254.14 c 0,31,32
 458.47 234 458.47 234 544.102 234 c 0,0,1
EndSplineSet
EndChar
StartChar: uni01B9
Encoding: 441 441 441
Width: 1233
Flags: W
TeX: 117 0 0 0
Fore
943.771 452 m 1,21,-1
 901.396 234 l 1,20,-1
 733.396 234 l 2,19,-1
 586.396 234 586.396 234 501.288 182 c 128,-1,18
 415.985 129 415.985 129 396.159 27 c 0,16,17
 376.915 -72 376.915 -72 439.613 -125 c 128,-1,15
 502.311 -178 502.311 -178 640.311 -178 c 0,13,14
 733.311 -178 733.311 -178 834.754 -150 c 128,-1,12
 936.002 -123 936.002 -123 1043.5 -69 c 1,10,11
 985.768 -366 l 1,9,-1
 876.575 -403 876.575 -403 768.882 -422 c 128,-1,8
 661.384 -440 661.384 -440 558.384 -440 c 0,6,7
 264.384 -440 264.384 -440 133.932 -324 c 128,-1,5
 3.28516 -209 3.28516 -209 46.4375 13 c 0,3,4
 74.2344 156 74.2344 156 165.061 258 c 128,-1,2
 264.025 371 264.025 371 383.44 404 c 0,0,1
 465.911 427 465.911 427 612.66 436 c 1,0,0
 310.104 891 l 1,2,-1
 354.616 1120 l 1,1,-1
 1249.62 1120 l 1,0,-1
 1207.05 901 l 1,9,-1
 641.047 901 l 1,8,-1
 943.771 452 l 1,21,-1
EndSplineSet
EndChar
StartChar: uni01BB
Encoding: 443 443 443
Width: 1233
Flags: W
TeX: 117 0 0 0
Fore
336.81 260 m 1,0,-1
 965.81 260 l 1,1,-1
 915.271 0 l 1,2,-1
 -32.7295 0 l 1,3,-1
 16.2549 252 l 1,4,-1
 209.3 422 l 1,5,-1
 340.745 538 l 1,6,-1
 178.848 538 l 1,7,-1
 216.169 730 l 1,8,-1
 556.541 730 l 1,9,-1
 627.804 795 l 2,10,11
 719.572 881.076 719.572 881.076 765.446 947.5 c 0,12,13
 811.373 1014 811.373 1014 824.007 1079 c 0,14,15
 843.445 1179 843.445 1179 793.539 1233.5 c 0,16,17
 743.633 1288 743.633 1288 632.633 1288 c 0,18,19
 553.633 1288 553.633 1288 449.01 1256.5 c 0,20,21
 344.387 1225 344.387 1225 225.724 1165 c 1,22,-1
 279.179 1440 l 1,23,24
 393.76 1479 393.76 1479 500.244 1499.5 c 0,25,26
 606.729 1520 606.729 1520 700.729 1520 c 0,27,28
 937.729 1520 937.729 1520 1051.75 1409.5 c 0,29,30
 1165.77 1299 1165.77 1299 1128.64 1108 c 0,31,32
 1111.54 1020 1111.54 1020 1067.07 943 c 0,33,34
 1022.6 866 1022.6 866 932.333 772 c 0,35,36
 916.572 755.815 916.572 755.815 888.459 730 c 1,37,-1
 1005.17 730 l 1,38,-1
 967.848 538 l 1,39,-1
 720.848 538 l 1,40,-1
 667.461 538 l 1,41,-1
 581.853 466 l 1,42,-1
 336.81 260 l 1,0,-1
EndSplineSet
EndChar
StartChar: uni01BC
Encoding: 444 444 444
Width: 1233
Flags: W
TeX: 117 0 0 0
Fore
307.187 646 m 1,0,-1
 165.187 646 l 1,1,-1
 329.826 1493 l 1,2,-1
 1259.83 1493 l 1,3,-1
 1209.29 1233 l 1,4,-1
 574.287 1233 l 1,5,-1
 505.671 880 l 1,6,-1
 767.671 880 l 2,7,8
 883.19 880 883.19 880 1012.23 816 c 0,9,10
 1081.51 786.285 1081.51 786.285 1139.85 670 c 0,11,12
 1191.02 567.998 1191.02 567.998 1163.23 425 c 0,13,14
 1120.17 203.499 1120.17 203.499 944.722 88 c 0,15,16
 768.511 -28 768.511 -28 475.174 -28 c 0,17,18
 137.079 -28 137.079 -28 28.7217 88 c 0,19,20
 -90.4746 215.604 -90.4746 215.604 -47.0508 439 c 1,21,-1
 270.949 439 l 1,22,23
 252.42 343.674 252.42 343.674 320.403 287 c 0,24,25
 383.98 234 383.98 234 495.102 234 c 0,26,27
 633.102 234 633.102 234 716.403 287 c 0,28,29
 799.706 340 799.706 340 818.949 439 c 0,30,31
 838.776 541 838.776 541 774.078 594 c 0,32,33
 709.187 646 709.187 646 562.187 646 c 2,34,-1
 460.187 646 l 1,35,-1
 307.187 646 l 1,0,-1
EndSplineSet
EndChar
StartChar: uni01BD
Encoding: 445 445 445
Width: 1233
Flags: W
TeX: 117 0 0 0
Fore
641.771 452 m 2,0,1
 777.771 452 777.771 452 888.44 404 c 0,2,3
 985.34 360.374 985.34 360.374 1036.06 258 c 0,4,5
 1087.05 155.075 1087.05 155.075 1059.44 13 c 0,6,7
 1016.38 -208.501 1016.38 -208.501 840.932 -324 c 0,8,9
 664.72 -440 664.72 -440 371.384 -440 c 0,10,11
 268.384 -440 268.384 -440 167.882 -422 c 0,12,13
 67.5752 -403 67.5752 -403 -27.2324 -366 c 1,14,-1
 30.498 -69 l 1,15,16
 115.354 -121.972 115.354 -121.972 207.754 -150 c 0,17,18
 300.059 -178 300.059 -178 391.311 -178 c 0,19,20
 529.311 -178 529.311 -178 612.613 -125 c 0,21,22
 695.915 -72 695.915 -72 715.159 27 c 0,23,24
 734.985 129 734.985 129 670.288 182 c 0,25,26
 605.396 234 605.396 234 458.396 234 c 2,27,-1
 290.396 234 l 1,28,-1
 201.396 234 l 1,29,-1
 373.616 1120 l 1,30,-1
 1172.62 1120 l 1,31,-1
 1131.99 911 l 1,32,-1
 623.991 911 l 1,33,-1
 534.771 452 l 1,34,-1
 641.771 452 l 2,0,1
EndSplineSet
EndChar
StartChar: uni01BE
Encoding: 446 446 446
Width: 1233
Flags: W
TeX: 117 0 0 0
Fore
758.698 1078 m 1,0,-1
 749.174 1029 l 1,1,2
 913.147 998 913.147 998 985.876 904 c 0,3,4
 1097.69 759 1097.69 759 1052.79 528 c 0,5,6
 1011 313 1011 313 866.145 180 c 0,7,8
 637.221 -30 637.221 -30 420.325 -30 c 0,9,10
 257.325 -30 257.325 -30 187.823 -12 c 0,11,12
 118.128 5 118.128 5 56.9316 40 c 1,13,-1
 114.856 338 l 1,14,15
 176.498 295 176.498 295 242.416 274 c 0,16,17
 310.14 252 310.14 252 382.14 252 c 0,18,19
 542.732 252 542.732 252 654.3 366 c 0,20,21
 719.187 432.3 719.187 432.3 737.789 528 c 0,22,23
 751.59 599 751.59 599 715.363 675 c 0,24,25
 659.522 789 659.522 789 464.522 789 c 2,26,-1
 380.522 789 l 1,27,-1
 436.698 1078 l 1,28,-1
 218.698 1078 l 1,29,-1
 256.408 1272 l 1,30,-1
 470.408 1272 l 1,31,-1
 474.408 1272 l 1,32,-1
 506.675 1438 l 1,33,-1
 828.675 1438 l 1,34,-1
 796.408 1272 l 1,35,-1
 1029.41 1272 l 1,36,-1
 991.698 1078 l 1,37,-1
 758.698 1078 l 1,0,-1
EndSplineSet
EndChar
StartChar: uni01C0
Encoding: 448 448 448
Width: 1233
Flags: W
TeX: 117 0 0 0
Fore
628.104 1493 m 1,0,-1
 895.104 1493 l 1,1,-1
 604.896 0 l 1,2,-1
 337.896 0 l 1,3,-1
 628.104 1493 l 1,0,-1
EndSplineSet
EndChar
StartChar: uni01C2
Encoding: 450 450 450
Width: 1233
Flags: W
TeX: 117 0 0 0
Fore
628.104 1493 m 1,0,-1
 895.104 1493 l 1,1,-1
 827.655 1146 l 1,2,-1
 1237.66 1146 l 1,3,-1
 1191.98 911 l 1,4,-1
 781.976 911 l 1,5,-1
 739.212 691 l 1,6,-1
 1149.21 691 l 1,7,-1
 1103.14 454 l 1,8,-1
 693.144 454 l 1,9,-1
 604.896 0 l 1,10,-1
 337.896 0 l 1,11,-1
 426.144 454 l 1,12,-1
 16.1436 454 l 1,13,-1
 62.2119 691 l 1,14,-1
 472.212 691 l 1,15,-1
 514.976 911 l 1,16,-1
 104.976 911 l 1,17,-1
 150.655 1146 l 1,18,-1
 560.655 1146 l 1,19,-1
 628.104 1493 l 1,0,-1
EndSplineSet
EndChar
StartChar: uni01F6
Encoding: 502 502 502
Width: 1233
Flags: W
TeX: 117 0 0 0
Fore
172.924 1493 m 1,0,-1
 423.924 1493 l 1,1,-1
 313.321 924 l 1,2,-1
 535.321 924 l 1,3,-1
 645.924 1493 l 1,4,-1
 896.924 1493 l 1,5,-1
 713.817 551 l 1,6,-1
 699.433 477 l 2,7,8
 669.887 325 669.887 325 679.695 288 c 0,9,10
 692.977 238 692.977 238 748.977 238 c 0,11,12
 817.977 238 817.977 238 851.25 296 c 0,13,14
 883.136 352 883.136 352 907.433 477 c 2,15,-1
 994.321 924 l 1,16,-1
 1245.32 924 l 1,17,-1
 1172.82 551 l 2,18,19
 1113.73 247 1113.73 247 983.901 109 c 0,20,21
 854.076 -29 854.076 -29 697.076 -29 c 0,22,23
 556.076 -29 556.076 -29 479.901 109 c 0,24,25
 403.726 247 403.726 247 462.817 551 c 2,26,-1
 484.782 664 l 1,27,-1
 262.782 664 l 1,28,-1
 133.714 0 l 1,29,-1
 -117.286 0 l 1,30,-1
 172.924 1493 l 1,0,-1
EndSplineSet
EndChar
StartChar: uni0221
Encoding: 545 545 545
Width: 1233
Flags: W
TeX: 117 0 0 0
Fore
862.26 216 m 24,0,1
 865.601 210.325 865.601 210.325 910.683 211 c 24,2,3
 1014.23 211 1014.23 211 1027.16 277.5 c 128,-1,4
 1040.09 344 1040.09 344 998.285 344 c 0,5,6
 946.565 344 946.565 344 862.26 216 c 24,0,1
789.334 354 m 1,7,8
 922.22 588 922.22 588 1046.66 588 c 0,9,10
 1200.44 588.002 1200.44 588.002 1154.86 348 c 0,11,12
 1083.28 -28.9961 1083.28 -28.9961 838.387 -29 c 24,13,14
 721.529 -29 721.529 -29 720.532 -19.25 c 17,15,-1
 654.165 -140 l 17,16,-1
 511.165 -140 l 1,17,18
 561.034 -42.5986 561.034 -42.5986 597.967 28 c 1,19,20
 535.409 56 535.409 56 497.929 177 c 1,21,22
 446.936 69 446.936 69 403.938 33 c 0,23,24
 329.887 -29 329.887 -29 253.648 -29 c 0,25,26
 76.8867 -29 76.8867 -29 0.821289 125 c 128,-1,27
 -75.2441 279 -75.2441 279 -20.8184 559 c 0,28,29
 34.3857 843 34.3857 843 171.433 995 c 128,-1,30
 308.478 1147 308.478 1147 488.978 1147 c 0,31,32
 549.615 1147 549.615 1147 588.749 1100.5 c 0,33,34
 612.088 1072.77 612.088 1072.77 628.019 1028.5 c 1,35,-1
 730.979 1556 l 1,36,-1
 1022.98 1556 l 1,37,-1
 789.334 354 l 1,7,8
271.794 557 m 128,-1,39
 240.304 395 240.304 395 256.44 303 c 128,-1,40
 272.578 211 272.578 211 332.427 211 c 128,-1,41
 392.278 211 392.278 211 444.81 303 c 128,-1,42
 497.344 395 497.344 395 528.834 557 c 128,-1,43
 560.323 719 560.323 719 543.555 811 c 128,-1,44
 526.789 903 526.789 903 466.938 903 c 128,-1,45
 407.089 903 407.089 903 355.186 811 c 128,-1,38
 303.283 719 303.283 719 271.794 557 c 128,-1,39
EndSplineSet
EndChar
StartChar: uni0224
Encoding: 548 548 548
Width: 1233
Flags: W
TeX: 117 0 0 0
Fore
323.313 1493 m 1,0,-1
 1333.31 1493 l 1,1,-1
 1285.88 1249 l 1,2,-1
 401.643 260 l 1,3,-1
 1107.64 260 l 1,4,-1
 1057.1 0 l 1,5,-1
 1056.39 0 l 1,6,7
 1007 -216.441 1007 -216.441 904.68 -316 c 0,8,9
 793.684 -424 793.684 -424 583.687 -424 c 2,10,-1
 462.687 -424 l 1,11,-1
 506.422 -199 l 1,12,-1
 545.422 -199 l 2,13,14
 643.563 -199 643.563 -199 697.113 -144 c 0,15,16
 739.701 -100.257 739.701 -100.257 764.938 -0 c 1,17,-1
 11.1035 0 l 1,18,-1
 58.5322 244 l 1,19,-1
 921.774 1233 l 1,20,-1
 272.774 1233 l 1,21,-1
 323.313 1493 l 1,0,-1
EndSplineSet
EndChar
StartChar: uni0225
Encoding: 549 549 549
Width: 1233
Flags: W
TeX: 117 0 0 0
Fore
336.062 1120 m 1,0,-1
 1231.06 1120 l 1,1,-1
 1186.55 891 l 1,2,-1
 466.925 219 l 1,3,-1
 1055.92 219 l 1,4,-1
 1013.36 0 l 1,5,-1
 1012.65 -0 l 1,6,7
 963.252 -216.441 963.252 -216.441 860.932 -316 c 0,8,9
 749.936 -424 749.936 -424 539.938 -424 c 2,10,-1
 418.938 -424 l 1,11,-1
 462.674 -199 l 1,12,-1
 501.674 -199 l 2,13,14
 599.815 -199 599.815 -199 653.365 -144 c 0,15,16
 695.953 -100.257 695.953 -100.257 721.189 0 c 1,17,-1
 94.3555 0 l 1,18,-1
 138.869 229 l 1,19,-1
 859.492 901 l 1,20,-1
 293.492 901 l 1,21,-1
 336.062 1120 l 1,0,-1
EndSplineSet
EndChar
StartChar: uni0234
Encoding: 564 564 564
Width: 1233
Flags: W
TeX: 117 0 0 0
Fore
821.332 216 m 25,0,0
 824.673 210.325 824.673 210.325 869.76 211 c 0,1,2
 973.313 211 973.313 211 986.239 277.5 c 128,-1,3
 999.166 344 999.166 344 957.365 344 c 0,4,5
 905.642 344 905.642 344 821.332 216 c 25,0,0
652.056 200.316 m 1,0,0
 748.406 354 l 2,1,2
 881.291 588 881.291 588 1005.74 588 c 0,3,4
 1159.51 588 1159.51 588 1113.94 348 c 0,5,6
 1042.35 -28.9961 1042.35 -28.9961 797.459 -29 c 0,7,8
 680.602 -29 680.602 -29 679.604 -19.25 c 1,9,-1
 614.06 -140 l 1,10,-1
 468.884 -140 l 1,11,12
 489.303 -90.7861 489.303 -90.7861 525.857 -25.334 c 1,13,14
 371.804 -9.21582 371.804 -9.21582 314.807 79 c 0,15,16
 244.853 187.272 244.853 187.272 293.589 438 c 2,17,-1
 467.171 1331 l 1,18,-1
 170.171 1331 l 1,19,-1
 213.907 1556 l 1,20,-1
 803.906 1556 l 1,21,-1
 586.589 438 l 2,22,23
 560.931 306 560.931 306 591.24 251 c 0,24,25
 612.347 212.699 612.347 212.699 652.056 200.316 c 1,0,0
EndSplineSet
EndChar
StartChar: uni0235
Encoding: 565 565 565
Width: 1233
Flags: W
TeX: 117 0 0 0
Fore
926.188 216 m 25,0,0
 928.641 210.325 928.641 210.325 964.733 211 c 0,1,2
 1047.57 211 1047.57 211 1060.5 277.5 c 128,-1,3
 1073.43 344 1073.43 344 1040 344 c 0,4,5
 998.616 344 998.616 344 926.188 216 c 25,0,0
815.927 248 m 1,0,0
 873.212 354 l 2,1,2
 988.617 588 988.617 588 1088.17 588 c 0,3,4
 1211.2 588 1211.2 588 1165.4 348 c 0,5,6
 1093.48 -28.9961 1093.48 -28.9961 897.562 -29 c 0,7,8
 804.079 -29 804.079 -29 803.659 -19.25 c 1,9,-1
 746.53 -140 l 1,10,-1
 630.39 -140 l 1,11,12
 648.639 -90.7861 648.639 -90.7861 680.427 -25.334 c 1,13,14
 557.809 -9.21582 557.809 -9.21582 515.642 79 c 0,15,16
 463.888 187.272 463.888 187.272 512.624 438 c 2,17,-1
 560.053 682 l 2,18,19
 585.581 813.333 585.581 813.333 575.473 856.5 c 0,20,21
 563.177 909 563.177 909 536.177 909 c 0,22,23
 472.917 909 472.917 909 428.376 838 c 0,24,25
 377.663 757.159 377.663 757.159 355.083 641 c 2,26,-1
 230.485 0 l 1,27,-1
 -60.5137 0 l 1,28,-1
 157.191 1120 l 1,29,-1
 448.191 1120 l 1,30,-1
 427.198 1012 l 1,31,32
 452.754 1063.32 452.754 1063.32 489.526 1096 c 0,33,34
 546.913 1147 546.913 1147 631.439 1147 c 0,35,36
 758.439 1147 758.439 1147 829.433 1041.5 c 128,-1,37
 900.426 936 900.426 936 859.8 727 c 2,38,-1
 803.624 438 l 2,39,40
 770.968 270 770.968 270 815.927 248 c 1,0,0
EndSplineSet
EndChar
StartChar: uni0236
Encoding: 566 566 566
Width: 1233
Flags: W
TeX: 117 0 0 0
Fore
769.55 216 m 25,0,0
 772.001 210.325 772.001 210.325 808.098 211 c 0,1,2
 890.939 211 890.939 211 903.865 277.5 c 128,-1,3
 916.792 344 916.792 344 883.353 344 c 0,4,5
 841.974 344 841.974 344 769.55 216 c 25,0,0
646.985 438 m 2,5,6
 613.661 270.335 613.661 270.335 659.287 248 c 1,7,-1
 716.574 354 l 2,8,9
 831.979 588 831.979 588 931.541 588 c 0,10,11
 1054.55 588 1054.55 588 1008.77 348 c 0,12,13
 936.841 -28.9961 936.841 -28.9961 740.926 -29 c 0,14,15
 647.44 -29 647.44 -29 647.021 -19.25 c 1,16,-1
 589.891 -140 l 1,17,-1
 473.75 -140 l 1,18,19
 492 -90.7861 492 -90.7861 523.788 -25.334 c 1,20,21
 401.17 -9.21582 401.17 -9.21582 359.003 79 c 0,22,23
 307.249 187.272 307.249 187.272 355.985 438 c 2,24,-1
 444.817 895 l 1,25,-1
 158.817 895 l 1,26,-1
 202.553 1120 l 1,27,-1
 488.553 1120 l 1,28,-1
 550.366 1438 l 1,29,-1
 843.366 1438 l 1,30,-1
 781.553 1120 l 1,31,-1
 1164.55 1120 l 1,32,-1
 1120.82 895 l 1,33,-1
 737.817 895 l 1,34,-1
 646.985 438 l 2,5,6
EndSplineSet
EndChar
StartChar: dotlessj
Encoding: 567 567 567
Width: 1233
Flags: W
Fore
733 43 m 1,0,1
 700 -124 700 -124 669.5 -195.5 c 128,-1,2
 639 -267 639 -267 592 -313 c 0,3,4
 533 -372 533 -372 452 -398 c 128,-1,5
 371 -424 371 -424 244 -424 c 2,6,-1
 -63 -424 l 1,7,-1
 -18 -199 l 1,8,-1
 213 -199 l 2,9,10
 313 -199 313 -199 364 -145.5 c 128,-1,11
 415 -92 415 -92 440 43 c 1,12,-1
 606 895 l 1,13,-1
 309 895 l 1,14,-1
 352 1120 l 1,15,-1
 942 1120 l 1,16,-1
 733 43 l 1,0,1
EndSplineSet
EndChar
StartChar: uni0238
Encoding: 568 568 568
Width: 1233
Flags: W
TeX: 117 0 0 0
Fore
188.561 557 m 0,0,1
 157.071 395 157.071 395 176.988 303 c 0,2,3
 196.905 211 196.905 211 263.405 211 c 0,4,5
 329.905 211 329.905 211 386.288 303 c 0,6,7
 442.671 395 442.671 395 474.16 557 c 0,8,9
 505.65 719 505.65 719 485.033 811 c 0,10,11
 464.416 903 464.416 903 397.916 903 c 0,12,13
 331.416 903 331.416 903 275.733 811 c 0,14,15
 220.05 719 220.05 719 188.561 557 c 0,0,1
964.16 557 m 0,16,17
 995.65 719 995.65 719 975.733 811 c 0,18,19
 955.816 903 955.816 903 889.316 903 c 0,20,21
 822.816 903 822.816 903 766.433 811 c 0,22,23
 710.05 719 710.05 719 678.561 557 c 0,24,25
 647.071 395 647.071 395 667.688 303 c 0,26,27
 688.305 211 688.305 211 754.805 211 c 0,28,29
 821.305 211 821.305 211 876.988 303 c 0,30,31
 932.671 395 932.671 395 964.16 557 c 0,16,17
757.09 961 m 1,32,33
 812.968 1054 812.968 1054 872.057 1100.5 c 0,34,35
 931.145 1147 931.145 1147 994.145 1147 c 0,36,37
 1133.45 1147 1133.45 1147 1179.15 995 c 0,38,39
 1224.85 843 1224.85 843 1169.65 559 c 0,40,41
 1115.22 279 1115.22 279 1011.09 125 c 0,42,43
 906.953 -29 906.953 -29 772.554 -29 c 0,44,45
 701.854 -29 701.854 -29 658.878 20 c 0,46,47
 615.903 69 615.903 69 602.558 166 c 1,48,-1
 570.291 0 l 1,49,-1
 365.891 0 l 1,50,-1
 398.158 166 l 1,51,52
 346.403 69 346.403 69 284.729 20 c 0,53,54
 223.054 -29 223.054 -29 152.354 -29 c 0,55,56
 17.9531 -29 17.9531 -29 -26.3125 125 c 0,57,58
 -70.5781 279 -70.5781 279 -16.1514 559 c 0,59,60
 39.0527 843 39.0527 843 143.849 995 c 0,61,62
 248.645 1147 248.645 1147 387.945 1147 c 0,63,64
 450.945 1147 450.945 1147 491.956 1100.5 c 0,65,66
 532.968 1054 532.968 1054 552.69 961 c 1,67,-1
 668.347 1556 l 1,68,-1
 872.746 1556 l 1,69,-1
 757.09 961 l 1,32,33
EndSplineSet
EndChar
StartChar: uni0239
Encoding: 569 569 569
Width: 1233
Flags: W
TeX: 117 0 0 0
Fore
1044.44 561 m 0,0,1
 1075.93 723 1075.93 723 1056.01 815 c 0,2,3
 1036.09 907 1036.09 907 969.595 907 c 0,4,5
 903.095 907 903.095 907 846.712 815 c 0,6,7
 790.329 723 790.329 723 758.84 561 c 0,8,9
 727.35 399 727.35 399 747.967 307 c 0,10,11
 768.584 215 768.584 215 835.084 215 c 0,12,13
 901.584 215 901.584 215 957.267 307 c 0,14,15
 1012.95 399 1012.95 399 1044.44 561 c 0,0,1
268.84 561 m 0,16,17
 237.35 399 237.35 399 257.267 307 c 0,18,19
 277.184 215 277.184 215 343.684 215 c 0,20,21
 410.184 215 410.184 215 466.567 307 c 0,22,23
 522.95 399 522.95 399 554.439 561 c 0,24,25
 585.929 723 585.929 723 565.312 815 c 0,26,27
 544.695 907 544.695 907 478.195 907 c 0,28,29
 411.695 907 411.695 907 356.012 815 c 0,30,31
 300.329 723 300.329 723 268.84 561 c 0,16,17
475.91 157 m 1,32,33
 420.032 64 420.032 64 360.943 17.5 c 0,34,35
 301.855 -29 301.855 -29 238.855 -29 c 0,36,37
 99.5547 -29 99.5547 -29 53.8506 123 c 0,38,39
 8.14648 275 8.14648 275 63.3506 559 c 0,40,41
 117.777 839 117.777 839 221.912 993 c 0,42,43
 326.047 1147 326.047 1147 460.446 1147 c 0,44,45
 531.146 1147 531.146 1147 574.122 1098 c 0,46,47
 617.097 1049 617.097 1049 630.442 952 c 1,48,-1
 662.709 1118 l 1,49,-1
 867.109 1118 l 1,50,-1
 834.842 952 l 1,51,52
 886.597 1049 886.597 1049 948.271 1098 c 0,53,54
 1009.95 1147 1009.95 1147 1080.65 1147 c 0,55,56
 1215.05 1147 1215.05 1147 1259.31 993 c 0,57,58
 1303.58 839 1303.58 839 1249.15 559 c 0,59,60
 1193.95 275 1193.95 275 1089.15 123 c 0,61,62
 984.355 -29 984.355 -29 845.055 -29 c 0,63,64
 782.055 -29 782.055 -29 741.044 17.5 c 0,65,66
 700.032 64 700.032 64 680.31 157 c 1,67,-1
 564.653 -438 l 1,68,-1
 360.254 -438 l 1,69,-1
 475.91 157 l 1,32,33
EndSplineSet
EndChar
StartChar: uni023A
Encoding: 570 570 570
Width: 1233
Flags: W
TeX: 117 0 0 0
Fore
580.813 1493 m 1,0,-1
 941.813 1493 l 1,1,-1
 958.482 1272.35 l 1,2,-1
 1216.64 1559 l 1,3,-1
 1356.29 1444 l 1,4,-1
 977.29 1023.4 l 1,5,-1
 1054.6 0 l 1,6,-1
 759.604 0 l 1,7,-1
 739.33 369 l 1,8,-1
 387.625 369 l 1,9,-1
 303.328 275.449 l 1,10,-1
 182.604 0 l 1,11,-1
 55.126 0 l 1,12,-1
 -1.64258 -63 l 1,13,-1
 -78.9229 0 l 1,14,-1
 -112.396 0 l 1,15,-1
 -103.205 19.7959 l 1,16,-1
 -141.483 51 l 1,17,-1
 -32.5645 171.938 l 1,18,-1
 580.813 1493 l 1,0,-1
715.974 1003.08 m 1,19,-1
 708.331 1223 l 1,20,-1
 527.058 793.316 l 1,21,-1
 715.974 1003.08 l 1,19,-1
606.588 612 m 1,22,-1
 729.564 612 l 1,23,-1
 724.997 743.408 l 1,24,-1
 606.588 612 l 1,22,-1
EndSplineSet
EndChar
StartChar: uni023B
Encoding: 571 571 571
Width: 1233
Flags: W
TeX: 117 0 0 0
Fore
452.873 711.333 m 1,0,0
 938.517 1250.18 l 1,1,2
 908.907 1255 908.907 1255 884.551 1255 c 0,3,4
 722.551 1255 722.551 1255 615.073 1126.5 c 0,5,6
 507.595 998 507.595 998 458.417 745 c 1,7,-1
 457.688 719.783 l 2,8,9
 456.328 715.517 456.328 715.517 452.873 711.333 c 1,0,0
943.962 43 m 1,0,1
 866.964 7 866.964 7 786.466 -11 c 0,2,3
 705.967 -29 705.967 -29 620.967 -29 c 0,4,5
 323.835 -29 323.835 -29 202.575 163.636 c 1,6,-1
 -1.64258 -63 l 1,7,-1
 -141.483 51 l 1,8,-1
 133.524 356.356 l 1,9,10
 107.407 518.588 107.407 518.588 151.417 745 c 0,11,12
 224.698 1122 224.698 1122 422.38 1321 c 0,13,14
 620.062 1520 620.062 1520 922.062 1520 c 0,15,16
 1007.06 1520 1007.06 1520 1081.56 1502 c 0,17,18
 1115.72 1493.75 1115.72 1493.75 1147.04 1481.71 c 1,19,-1
 1216.64 1559 l 1,20,-1
 1356.29 1444 l 1,21,-1
 1177.78 1245.9 l 1,22,-1
 1153.31 1120 l 1,23,24
 1130.12 1146.01 1130.12 1146.01 1106.55 1166.85 c 1,25,-1
 445.494 433.222 l 1,26,27
 453.163 395.311 453.163 395.311 466.955 364.5 c 0,28,29
 524.478 236 524.478 236 686.478 236 c 0,30,31
 762.478 236 762.478 236 840.295 268.5 c 0,32,33
 918.112 301 918.112 301 1007.72 371 c 1,34,-1
 943.962 43 l 1,0,1
EndSplineSet
EndChar
StartChar: uni023C
Encoding: 572 572 572
Width: 1233
Flags: W
TeX: 117 0 0 0
Fore
32.5986 -117 m 1,0,-1
 -83.2695 2 l 1,1,-1
 170.856 247.241 l 1,2,3
 132.631 377.043 132.631 377.043 168 559 c 0,4,5
 221.844 836 221.844 836 399.264 992.5 c 0,6,7
 576.685 1149 576.685 1149 835.685 1149 c 0,8,9
 925.685 1149 925.685 1149 1005.1 1128 c 0,10,11
 1034.84 1120.14 1034.84 1120.14 1063.88 1109.05 c 1,12,-1
 1194.4 1235 l 1,13,-1
 1309.88 1114 l 1,14,-1
 1136.38 946.783 l 1,15,-1
 1106.87 795 l 1,16,17
 1075.2 827.679 1075.2 827.679 1037.36 851.355 c 1,18,-1
 482.527 316.625 l 1,19,20
 486.865 308.539 486.865 308.539 491.85 301 c 0,21,22
 551.355 211 551.355 211 694.355 211 c 0,23,24
 779.355 211 779.355 211 858.896 239.5 c 0,25,26
 938.436 268 938.436 268 1015.71 326 c 1,27,-1
 963.421 57 l 1,28,29
 881.062 14 881.062 14 791.884 -7.5 c 0,30,31
 702.704 -29 702.704 -29 604.704 -29 c 0,32,33
 371.803 -29 371.803 -29 254.795 97.1455 c 1,34,-1
 32.5986 -117 l 1,0,-1
459.307 525.606 m 1,35,-1
 855.818 908.255 l 1,36,37
 843.067 909 843.067 909 830.033 909 c 0,38,39
 687.033 909 687.033 909 592.345 818 c 0,40,41
 497.656 727 497.656 727 465 559 c 0,42,43
 461.676 541.899 461.676 541.899 459.307 525.606 c 1,35,-1
EndSplineSet
EndChar
StartChar: uni023D
Encoding: 573 573 573
Width: 1233
Flags: W
TeX: 117 0 0 0
Fore
275.293 730 m 1,0,-1
 423.604 1493 l 1,1,-1
 718.604 1493 l 1,2,-1
 570.293 730 l 1,3,-1
 814.293 730 l 1,4,-1
 776.972 538 l 1,5,-1
 532.972 538 l 1,6,-1
 478.934 260 l 1,7,-1
 1109.93 260 l 1,8,-1
 1059.4 0 l 1,9,-1
 133.396 0 l 1,10,-1
 237.972 538 l 1,11,-1
 -12.0283 538 l 1,12,-1
 25.293 730 l 1,13,-1
 275.293 730 l 1,0,-1
EndSplineSet
EndChar
StartChar: uni023E
Encoding: 574 574 574
Width: 1233
Flags: W
TeX: 117 0 0 0
Fore
618.604 0 m 1,0,-1
 323.604 0 l 1,1,-1
 473.639 771.864 l 1,2,-1
 236.364 1235 l 1,3,-1
 184.663 1235 l 1,4,-1
 198.884 1308.16 l 1,5,-1
 129.289 1444 l 1,6,-1
 313.643 1559 l 1,7,-1
 347.425 1493 l 1,8,-1
 1287.81 1493 l 1,9,-1
 1237.66 1235 l 1,10,-1
 858.663 1235 l 1,11,-1
 754.3 698.095 l 1,12,-1
 1085.52 51 l 1,13,-1
 901.357 -63 l 1,14,-1
 687.498 354.432 l 1,15,-1
 618.604 0 l 1,0,-1
540.494 1115.8 m 1,16,-1
 563.663 1235 l 1,17,-1
 479.482 1235 l 1,18,-1
 540.494 1115.8 l 1,16,-1
EndSplineSet
EndChar
StartChar: uni023F
Encoding: 575 575 575
Width: 1233
Flags: W
TeX: 117 0 0 0
Fore
1138.24 1085 m 1,0,-1
 1088.48 829 l 1,1,2
 1017.59 881 1017.59 881 935.24 907.5 c 0,3,4
 852.892 934 852.892 934 764.892 934 c 0,5,6
 666.892 934 666.892 934 611.352 905.5 c 0,7,8
 555.812 877 555.812 877 544.927 821 c 0,9,10
 529.376 741 529.376 741 733.657 691 c 2,11,-1
 744.074 688 l 1,12,-1
 824.187 668 l 2,13,14
 976.883 629.88 976.883 629.88 1034.88 545.5 c 0,15,16
 1092.95 461 1092.95 461 1064.96 317 c 0,17,18
 1031.33 144 1031.33 144 901.018 57.5 c 0,19,20
 770.703 -29 770.703 -29 542.703 -29 c 0,21,22
 520.045 -29 520.045 -29 497.307 -28.1191 c 1,23,-1
 589.768 -193.036 l 2,24,25
 634.601 -273 634.601 -273 793.274 -273 c 2,26,-1
 938.274 -273 l 1,27,-1
 895.705 -492 l 1,28,-1
 758.705 -492 l 2,29,30
 478.732 -492 478.732 -492 381.843 -319.186 c 2,31,-1
 251.19 -86.1494 l 2,32,33
 244.146 -73.584 244.146 -73.584 134.31 41 c 1,34,-1
 184.071 297 l 1,35,36
 270.381 242 270.381 242 365.243 213 c 0,37,38
 460.106 184 460.106 184 554.106 184 c 0,39,40
 657.106 184 657.106 184 715.938 214 c 0,41,42
 774.77 244 774.77 244 785.849 301 c 0,43,44
 796.734 357 796.734 357 765.065 387 c 0,45,46
 733.397 417 733.397 417 599.006 451 c 2,47,-1
 521.505 469 l 2,48,49
 360.892 507 360.892 507 299.636 588 c 0,50,51
 238.381 669 238.381 669 264.816 805 c 0,52,53
 296.307 967 296.307 967 430.801 1057 c 0,54,55
 565.295 1147 565.295 1147 777.295 1147 c 0,56,57
 872.295 1147 872.295 1147 963.782 1131.5 c 0,58,59
 1055.27 1116 1055.27 1116 1138.24 1085 c 1,0,-1
EndSplineSet
EndChar
StartChar: uni0240
Encoding: 576 576 576
Width: 1233
Flags: W
TeX: 117 0 0 0
Fore
342.671 1120 m 1,0,-1
 1237.67 1120 l 1,1,-1
 1193.16 891 l 1,2,-1
 384.825 140.135 l 1,3,4
 428.436 99.4023 428.436 99.4023 461.74 40 c 2,5,-1
 592.393 -193.036 l 2,6,7
 637.225 -273 637.225 -273 795.898 -273 c 2,8,-1
 966.898 -273 l 1,9,-1
 924.329 -492 l 1,10,-1
 761.329 -492 l 2,11,12
 481.356 -492 481.356 -492 384.467 -319.186 c 2,13,-1
 253.814 -86.1494 l 2,14,15
 205.515 0 205.515 0 100.965 0 c 1,16,-1
 145.478 229 l 1,17,-1
 866.102 901 l 1,18,-1
 300.102 901 l 1,19,-1
 342.671 1120 l 1,0,-1
EndSplineSet
EndChar
StartChar: uni0241
Encoding: 577 577 577
Width: 1233
Flags: W
TeX: 117 0 0 0
Fore
548.634 1213.45 m 1,0,-1
 470.98 1213.45 470.98 1213.45 469.268 1212.9 c 2,13,14
 426.141 1212.6 426.141 1212.6 405.552 1192.45 c 0,15,16
 367.816 1155.51 367.816 1155.51 355.971 1108.35 c 0,17,18
 352.583 1094.86 352.583 1094.86 346.088 1061.45 c 1,19,-1
 91.0889 1061.45 l 1,20,-1
 106.056 1138.45 l 2,21,22
 136.185 1293.45 136.185 1293.45 197.001 1358.71 c 0,23,24
 219.57 1382.93 219.57 1382.93 258.024 1410.95 c 0,25,26
 345.051 1474.36 345.051 1474.36 486.41 1487.63 c 0,27,28
 535.198 1492.21 535.198 1492.21 602.866 1492.45 c 2,29,-1
 758.235 1493 l 2,30,31
 1042.21 1494.01 1042.21 1494.01 1171.15 1366.5 c 0,32,33
 1299.06 1240 1299.06 1240 1253.57 1006 c 0,34,35
 1207.89 771 1207.89 771 1030.8 644.5 c 0,36,37
 853.714 518 853.714 518 568.714 518 c 1,39,-1
 468.025 0 l 1,40,-1
 173.025 0 l 1,41,-1
 327.946 797 l 1,1,-1
 669.815 797 l 2,2,3
 781.813 797 781.813 797 853.409 851.5 c 0,4,5
 925.003 906 925.003 906 944.44 1006 c 0,6,7
 963.879 1106 963.879 1106 913.375 1160 c 0,8,9
 862.593 1214.3 862.593 1214.3 750.872 1214 c 2,10,-1
 548.634 1213.45 l 1,0,-1
EndSplineSet
EndChar
StartChar: uni0250
Encoding: 592 592 592
Width: 1233
Flags: W
Fore
524.415 592 m 2,0,1
 688.415 592 688.415 592 760.578 634 c 128,-1,2
 834.742 676 834.742 676 854.569 778 c 0,3,4
 869.342 854 869.342 854 832.089 899 c 128,-1,5
 796.836 944 796.836 944 718.836 944 c 0,6,7
 602.836 944 602.836 944 521.73 856 c 128,-1,8
 440.82 769 440.82 769 410.302 612 c 2,9,-1
 406.415 592 l 1,10,-1
 524.415 592 l 2,0,1
94.4492 479 m 2,11,-1
 218.658 1118 l 1,12,-1
 508.658 1118 l 1,13,-1
 484.361 993 l 1,14,15
 552.745 1067 552.745 1067 642.521 1107 c 128,-1,16
 734.296 1147 734.296 1147 834.296 1147 c 0,17,18
 1024.3 1147 1024.3 1147 1111.66 1046 c 128,-1,19
 1199.03 945 1199.03 945 1163.85 764 c 0,20,21
 1125.75 568 1125.75 568 979.478 474 c 128,-1,22
 835.4 381 835.4 381 569.4 381 c 2,23,-1
 365.4 381 l 1,24,-1
 355.876 332 l 2,25,26
 342.074 261 342.074 261 386.883 224 c 128,-1,27
 431.885 188 431.885 188 531.885 188 c 0,28,29
 635.885 188 635.885 188 739.938 214 c 128,-1,30
 844.188 241 844.188 241 961.461 299 c 1,31,-1
 912.866 49 l 1,32,33
 809.091 9 809.091 9 705.397 -10 c 128,-1,34
 601.704 -29 601.704 -29 489.704 -29 c 0,35,36
 215.704 -29 215.704 -29 127.28 82 c 128,-1,37
 38.8564 193 38.8564 193 94.4492 479 c 2,11,-1
EndSplineSet
EndChar
StartChar: uni0251
Encoding: 593 593 593
Width: 1233
Flags: W
TeX: 0 0 0 0
Fore
899.141 961 m 1,0,-1
 929.853 1119 l 1,1,-1
 1221.85 1119 l 1,2,-1
 1004.34 0 l 1,3,-1
 712.342 0 l 1,4,-1
 744.608 166 l 1,5,6
 678.754 69 678.754 69 595.229 20 c 128,-1,7
 510.704 -29 510.704 -29 409.704 -29 c 0,8,9
 217.704 -29 217.704 -29 141.639 125 c 128,-1,10
 65.5732 279 65.5732 279 120 559 c 0,11,12
 175.204 843 175.204 843 312.75 995 c 128,-1,13
 449.296 1147 449.296 1147 648.296 1147 c 0,14,15
 738.296 1147 738.296 1147 801.16 1100 c 128,-1,16
 863.218 1054 863.218 1054 899.141 961 c 1,0,-1
412.611 557 m 0,17,18
 381.122 395 381.122 395 417.238 303 c 128,-1,19
 453.355 211 453.355 211 548.355 211 c 0,20,21
 643.355 211 643.355 211 716.238 303 c 128,-1,22
 789.122 395 789.122 395 820.611 557 c 0,23,24
 852.101 719 852.101 719 814.983 811 c 128,-1,25
 777.867 903 777.867 903 682.867 903 c 0,26,27
 587.867 903 587.867 903 515.983 811 c 128,-1,28
 444.101 719 444.101 719 412.611 557 c 0,17,18
EndSplineSet
EndChar
StartChar: uni0252
Encoding: 594 594 594
Width: 1233
Flags: W
TeX: 0 0 0 0
Fore
333.859 157 m 1,0,-1
 303.147 -1 l 1,1,-1
 11.1475 -1 l 1,2,-1
 228.658 1118 l 1,3,-1
 520.658 1118 l 1,4,-1
 488.392 952 l 1,5,6
 554.246 1049 554.246 1049 638.771 1098 c 128,-1,7
 722.296 1147 722.296 1147 823.296 1147 c 0,8,9
 1015.3 1147 1015.3 1147 1091.36 993 c 128,-1,10
 1167.43 839 1167.43 839 1113 559 c 0,11,12
 1057.8 275 1057.8 275 921.25 123 c 128,-1,13
 783.704 -29 783.704 -29 584.704 -29 c 0,14,15
 494.704 -29 494.704 -29 432.84 18 c 128,-1,16
 369.782 64 369.782 64 333.859 157 c 1,0,-1
820.389 561 m 0,17,18
 851.878 723 851.878 723 815.762 815 c 128,-1,19
 779.645 907 779.645 907 684.645 907 c 0,20,21
 589.645 907 589.645 907 516.762 815 c 128,-1,22
 443.878 723 443.878 723 412.389 561 c 0,23,24
 380.899 399 380.899 399 418.017 307 c 128,-1,25
 455.133 215 455.133 215 550.133 215 c 0,26,27
 645.133 215 645.133 215 717.017 307 c 128,-1,28
 788.899 399 788.899 399 820.389 561 c 0,17,18
EndSplineSet
EndChar
StartChar: uni0253
Encoding: 595 595 595
Width: 1233
Flags: W
TeX: 0 0 0 0
Fore
450.487 961 m 1,0,1
 522.564 1054 522.564 1054 603.506 1100 c 0,2,3
 683.642 1147 683.642 1147 773.642 1147 c 0,4,5
 972.642 1147 972.642 1147 1051.1 995 c 0,6,7
 1128.55 843 1128.55 843 1073.35 559 c 0,8,9
 1018.92 279 1018.92 279 882.985 125 c 0,10,11
 747.051 -29 747.051 -29 555.051 -29 c 0,12,13
 454.051 -29 454.051 -29 388.575 20 c 0,14,15
 323.1 69 323.1 69 295.955 166 c 1,16,-1
 263.688 0 l 1,17,-1
 -28.3125 0 l 1,18,-1
 183.174 1088 l 2,19,20
 232.157 1340 232.157 1340 343.956 1447 c 0,21,22
 454.949 1555 454.949 1555 664.949 1555 c 2,23,-1
 785.949 1555 l 1,24,-1
 742.214 1330 l 1,25,-1
 703.214 1330 l 2,26,27
 603.214 1330 603.214 1330 551.522 1275 c 0,28,29
 499.832 1220 499.832 1220 474.174 1088 c 1,30,-1
 475.174 1088 l 1,31,-1
 450.487 961 l 1,0,1
779.958 557 m 0,32,33
 811.447 719 811.447 719 775.33 811 c 0,34,35
 739.213 903 739.213 903 644.213 903 c 0,36,37
 549.213 903 549.213 903 476.33 811 c 0,38,39
 403.447 719 403.447 719 371.958 557 c 0,40,41
 340.468 395 340.468 395 377.585 303 c 0,42,43
 414.702 211 414.702 211 509.702 211 c 0,44,45
 604.702 211 604.702 211 676.585 303 c 0,46,47
 748.468 395 748.468 395 779.958 557 c 0,32,33
EndSplineSet
EndChar
StartChar: uni0254
Encoding: 596 596 596
Width: 1233
Flags: W
Fore
72.2266 57 m 1,0,1
 124.515 326 l 1,25,-1
 179.241 268 179.241 268 247.798 240 c 128,-1,24
 316.161 211 316.161 211 401.161 211 c 0,22,23
 544.161 211 544.161 211 638.655 301 c 128,-1,21
 733.149 391 733.149 391 765.806 559 c 0,19,20
 798.462 727 798.462 727 739.15 818 c 128,-1,18
 679.839 909 679.839 909 536.839 909 c 0,16,17
 454.839 909 454.839 909 372.202 880 c 128,-1,15
 290.37 850 290.37 850 215.68 795 c 1,13,14
 267.773 1063 l 1,12,-1
 359.326 1107 359.326 1107 446.408 1128 c 128,-1,11
 534.49 1149 534.49 1149 624.49 1149 c 0,9,10
 883.49 1149 883.49 1149 999.973 992 c 128,-1,8
 1116.65 836 1116.65 836 1062.81 559 c 0,6,7
 1009.16 283 1009.16 283 832.833 127 c 128,-1,5
 656.51 -29 656.51 -29 397.51 -29 c 0,3,4
 299.51 -29 299.51 -29 218.592 -8 c 128,-1,2
 137.868 14 137.868 14 72.2266 57 c 1,0,1
EndSplineSet
EndChar
StartChar: uni0255
Encoding: 597 597 597
Width: 1233
Flags: W
TeX: 0 0 0 0
Fore
609.129 232 m 1,0,1
 661.464 208 661.464 208 715.27 207 c 2,2,-1
 720.27 207 l 2,3,4
 867.149 207 867.149 207 877.349 264 c 0,5,6
 890.77 339 890.77 339 759.928 339 c 0,7,8
 676.928 339 676.928 339 609.129 232 c 1,0,1
473.695 333.653 m 1,9,-1
 480.26 351 l 1,10,11
 618.442 532 618.442 532 787.442 532 c 0,12,13
 1072.29 526.639 1072.29 526.639 1030.18 294 c 0,14,15
 972.396 -29 972.396 -29 657.396 -29 c 0,16,17
 554.972 -29 554.972 -29 551.542 -28.335 c 0,18,19
 548.958 -27.834 548.958 -27.834 545.784 -27 c 1,20,-1
 523.625 -141 l 1,21,-1
 323.819 -140 l 1,22,23
 341.931 -46.8232 341.931 -46.8232 356.633 23.7549 c 1,24,25
 283.126 61.7178 283.126 61.7178 234.719 127 c 0,26,27
 119.042 283 119.042 283 172.691 559 c 0,28,29
 226.438 835.501 226.438 835.501 403.857 992 c 0,30,31
 581.846 1149 581.846 1149 840.375 1149 c 0,32,33
 929.878 1149 929.878 1149 1009.29 1128 c 0,34,35
 1089.62 1106.76 1089.62 1106.76 1163.66 1063 c 1,36,-1
 1111.56 795 l 1,37,38
 1058.26 850 1058.26 850 987.087 880 c 0,39,40
 916.724 909 916.724 909 834.724 909 c 0,41,42
 691.724 909 691.724 909 597.035 818 c 0,43,44
 502.347 727 502.347 727 469.691 559 c 0,45,46
 439.824 405.349 439.824 405.349 473.695 333.653 c 1,9,-1
EndSplineSet
EndChar
StartChar: uni0256
Encoding: 598 598 598
Width: 1233
Flags: W
TeX: 0 0 0 0
Fore
355.212 557 m 128,-1,1
 323.723 395 323.723 395 348.839 303 c 128,-1,2
 373.956 211 373.956 211 449.956 211 c 128,-1,3
 525.956 211 525.956 211 587.839 303 c 128,-1,4
 649.723 395 649.723 395 681.212 557 c 128,-1,5
 712.701 719 712.701 719 686.585 811 c 128,-1,6
 660.468 903 660.468 903 584.468 903 c 128,-1,7
 508.468 903 508.468 903 447.585 811 c 128,-1,0
 386.701 719 386.701 719 355.212 557 c 128,-1,1
759.741 961 m 1,8,-1
 875.397 1556 l 1,9,-1
 1165.81 1556 l 1,10,-1
 889.788 136 l 2,11,12
 864.13 4 864.13 4 875.548 -51 c 128,-1,13
 886.968 -106 886.968 -106 940.568 -106 c 2,14,-1
 961.338 -106 l 1,15,-1
 917.603 -331 l 1,16,-1
 820.603 -331 l 2,17,18
 652.938 -331 652.938 -331 601.596 -223 c 0,19,20
 550.491 -115.502 550.491 -115.502 599.378 136 c 2,21,-1
 605.209 166 l 1,22,23
 549.354 69 549.354 69 479.83 20 c 0,24,25
 411.305 -29 411.305 -29 330.305 -29 c 0,26,27
 150.125 -29 150.125 -29 80.6094 125 c 0,28,29
 12.2637 279 12.2637 279 66.6904 559 c 0,30,31
 121.895 843 121.895 843 252.061 995 c 128,-1,32
 382.227 1147 382.227 1147 568.257 1147 c 0,33,34
 638.896 1147 638.896 1147 686.761 1100 c 0,35,36
 734.819 1054 734.819 1054 759.741 961 c 1,8,-1
EndSplineSet
EndChar
StartChar: uni0257
Encoding: 599 599 599
Width: 1233
Flags: W
TeX: 0 0 0 0
Fore
324.958 557 m 128,-1,1
 293.468 395 293.468 395 318.585 303 c 128,-1,3
 343.702 211 343.702 211 419.702 211 c 128,-1,5
 495.702 211 495.702 211 557.585 303 c 128,-1,7
 619.468 395 619.468 395 650.958 557 c 128,-1,9
 682.447 719 682.447 719 656.33 811 c 128,-1,11
 630.213 903 630.213 903 554.213 903 c 128,-1,13
 478.213 903 478.213 903 417.33 811 c 128,-1,15
 356.447 719 356.447 719 324.958 557 c 128,-1,1
1051.77 1088 m 2,16,-1
 840.287 0 l 1,17,-1
 542.688 0 l 1,18,-1
 574.955 166 l 1,19,20
 519.1 69 519.1 69 449.575 20 c 128,-1,22
 380.051 -29 380.051 -29 298.61 -29 c 0,23,24
 116.891 -29 116.891 -29 46.5254 125 c 128,-1,26
 -23.8398 279 -23.8398 279 30.5869 559 c 0,27,28
 85.791 843 85.791 843 216.816 995 c 128,-1,30
 347.842 1147 347.842 1147 536.642 1147 c 0,31,32
 608.642 1147 608.642 1147 656.506 1100 c 0,33,34
 704.564 1054 704.564 1054 729.487 961 c 1,35,-1
 756.174 1088 l 2,36,37
 809.869 1343.54 809.869 1343.54 898.956 1447 c 0,38,39
 991.949 1555 991.949 1555 1159.95 1555 c 2,40,-1
 1256.95 1555 l 1,41,-1
 1213.21 1330 l 1,42,-1
 1192.41 1330 l 2,43,44
 1140.41 1330 1140.41 1330 1108.92 1275 c 0,45,46
 1077.75 1221.67 1077.75 1221.67 1051.77 1088 c 2,16,-1
EndSplineSet
EndChar
StartChar: uni0258
Encoding: 600 600 600
Width: 1233
Flags: W
Fore
37.0322 55 m 1,0,1
 89.3203 324 l 1,20,-1
 184.074 261 184.074 261 276.438 232 c 128,-1,19
 368.801 203 368.801 203 469.801 203 c 0,17,18
 622.801 203 622.801 203 712.436 268 c 128,-1,16
 802.07 333 802.07 333 828.729 465 c 1,14,15
 69.7285 465 l 1,13,-1
 92.8594 584 l 2,12,-1
 144.953 852 144.953 852 311.722 1000 c 128,-1,11
 477.296 1147 477.296 1147 726.296 1147 c 0,9,10
 973.296 1147 973.296 1147 1085.39 988 c 128,-1,8
 1197.48 829 1197.48 829 1144.22 555 c 0,6,7
 1089.21 272 1089.21 272 911.056 122 c 128,-1,5
 733.704 -29 733.704 -29 452.704 -29 c 0,3,4
 334.704 -29 334.704 -29 232.786 -8 c 128,-1,2
 130.868 13 130.868 13 37.0322 55 c 1,0,1
407.492 685 m 1,21,22
 868.298 684 l 1,27,-1
 879.263 797 879.263 797 831.12 858 c 128,-1,26
 783.171 920 783.171 920 682.171 920 c 0,24,25
 570.171 920 570.171 920 500.509 860 c 128,-1,23
 432.04 801 432.04 801 407.492 685 c 1,21,22
EndSplineSet
EndChar
StartChar: uni0259
Encoding: 601 601 601
Width: 1233
Flags: W
Fore
232.968 1063 m 1,0,1
 343.132 1105 343.132 1105 453.214 1126 c 128,-1,2
 563.296 1147 563.296 1147 681.296 1147 c 0,3,4
 962.296 1147 962.296 1147 1080.94 996 c 128,-1,5
 1200.79 846 1200.79 846 1145.78 563 c 0,6,7
 1092.52 289 1092.52 289 918.611 130 c 128,-1,8
 744.704 -29 744.704 -29 497.704 -29 c 0,9,10
 248.704 -29 248.704 -29 140.278 118 c 128,-1,11
 31.0469 266 31.0469 266 83.1406 534 c 2,12,-1
 106.271 653 l 1,13,-1
 865.271 653 l 1,14,15
 889.93 785 889.93 785 825.564 850 c 128,-1,16
 761.199 915 761.199 915 608.199 915 c 0,17,18
 507.199 915 507.199 915 403.562 886 c 128,-1,19
 299.926 857 299.926 857 180.68 794 c 1,20,-1
 232.968 1063 l 1,0,1
358.508 433 m 1,21,22
 337.96 317 337.96 317 383.491 258 c 128,-1,23
 429.829 198 429.829 198 541.829 198 c 0,24,25
 642.829 198 642.829 198 714.88 260 c 128,-1,26
 786.737 321 786.737 321 819.702 434 c 1,27,-1
 358.508 433 l 1,21,22
EndSplineSet
EndChar
StartChar: uni025A
Encoding: 602 602 602
Width: 1233
Flags: W
TeX: 0 0 0 0
Fore
603.307 540 m 1,0,-1
 237.684 295 l 1,1,2
 241.351 283 241.351 283 247.213 272 c 0,3,4
 279.967 209 279.967 209 351.967 209 c 0,5,6
 429.967 209 429.967 209 490.436 268 c 0,7,8
 549.709 326 549.709 326 583.091 436 c 2,9,-1
 603.307 540 l 1,0,-1
903.405 736 m 1,10,11
 902.66 655 902.66 655 884 559 c 0,12,13
 830.74 285 830.74 285 676.222 128 c 0,14,15
 521.704 -29 521.704 -29 303.704 -29 c 0,16,17
 105.704 -29 105.704 -29 17.6113 130 c 0,18,19
 -29.6729 216 -29.6729 216 -36.7354 334 c 1,20,-1
 626.375 777 l 1,21,22
 618.345 818 618.345 818 597.787 846 c 0,23,24
 551.033 909 551.033 909 447.033 909 c 0,25,26
 362.033 909 362.033 909 266.618 876 c 0,27,28
 171.01 842 171.01 842 63.792 774 c 1,29,-1
 117.44 1050 l 1,30,31
 222.771 1098 222.771 1098 322.437 1122 c 0,32,33
 422.296 1147 422.296 1147 517.296 1147 c 0,34,35
 745.296 1147 745.296 1147 842.167 992 c 0,36,37
 856.696 969 856.696 969 867.447 942 c 1,38,-1
 1057.72 1072 l 1,39,-1
 1208.11 1074 l 1,40,-1
 1174.87 903 l 2,41,42
 1131.13 678 1131.13 678 1132.77 671 c 0,43,44
 1151.08 616 1151.08 616 1204.08 616 c 2,45,-1
 1237.08 616 l 1,46,-1
 1202.09 436 l 1,47,-1
 1130.09 436 l 2,48,49
 1017.09 436 1017.09 436 979.667 547 c 0,50,51
 973.356 638 973.356 638 1005.62 804 c 1,52,-1
 903.405 736 l 1,10,11
EndSplineSet
EndChar
StartChar: uni025B
Encoding: 603 603 603
Width: 1233
Flags: W
TeX: 0 0 0 0
Fore
426.041 573 m 1,0,1
 291.095 599 291.095 599 231.535 663 c 128,-1,40
 171.364 729 171.364 729 188.275 816 c 0,38,39
 221.903 989 221.903 989 377.259 1068 c 128,-1,37
 532.615 1147 532.615 1147 773.615 1147 c 0,35,36
 866.615 1147 866.615 1147 968.283 1135 c 128,-1,34
 1071.95 1123 1071.95 1123 1188.29 1099 c 1,32,33
 1142.41 863 l 1,31,-1
 1012.44 894 1012.44 894 930.187 903 c 128,-1,30
 824.52 915 824.52 915 820.52 915 c 0,28,29
 698.52 915 698.52 915 643.854 891 c 128,-1,27
 551.468 853 551.468 853 541.942 804 c 0,25,26
 528.53 735 528.53 735 605.699 705 c 128,-1,24
 663.034 681 663.034 681 767.034 681 c 2,22,23
 884.034 681 l 1,21,-1
 841.465 462 l 1,20,-1
 658.465 462 l 2,19,-1
 608.465 462 608.465 462 540.383 441 c 128,-1,18
 438.163 409 438.163 409 422.807 330 c 0,16,17
 405.507 241 405.507 241 503.647 216 c 128,-1,15
 535.731 201 535.731 201 648.731 201 c 0,13,14
 762.731 201 762.731 201 871.23 219 c 128,-1,12
 979.535 236 979.535 236 1074.14 270 c 1,10,11
 1028.27 34 l 1,9,-1
 911.827 6 911.827 6 805.106 -8 c 128,-1,8
 697.385 -22 697.385 -22 599.385 -22 c 0,6,7
 304.385 -22 304.385 -22 165.073 69 c 128,-1,5
 23.9561 161 23.9561 161 45.7266 273 c 0,3,4
 70.8018 402 70.8018 402 170.187 476 c 128,-1,2
 269.57 550 269.57 550 426.041 573 c 1,0,1
EndSplineSet
EndChar
StartChar: uni025C
Encoding: 604 604 604
Width: 1233
Flags: W
TeX: 0 0 0 0
Fore
811.041 573 m 1,0,1
 958.57 550 958.57 550 1029.19 476 c 128,-1,2
 1099.8 402 1099.8 402 1074.73 273 c 0,3,4
 1052.96 161 1052.96 161 876.073 69 c 128,-1,5
 701.385 -22 701.385 -22 406.385 -22 c 0,6,7
 308.385 -22 308.385 -22 206.106 -8 c 128,-1,8
 104.827 6 104.827 6 -0.730469 34 c 1,9,-1
 45.1436 270 l 1,10,11
 126.535 236 126.535 236 228.23 219 c 128,-1,12
 329.731 201 329.731 201 443.731 201 c 0,13,14
 556.731 201 556.731 201 594.647 216 c 128,-1,15
 702.507 241 702.507 241 719.807 330 c 0,16,17
 735.163 409 735.163 409 645.383 441 c 128,-1,18
 585.465 462 585.465 462 535.465 462 c 2,19,-1
 352.465 462 l 1,20,-1
 395.034 681 l 1,21,-1
 512.034 681 l 2,22,23
 616.034 681 616.034 681 682.699 705 c 128,-1,24
 771.53 735 771.53 735 784.942 804 c 0,25,26
 794.468 853 794.468 853 716.854 891 c 128,-1,27
 671.52 915 671.52 915 549.52 915 c 0,28,29
 545.52 915 545.52 915 435.187 903 c 128,-1,30
 349.438 894 349.438 894 207.411 863 c 1,31,-1
 253.285 1099 l 1,32,33
 378.95 1123 378.95 1123 487.283 1135 c 128,-1,34
 593.615 1147 593.615 1147 686.615 1147 c 0,35,36
 927.615 1147 927.615 1147 1052.26 1068 c 128,-1,37
 1176.9 989 1176.9 989 1143.28 816 c 0,38,39
 1126.36 729 1126.36 729 1040.54 663 c 128,-1,40
 956.095 599 956.095 599 811.041 573 c 1,0,1
EndSplineSet
EndChar
StartChar: uni025D
Encoding: 605 605 605
Width: 1233
Flags: W
TeX: 0 0 0 0
Fore
581.041 573 m 1,0,1
 690.57 550 690.57 550 739.187 476 c 0,2,3
 788.802 402 788.802 402 763.727 273 c 0,4,5
 741.956 161 741.956 161 605.073 69 c 0,6,7
 470.385 -22 470.385 -22 248.385 -22 c 0,8,9
 174.385 -22 174.385 -22 99.1064 -8 c 0,10,11
 23.8271 6 23.8271 6 -54.7305 34 c 1,12,-1
 -8.85645 270 l 1,13,14
 51.5352 236 51.5352 236 126.23 219 c 0,15,16
 201.731 201 201.731 201 286.731 201 c 0,17,18
 358.731 201 358.731 201 400.647 216 c 0,19,20
 484.479 246 484.479 246 500.807 330 c 0,21,22
 516.163 409 516.163 409 449.383 441 c 0,23,24
 406.465 462 406.465 462 368.465 462 c 2,25,-1
 231.465 462 l 1,26,-1
 274.034 681 l 1,27,-1
 362.034 681 l 2,28,29
 437.034 681 437.034 681 490.699 705 c 0,30,31
 559.53 735 559.53 735 572.942 804 c 0,32,33
 581.885 850 581.885 850 525.854 891 c 0,34,35
 492.52 915 492.52 915 401.52 915 c 0,36,37
 398.52 915 398.52 915 314.187 903 c 0,38,39
 250.438 894 250.438 894 142.411 863 c 1,40,-1
 188.285 1099 l 1,41,42
 282.95 1123 282.95 1123 365.283 1135 c 0,43,44
 446.615 1147 446.615 1147 515.615 1147 c 0,45,46
 695.615 1147 695.615 1147 785.259 1068 c 0,47,48
 838.317 1022 838.317 1022 848.156 944 c 1,49,-1
 1032.04 1072 l 1,50,-1
 1182.43 1074 l 1,51,-1
 1149.19 903 l 2,52,53
 1107.78 690 1107.78 690 1113.09 671 c 0,54,55
 1130.4 616 1130.4 616 1162.4 616 c 2,56,-1
 1195.4 616 l 1,57,-1
 1160.41 436 l 1,58,-1
 1088.41 436 l 2,59,60
 998.411 436 998.411 436 959.987 547 c 0,61,62
 947.676 638 947.676 638 979.942 804 c 1,63,-1
 710.76 623 l 1,64,-1
 710.343 626 l 1,65,66
 655.346 590 655.346 590 581.041 573 c 1,0,1
EndSplineSet
EndChar
StartChar: uni025E
Encoding: 606 606 606
Width: 1233
Flags: W
TeX: 0 0 0 0
Fore
719.659 915 m 0,28,29
 454.659 915 454.659 915 383.099 552 c 1,0,0
 312.345 188 312.345 188 610.345 188 c 0,28,29
 680.345 188 680.345 188 725.787 216 c 128,-1,27
 785.979 253 785.979 253 798.225 316 c 0,25,26
 812.221 388 812.221 388 760.44 420 c 128,-1,24
 726.717 442 726.717 442 652.717 442 c 2,22,23
 520.717 442 l 9,0,0
 563.286 661 l 1,21,-1
 696.286 661 l 2,22,23
 760.286 661 760.286 661 806.757 684 c 128,-1,24
 876.366 718 876.366 718 890.75 792 c 0,25,26
 901.441 847 901.441 847 849.244 882 c 128,-1,27
 798.854 916 798.854 916 719.659 915 c 0,28,29
515.425 1099 m 0,32,33
 613.172 1144 613.172 1144 811.366 1145 c 0,35,36
 1019.37 1145 1019.37 1145 1113.65 1059 c 128,-1,37
 1206.74 972 1206.74 972 1177.97 824 c 0,38,39
 1158.92 726 1158.92 726 1086.15 650 c 128,-1,40
 1016.15 578 1016.15 578 876.099 552 c 1,0,1
 1002.04 526 1002.04 526 1047.86 453 c 128,-1,40
 1092.05 382 1092.05 382 1072.03 279 c 0,38,39
 1043.26 131 1043.26 131 916.548 45 c 128,-1,37
 790.831 -41 790.831 -41 580.637 -42 c 0,35,36
 382.442 -43 382.442 -43 305.3 18 c 0,0,0
 43.5645 220 43.5645 220 108.099 552 c 0,0,0
 185.073 948 185.073 948 515.425 1099 c 0,32,33
EndSplineSet
EndChar
StartChar: uni025F
Encoding: 607 607 607
Width: 1233
Flags: W
Fore
790.714 43 m 2,0,1
 741.73 -209 741.73 -209 630.334 -316.5 c 0,2,3
 518.938 -424 518.938 -424 308.938 -424 c 2,4,-1
 -7.06152 -424 l 1,5,-1
 36.6738 -199 l 1,6,-1
 270.674 -199 l 2,7,8
 368.674 -199 368.674 -199 420.365 -144 c 0,9,10
 472.056 -89 472.056 -89 497.714 43 c 2,11,-1
 574.494 438 l 1,12,-1
 295.494 438 l 1,13,-1
 333.204 632 l 1,14,-1
 612.204 632 l 1,15,-1
 663.326 895 l 1,16,-1
 366.326 895 l 1,17,-1
 410.062 1120 l 1,18,-1
 1000.06 1120 l 1,19,-1
 905.204 632 l 1,20,-1
 1107.2 632 l 1,21,-1
 1069.49 438 l 1,22,-1
 867.494 438 l 1,23,-1
 790.714 43 l 2,0,1
EndSplineSet
EndChar
StartChar: uni0260
Encoding: 608 608 608
Width: 1233
Flags: W
TeX: 0 0 0 0
Fore
564.591 887 m 2,0,1
 475.591 887 475.591 887 410.651 805 c 0,2,3
 344.712 723 344.712 723 315.555 573 c 0,4,5
 285.62 419 285.62 419 318.265 340 c 0,6,7
 350.714 260 350.714 260 442.714 260 c 0,8,9
 532.714 260 532.714 260 597.653 342 c 0,10,11
 663.593 424 663.593 424 692.555 573 c 2,12,-1
 753.591 887 l 1,13,-1
 564.591 887 l 2,0,1
618.107 190 m 1,14,15
 540.059 92 540.059 92 459.116 46 c 0,16,17
 379.175 0 379.175 0 286.175 0 c 0,18,19
 122.175 0 122.175 0 45.665 162 c 0,20,21
 -30.04 323 -30.04 323 18.5547 573 c 0,22,23
 62.4854 799 62.4854 799 200.78 960 c 0,24,25
 339.881 1120 339.881 1120 503.881 1120 c 2,26,-1
 798.881 1120 l 1,27,-1
 800.881 1120 l 1,28,29
 845.535 1324 845.535 1324 949.694 1438 c 0,30,31
 1059.63 1556 1059.63 1556 1183.63 1556 c 2,32,-1
 1408.63 1556 l 1,33,-1
 1362.95 1321 l 1,34,-1
 1229.95 1321 l 2,35,36
 1187.95 1321 1187.95 1321 1149.01 1275 c 0,37,38
 1109.07 1229 1109.07 1229 1082.83 1094 c 2,39,-1
 1040.06 874 l 1,40,-1
 1039.06 874 l 1,41,-1
 891.14 113 l 2,42,43
 841.768 -141 841.768 -141 676.971 -284 c 0,44,45
 513.369 -426 513.369 -426 254.369 -426 c 0,46,47
 170.369 -426 170.369 -426 94.4795 -410 c 0,48,49
 19.5889 -394 19.5889 -394 -52.9961 -361 c 1,50,-1
 -1.87402 -98 l 1,51,52
 62.6289 -152 62.6289 -152 129.575 -178 c 0,53,54
 196.327 -205 196.327 -205 269.327 -205 c 0,55,56
 410.327 -205 410.327 -205 490.295 -128 c 0,57,58
 571.262 -51 571.262 -51 603.14 113 c 2,59,-1
 618.107 190 l 1,14,15
EndSplineSet
EndChar
StartChar: uni0261
Encoding: 609 609 609
Width: 1233
Flags: W
TeX: 0 0 0 0
Fore
783.482 190 m 1,0,1
 703.433 92 703.433 92 621.491 46 c 128,-1,2
 539.55 0 539.55 0 444.55 0 c 0,3,4
 275.55 0 275.55 0 198.04 162 c 128,-1,5
 119.335 323 119.335 323 167.93 573 c 0,6,7
 211.86 799 211.86 799 353.155 960 c 128,-1,8
 493.256 1120 493.256 1120 662.256 1120 c 2,9,10
 964.256 1120 l 1,13,-1
 1259.26 1120 l 1,14,-1
 1063.51 113 l 2,15,16
 1014.14 -141 1014.14 -141 847.346 -284 c 128,-1,17
 679.744 -426 679.744 -426 413.744 -426 c 0,18,19
 327.744 -426 327.744 -426 250.854 -410 c 128,-1,20
 172.964 -394 172.964 -394 98.3789 -361 c 1,21,-1
 149.501 -98 l 1,22,23
 216.004 -152 216.004 -152 284.95 -178 c 128,-1,24
 353.702 -205 353.702 -205 427.702 -205 c 0,25,26
 572.702 -205 572.702 -205 654.669 -128 c 128,-1,27
 736.637 -51 736.637 -51 768.515 113 c 2,28,-1
 783.482 190 l 1,0,1
725.966 887 m 1,29,30
 634.966 887 634.966 887 568.026 805 c 128,-1,31
 501.087 723 501.087 723 471.93 573 c 0,32,33
 441.995 419 441.995 419 475.64 340 c 128,-1,34
 509.089 260 509.089 260 604.089 260 c 0,35,36
 695.089 260 695.089 260 762.028 342 c 128,-1,37
 828.967 424 828.967 424 857.93 573 c 1,38,39
 918.966 887 l 129,-1,40
 725.966 887 l 1,29,30
EndSplineSet
EndChar
StartChar: uni0262
Encoding: 610 610 610
Width: 1233
Flags: W
TeX: 0 0 0 0
Fore
989.877 101 m 1,0,1
 887.157 51 887.157 51 781.104 25 c 128,-1,2
 676.244 0 676.244 0 569.244 0 c 0,3,4
 327.244 0 327.244 0 215.596 151 c 128,-1,5
 103.753 301 103.753 301 153.902 559 c 0,6,7
 204.636 820 204.636 820 377.793 970 c 128,-1,8
 550.756 1119 550.756 1119 800.756 1119 c 0,9,10
 896.756 1119 896.756 1119 981.868 1099 c 128,-1,11
 1065.98 1079 1065.98 1079 1137.21 1039 c 1,12,-1
 1091.33 803 l 1,13,14
 1019.86 852 1019.86 852 944.521 876 c 128,-1,15
 868.187 900 868.187 900 788.187 900 c 0,16,17
 639.187 900 639.187 900 540.887 811 c 128,-1,18
 443.781 723 443.781 723 411.902 559 c 0,19,20
 380.413 397 380.413 397 440.113 308 c 128,-1,21
 500.813 219 500.813 219 643.813 219 c 0,22,23
 682.813 219 682.813 219 717.979 225 c 128,-1,24
 751.952 230 751.952 230 781.09 241 c 1,25,-1
 811.746 409 l 1,26,-1
 563.746 409 l 1,27,-1
 606.704 630 l 1,28,-1
 1092.7 630 l 1,29,-1
 989.877 101 l 1,0,1
EndSplineSet
EndChar
StartChar: uni0263
Encoding: 611 611 611
Width: 1233
Flags: W
TeX: 0 0 0 0
Fore
835.718 590 m 1,5,-1
 1004.46 208 1004.46 208 931.239 -179 c 0,0,0
 887.143 -411 887.143 -411 477.365 -415 c 0,0,0
 26.3936 -420 26.3936 -420 72.2393 -179 c 0,0,0
 137.717 163 137.717 163 486.328 588 c 1,0,0
 248.654 1135 l 1,0,-1
 571.654 1135 l 1,1,-1
 701.12 803 l 1,2,-1
 962.654 1135 l 1,3,-1
 1285.65 1135 l 1,4,-1
 835.718 590 l 1,5,-1
616.76 369 m 1,0,0
 365.501 59 365.501 59 344.01 -67 c 0,0,0
 321.906 -191 321.906 -191 502.906 -191 c 16,0,0
 676.906 -191 676.906 -191 701.01 -67 c 0,0,0
 732.499 95 732.499 95 616.76 369 c 1,0,0
EndSplineSet
EndChar
StartChar: uni0264
Encoding: 612 612 612
Width: 1233
Flags: W
TeX: 0 0 0 0
Fore
543.245 136 m 0,0,0
 588.245 136 588.245 136 605.156 223 c 0,0,0
 616.625 282 616.625 282 586.62 354 c 1,0,0
 528.236 280 528.236 280 517.156 223 c 0,0,0
 501.023 140 501.023 140 543.245 136 c 0,0,0
453.717 586 m 1,0,0
 218.516 1120 l 1,8,-1
 541.516 1120 l 1,9,-1
 670.981 788 l 1,10,-1
 932.516 1120 l 1,11,-1
 1255.52 1120 l 1,0,-1
 804.578 575 l 1,0,0
 909.122 336 909.122 336 870.468 132 c 0,0,0
 824.484 -120 824.484 -120 496.484 -120 c 0,0,0
 159.484 -120 159.484 -120 208.468 132 c 0,0,0
 249.677 344 249.677 344 453.717 586 c 1,0,0
EndSplineSet
EndChar
StartChar: uni0265
Encoding: 613 613 613
Width: 1233
Flags: W
Fore
176.913 391 m 2,0,-1
 318.228 1118 l 1,1,-1
 609.228 1118 l 1,2,-1
 476.66 436 l 2,3,4
 453.141 315 453.141 315 477.032 263 c 128,-1,5
 501.925 211 501.925 211 579.925 211 c 0,6,7
 659.925 211 659.925 211 718.726 282 c 128,-1,8
 777.333 352 777.333 352 801.63 477 c 2,9,-1
 926.228 1118 l 1,10,-1
 1217.23 1118 l 1,11,-1
 914.772 -438 l 1,12,-1
 623.772 -438 l 1,13,-1
 741.178 166 l 1,14,15
 692.101 73 692.101 73 607.188 22 c 128,-1,16
 522.273 -29 522.273 -29 416.273 -29 c 0,17,18
 257.273 -29 257.273 -29 196.684 76 c 128,-1,19
 136.288 182 136.288 182 176.913 391 c 2,0,-1
EndSplineSet
EndChar
StartChar: uni0266
Encoding: 614 614 614
Width: 1233
Flags: W
Fore
1056.18 727 m 2,0,-1
 914.869 0 l 1,1,-1
 623.869 0 l 1,2,-1
 756.437 682 l 2,3,4
 779.957 803 779.957 803 755.064 855 c 0,5,6
 731.172 907 731.172 907 653.172 907 c 0,7,8
 573.172 907 573.172 907 514.371 836 c 0,9,10
 455.765 766 455.765 766 431.467 641 c 2,11,-1
 306.869 0 l 1,12,-1
 15.8691 0 l 1,13,-1
 227.355 1088 l 2,14,15
 276.339 1340 276.339 1340 388.138 1447 c 0,16,17
 499.131 1555 499.131 1555 709.131 1555 c 2,18,-1
 830.131 1555 l 1,19,-1
 786.396 1330 l 1,20,-1
 747.396 1330 l 2,21,22
 647.396 1330 647.396 1330 595.704 1275 c 0,23,24
 544.014 1220 544.014 1220 518.355 1088 c 2,25,-1
 491.919 952 l 1,26,27
 540.997 1045 540.997 1045 625.91 1096 c 0,28,29
 710.823 1147 710.823 1147 816.823 1147 c 0,30,31
 975.823 1147 975.823 1147 1036.41 1042 c 0,32,33
 1096.81 936 1096.81 936 1056.18 727 c 2,0,-1
EndSplineSet
EndChar
StartChar: uni0267
Encoding: 615 615 615
Width: 1233
Flags: W
Fore
673.242 41 m 2,0,-1
 797.84 682 l 2,1,2
 821.359 803 821.359 803 796.468 855 c 0,3,4
 772.575 907 772.575 907 694.575 907 c 0,5,6
 614.575 907 614.575 907 555.774 836 c 0,7,8
 497.168 766 497.168 766 472.87 641 c 2,9,-1
 348.272 0 l 1,10,-1
 57.2725 0 l 1,11,-1
 268.758 1088 l 2,12,13
 317.742 1340 317.742 1340 429.541 1447 c 0,14,15
 540.534 1555 540.534 1555 750.534 1555 c 2,16,-1
 871.534 1555 l 1,17,-1
 827.798 1330 l 1,18,-1
 788.798 1330 l 2,19,20
 688.798 1330 688.798 1330 637.107 1275 c 0,21,22
 585.416 1220 585.416 1220 559.758 1088 c 2,23,-1
 533.322 952 l 1,24,25
 582.399 1045 582.399 1045 667.313 1096 c 0,26,27
 752.227 1147 752.227 1147 858.227 1147 c 0,28,29
 1017.23 1147 1017.23 1147 1077.82 1042 c 0,30,31
 1138.21 936 1138.21 936 1097.59 727 c 2,32,-1
 955.643 0 l 2,33,34
 905.944 -219.918 905.944 -219.918 803.459 -318 c 0,35,36
 692.466 -426 692.466 -426 482.466 -426 c 2,37,-1
 361.466 -426 l 1,38,-1
 405.202 -201 l 1,39,-1
 444.202 -201 l 2,40,41
 544.202 -201 544.202 -201 595.893 -146 c 0,42,43
 647.584 -91 647.584 -91 673.242 41 c 2,0,-1
EndSplineSet
EndChar
StartChar: uni0268
Encoding: 616 616 616
Width: 1233
Flags: W
Fore
557.228 1556 m 1,0,-1
 915.228 1556 l 1,1,-1
 858.469 1264 l 1,2,-1
 500.469 1264 l 1,3,-1
 557.228 1556 l 1,0,-1
250.479 1120 m 1,4,-1
 830.479 1120 l 1,5,-1
 735.62 632 l 1,6,-1
 937.62 632 l 1,7,-1
 899.911 438 l 1,8,-1
 697.911 438 l 1,9,-1
 656.508 225 l 1,10,-1
 1020.51 225 l 1,11,-1
 976.772 0 l 1,12,-1
 -45.2275 0 l 1,13,-1
 -1.49219 225 l 1,14,-1
 362.508 225 l 1,15,-1
 403.911 438 l 1,16,-1
 339.911 438 l 1,17,-1
 125.911 438 l 1,18,-1
 163.62 632 l 1,19,-1
 441.62 632 l 1,20,-1
 492.742 895 l 1,21,-1
 206.742 895 l 1,22,-1
 250.479 1120 l 1,4,-1
EndSplineSet
EndChar
